<?xml version="1.0" encoding="utf-8" standalone="no"?>
<!DOCTYPE svg PUBLIC "-//W3C//DTD SVG 1.1//EN"
  "http://www.w3.org/Graphics/SVG/1.1/DTD/svg11.dtd">
<svg xmlns:xlink="http://www.w3.org/1999/xlink" width="321.895258pt" height="279.754375pt" viewBox="0 0 321.895258 279.754375" xmlns="http://www.w3.org/2000/svg" version="1.1">
 <metadata>
  <rdf:RDF xmlns:dc="http://purl.org/dc/elements/1.1/" xmlns:cc="http://creativecommons.org/ns#" xmlns:rdf="http://www.w3.org/1999/02/22-rdf-syntax-ns#">
   <cc:Work>
    <dc:type rdf:resource="http://purl.org/dc/dcmitype/StillImage"/>
    <dc:date>2025-09-17T15:28:14.408972</dc:date>
    <dc:format>image/svg+xml</dc:format>
    <dc:creator>
     <cc:Agent>
      <dc:title>Matplotlib v3.10.0, https://matplotlib.org/</dc:title>
     </cc:Agent>
    </dc:creator>
   </cc:Work>
  </rdf:RDF>
 </metadata>
 <defs>
  <style type="text/css">*{stroke-linejoin: round; stroke-linecap: butt}</style>
 </defs>
 <g id="figure_1">
  <g id="patch_1">
   <path d="M 0 279.754375 
L 321.895258 279.754375 
L 321.895258 0 
L 0 0 
z
" style="fill: #ffffff"/>
  </g>
  <g id="axes_1">
   <g id="patch_2">
    <path d="M 62.478125 117.976125 
L 273.435517 117.976125 
L 273.435517 22.318125 
L 62.478125 22.318125 
z
" style="fill: #ffffff"/>
   </g>
   <g id="FillBetweenPolyCollection_1">
    <path d="M 72.067097 126458.160265 
L 72.067097 126458.160265 
L 121.494045 126458.160265 
L 144.476268 126458.160265 
L 159.61427 126458.160265 
L 170.920994 126458.160265 
L 179.949238 126458.160265 
L 187.465059 126458.160265 
L 193.903216 126458.160265 
L 199.534349 126458.160265 
L 204.538429 126458.160265 
L 209.041218 126458.160265 
L 213.13407 126458.160265 
L 216.885438 126458.160265 
L 220.347942 126458.160265 
L 223.562905 126458.160265 
L 226.563373 126458.160265 
L 229.376186 126458.160265 
L 232.02344 126458.160265 
L 234.523547 126458.160265 
L 236.892007 126458.160265 
L 239.141993 126458.160265 
L 241.284796 126458.160265 
L 243.330164 126458.160265 
L 245.286574 126458.160265 
L 247.161443 126458.160265 
L 248.961297 126458.160265 
L 250.691908 126458.160265 
L 252.358408 126458.160265 
L 253.965377 126458.160265 
L 255.516922 126458.160265 
L 257.016739 126458.160265 
L 258.468166 126458.160265 
L 259.874229 126458.160265 
L 261.237677 126458.160265 
L 262.561018 126458.160265 
L 263.846544 126458.160265 
L 263.846544 126458.160265 
L 263.846544 126458.160265 
L 262.561018 126458.160265 
L 261.237677 126458.160265 
L 259.874229 126458.160265 
L 258.468166 126458.160265 
L 257.016739 126458.160265 
L 255.516922 126458.160265 
L 253.965377 126458.160265 
L 252.358408 126458.160265 
L 250.691908 126458.160265 
L 248.961297 126458.160265 
L 247.161443 126458.160265 
L 245.286574 126458.160265 
L 243.330164 126458.160265 
L 241.284796 126458.160265 
L 239.141993 126458.160265 
L 236.892007 126458.160265 
L 234.523547 126458.160265 
L 232.02344 126458.160265 
L 229.376186 126458.160265 
L 226.563373 126458.160265 
L 223.562905 126458.160265 
L 220.347942 126458.160265 
L 216.885438 126458.160265 
L 213.13407 126458.160265 
L 209.041218 126458.160265 
L 204.538429 126458.160265 
L 199.534349 126458.160265 
L 193.903216 126458.160265 
L 187.465059 126458.160265 
L 179.949238 126458.160265 
L 170.920994 126458.160265 
L 159.61427 126458.160265 
L 144.476268 126458.160265 
L 121.494045 126458.160265 
L 72.067097 126458.160265 
z
" clip-path="url(#p92cb288cf3)" style="fill: #1f77b4; fill-opacity: 0.3"/>
   </g>
   <g id="matplotlib.axis_1">
    <g id="xtick_1">
     <g id="line2d_1">
      <defs>
       <path id="m6646510cf5" d="M 0 0 
L 0 3.5 
" style="stroke: #000000; stroke-width: 0.8"/>
      </defs>
      <g>
       <use xlink:href="#m6646510cf5" x="126.234252" y="117.976125" style="stroke: #000000; stroke-width: 0.8"/>
      </g>
     </g>
     <g id="text_1">
      <!-- $\mathdefault{10^{2}}$ -->
      <g transform="translate(117.434252 132.574562)">
       <text>
        <tspan x="0" y="-0.976562" style="font-size: 10px; font-family: 'DejaVu Sans'">1</tspan>
        <tspan x="6.362305" y="-0.976562" style="font-size: 10px; font-family: 'DejaVu Sans'">0</tspan>
        <tspan x="12.820312" y="-4.804688" style="font-size: 7px; font-family: 'DejaVu Sans'">2</tspan>
       </text>
      </g>
     </g>
    </g>
    <g id="xtick_2">
     <g id="line2d_2">
      <g>
       <use xlink:href="#m6646510cf5" x="229.828354" y="117.976125" style="stroke: #000000; stroke-width: 0.8"/>
      </g>
     </g>
     <g id="text_2">
      <!-- $\mathdefault{10^{3}}$ -->
      <g transform="translate(221.028354 132.574562)">
       <text>
        <tspan x="0" y="-0.976562" style="font-size: 10px; font-family: 'DejaVu Sans'">1</tspan>
        <tspan x="6.362305" y="-0.976562" style="font-size: 10px; font-family: 'DejaVu Sans'">0</tspan>
        <tspan x="12.820312" y="-4.804688" style="font-size: 7px; font-family: 'DejaVu Sans'">3</tspan>
       </text>
      </g>
     </g>
    </g>
    <g id="xtick_3">
     <g id="line2d_3">
      <defs>
       <path id="m8fd9216490" d="M 0 0 
L 0 2 
" style="stroke: #000000; stroke-width: 0.6"/>
      </defs>
      <g>
       <use xlink:href="#m8fd9216490" x="72.067097" y="117.976125" style="stroke: #000000; stroke-width: 0.6"/>
      </g>
     </g>
    </g>
    <g id="xtick_4">
     <g id="line2d_4">
      <g>
       <use xlink:href="#m8fd9216490" x="85.010014" y="117.976125" style="stroke: #000000; stroke-width: 0.6"/>
      </g>
     </g>
    </g>
    <g id="xtick_5">
     <g id="line2d_5">
      <g>
       <use xlink:href="#m8fd9216490" x="95.049319" y="117.976125" style="stroke: #000000; stroke-width: 0.6"/>
      </g>
     </g>
    </g>
    <g id="xtick_6">
     <g id="line2d_6">
      <g>
       <use xlink:href="#m8fd9216490" x="103.25203" y="117.976125" style="stroke: #000000; stroke-width: 0.6"/>
      </g>
     </g>
    </g>
    <g id="xtick_7">
     <g id="line2d_7">
      <g>
       <use xlink:href="#m8fd9216490" x="110.187322" y="117.976125" style="stroke: #000000; stroke-width: 0.6"/>
      </g>
     </g>
    </g>
    <g id="xtick_8">
     <g id="line2d_8">
      <g>
       <use xlink:href="#m8fd9216490" x="116.194946" y="117.976125" style="stroke: #000000; stroke-width: 0.6"/>
      </g>
     </g>
    </g>
    <g id="xtick_9">
     <g id="line2d_9">
      <g>
       <use xlink:href="#m8fd9216490" x="121.494045" y="117.976125" style="stroke: #000000; stroke-width: 0.6"/>
      </g>
     </g>
    </g>
    <g id="xtick_10">
     <g id="line2d_10">
      <g>
       <use xlink:href="#m8fd9216490" x="157.419184" y="117.976125" style="stroke: #000000; stroke-width: 0.6"/>
      </g>
     </g>
    </g>
    <g id="xtick_11">
     <g id="line2d_11">
      <g>
       <use xlink:href="#m8fd9216490" x="175.6612" y="117.976125" style="stroke: #000000; stroke-width: 0.6"/>
      </g>
     </g>
    </g>
    <g id="xtick_12">
     <g id="line2d_12">
      <g>
       <use xlink:href="#m8fd9216490" x="188.604116" y="117.976125" style="stroke: #000000; stroke-width: 0.6"/>
      </g>
     </g>
    </g>
    <g id="xtick_13">
     <g id="line2d_13">
      <g>
       <use xlink:href="#m8fd9216490" x="198.643422" y="117.976125" style="stroke: #000000; stroke-width: 0.6"/>
      </g>
     </g>
    </g>
    <g id="xtick_14">
     <g id="line2d_14">
      <g>
       <use xlink:href="#m8fd9216490" x="206.846132" y="117.976125" style="stroke: #000000; stroke-width: 0.6"/>
      </g>
     </g>
    </g>
    <g id="xtick_15">
     <g id="line2d_15">
      <g>
       <use xlink:href="#m8fd9216490" x="213.781424" y="117.976125" style="stroke: #000000; stroke-width: 0.6"/>
      </g>
     </g>
    </g>
    <g id="xtick_16">
     <g id="line2d_16">
      <g>
       <use xlink:href="#m8fd9216490" x="219.789048" y="117.976125" style="stroke: #000000; stroke-width: 0.6"/>
      </g>
     </g>
    </g>
    <g id="xtick_17">
     <g id="line2d_17">
      <g>
       <use xlink:href="#m8fd9216490" x="225.088148" y="117.976125" style="stroke: #000000; stroke-width: 0.6"/>
      </g>
     </g>
    </g>
    <g id="xtick_18">
     <g id="line2d_18">
      <g>
       <use xlink:href="#m8fd9216490" x="261.013286" y="117.976125" style="stroke: #000000; stroke-width: 0.6"/>
      </g>
     </g>
    </g>
   </g>
   <g id="matplotlib.axis_2">
    <g id="ytick_1">
     <g id="line2d_19">
      <defs>
       <path id="m6d4ba7062b" d="M 0 0 
L -2 0 
" style="stroke: #000000; stroke-width: 0.6"/>
      </defs>
      <g>
       <use xlink:href="#m6d4ba7062b" x="62.478125" y="106.907451" style="stroke: #000000; stroke-width: 0.6"/>
      </g>
     </g>
     <g id="text_3">
      <!-- $\mathdefault{2\times10^{1}}$ -->
      <g transform="translate(20.878125 110.70667)">
       <text>
        <tspan x="0" y="-0.064063" style="font-size: 10px; font-family: 'DejaVu Sans'">2</tspan>
        <tspan x="8.310547" y="-0.064063" style="font-size: 10px; font-family: 'DejaVu Sans'">×</tspan>
        <tspan x="18.637695" y="-0.064063" style="font-size: 10px; font-family: 'DejaVu Sans'">1</tspan>
        <tspan x="25" y="-0.064063" style="font-size: 10px; font-family: 'DejaVu Sans'">0</tspan>
        <tspan x="31.458008" y="-3.892188" style="font-size: 7px; font-family: 'DejaVu Sans'">1</tspan>
       </text>
      </g>
     </g>
    </g>
    <g id="ytick_2">
     <g id="line2d_20">
      <g>
       <use xlink:href="#m6d4ba7062b" x="62.478125" y="84.68701" style="stroke: #000000; stroke-width: 0.6"/>
      </g>
     </g>
     <g id="text_4">
      <!-- $\mathdefault{3\times10^{1}}$ -->
      <g transform="translate(20.878125 88.486228)">
       <text>
        <tspan x="0" y="-0.064063" style="font-size: 10px; font-family: 'DejaVu Sans'">3</tspan>
        <tspan x="8.310547" y="-0.064063" style="font-size: 10px; font-family: 'DejaVu Sans'">×</tspan>
        <tspan x="18.637695" y="-0.064063" style="font-size: 10px; font-family: 'DejaVu Sans'">1</tspan>
        <tspan x="25" y="-0.064063" style="font-size: 10px; font-family: 'DejaVu Sans'">0</tspan>
        <tspan x="31.458008" y="-3.892188" style="font-size: 7px; font-family: 'DejaVu Sans'">1</tspan>
       </text>
      </g>
     </g>
    </g>
    <g id="ytick_3">
     <g id="line2d_21">
      <g>
       <use xlink:href="#m6d4ba7062b" x="62.478125" y="68.921355" style="stroke: #000000; stroke-width: 0.6"/>
      </g>
     </g>
     <g id="text_5">
      <!-- $\mathdefault{4\times10^{1}}$ -->
      <g transform="translate(20.878125 72.720574)">
       <text>
        <tspan x="0" y="-0.064063" style="font-size: 10px; font-family: 'DejaVu Sans'">4</tspan>
        <tspan x="8.310547" y="-0.064063" style="font-size: 10px; font-family: 'DejaVu Sans'">×</tspan>
        <tspan x="18.637695" y="-0.064063" style="font-size: 10px; font-family: 'DejaVu Sans'">1</tspan>
        <tspan x="25" y="-0.064063" style="font-size: 10px; font-family: 'DejaVu Sans'">0</tspan>
        <tspan x="31.458008" y="-3.892188" style="font-size: 7px; font-family: 'DejaVu Sans'">1</tspan>
       </text>
      </g>
     </g>
    </g>
    <g id="ytick_4">
     <g id="line2d_22">
      <g>
       <use xlink:href="#m6d4ba7062b" x="62.478125" y="56.692564" style="stroke: #000000; stroke-width: 0.6"/>
      </g>
     </g>
    </g>
    <g id="ytick_5">
     <g id="line2d_23">
      <g>
       <use xlink:href="#m6d4ba7062b" x="62.478125" y="46.700914" style="stroke: #000000; stroke-width: 0.6"/>
      </g>
     </g>
     <g id="text_6">
      <!-- $\mathdefault{6\times10^{1}}$ -->
      <g transform="translate(20.878125 50.500132)">
       <text>
        <tspan x="0" y="-0.064063" style="font-size: 10px; font-family: 'DejaVu Sans'">6</tspan>
        <tspan x="8.310547" y="-0.064063" style="font-size: 10px; font-family: 'DejaVu Sans'">×</tspan>
        <tspan x="18.637695" y="-0.064063" style="font-size: 10px; font-family: 'DejaVu Sans'">1</tspan>
        <tspan x="25" y="-0.064063" style="font-size: 10px; font-family: 'DejaVu Sans'">0</tspan>
        <tspan x="31.458008" y="-3.892188" style="font-size: 7px; font-family: 'DejaVu Sans'">1</tspan>
       </text>
      </g>
     </g>
    </g>
    <g id="ytick_6">
     <g id="line2d_24">
      <g>
       <use xlink:href="#m6d4ba7062b" x="62.478125" y="38.253094" style="stroke: #000000; stroke-width: 0.6"/>
      </g>
     </g>
    </g>
    <g id="ytick_7">
     <g id="line2d_25">
      <g>
       <use xlink:href="#m6d4ba7062b" x="62.478125" y="30.935259" style="stroke: #000000; stroke-width: 0.6"/>
      </g>
     </g>
    </g>
    <g id="ytick_8">
     <g id="line2d_26">
      <g>
       <use xlink:href="#m6d4ba7062b" x="62.478125" y="24.480472" style="stroke: #000000; stroke-width: 0.6"/>
      </g>
     </g>
    </g>
    <g id="text_7">
     <text style="font-size: 10px; font-family: 'DejaVu Sans', 'Bitstream Vera Sans', 'Computer Modern Sans Serif', 'Lucida Grande', 'Verdana', 'Geneva', 'Lucid', 'Arial', 'Helvetica', 'Avant Garde', sans-serif; text-anchor: middle" x="14.798438" y="70.147125" transform="rotate(-90 14.798438 70.147125)">Reward</text>
    </g>
   </g>
   <g id="line2d_27">
    <path d="M 72.067097 26.666216 
L 121.494045 28.178883 
L 144.476268 26.984451 
L 159.61427 29.323485 
L 170.920994 32.884711 
L 179.949238 34.018295 
L 187.465059 36.601697 
L 193.903216 40.032341 
L 199.534349 42.268036 
L 204.538429 46.025329 
L 209.041218 48.436349 
L 213.13407 50.91512 
L 216.885438 52.975604 
L 220.347942 55.331447 
L 223.562905 60.165867 
L 226.563373 62.561882 
L 229.376186 63.663352 
L 232.02344 68.551071 
L 234.523547 70.159713 
L 236.892007 75.073245 
L 239.141993 75.633076 
L 241.284796 79.106768 
L 243.330164 79.272352 
L 245.286574 83.24856 
L 247.161443 87.671027 
L 248.961297 89.876463 
L 250.691908 91.018338 
L 252.358408 93.574584 
L 253.965377 97.608732 
L 255.516922 97.426916 
L 257.016739 104.875669 
L 258.468166 106.007264 
L 259.874229 106.988414 
L 261.237677 110.545691 
L 262.561018 112.667378 
L 263.846544 113.628034 
" clip-path="url(#p92cb288cf3)" style="fill: none; stroke: #1f77b4; stroke-width: 1.5; stroke-linecap: square"/>
   </g>
   <g id="patch_3">
    <path d="M 62.478125 117.976125 
L 62.478125 22.318125 
" style="fill: none; stroke: #000000; stroke-width: 0.8; stroke-linejoin: miter; stroke-linecap: square"/>
   </g>
   <g id="patch_4">
    <path d="M 273.435517 117.976125 
L 273.435517 22.318125 
" style="fill: none; stroke: #000000; stroke-width: 0.8; stroke-linejoin: miter; stroke-linecap: square"/>
   </g>
   <g id="patch_5">
    <path d="M 62.478125 117.976125 
L 273.435517 117.976125 
" style="fill: none; stroke: #000000; stroke-width: 0.8; stroke-linejoin: miter; stroke-linecap: square"/>
   </g>
   <g id="patch_6">
    <path d="M 62.478125 22.318125 
L 273.435517 22.318125 
" style="fill: none; stroke: #000000; stroke-width: 0.8; stroke-linejoin: miter; stroke-linecap: square"/>
   </g>
   <g id="text_8">
    <text style="font-size: 12px; font-family: 'DejaVu Sans', 'Bitstream Vera Sans', 'Computer Modern Sans Serif', 'Lucida Grande', 'Verdana', 'Geneva', 'Lucid', 'Arial', 'Helvetica', 'Avant Garde', sans-serif; text-anchor: middle" x="167.956821" y="16.318125" transform="rotate(-0 167.956821 16.318125)">Learning performance (average of multiple runs)</text>
   </g>
  </g>
  <g id="axes_2">
   <g id="patch_7">
    <path d="M 62.478125 242.198125 
L 273.435517 242.198125 
L 273.435517 146.540125 
L 62.478125 146.540125 
z
" style="fill: #ffffff"/>
   </g>
   <g id="FillBetweenPolyCollection_2">
    <path d="M 72.067097 150.558674 
L 72.067097 178.427544 
L 77.54651 179.314096 
L 83.025923 178.064244 
L 88.505336 182.783603 
L 93.984748 189.069721 
L 99.464161 187.565037 
L 104.943574 191.812857 
L 110.422987 195.719068 
L 115.902399 197.623014 
L 121.381812 201.290634 
L 126.861225 205.897114 
L 132.340638 207.324579 
L 137.820051 208.419469 
L 143.299463 210.200769 
L 148.778876 213.082446 
L 154.258289 213.80507 
L 159.737702 214.864736 
L 165.217114 218.47121 
L 170.696527 219.757083 
L 176.17594 219.834816 
L 181.655353 221.96352 
L 187.134765 223.562742 
L 192.614178 224.157621 
L 198.093591 223.090681 
L 203.573004 225.002014 
L 209.052417 226.997874 
L 214.531829 226.635119 
L 220.011242 227.359838 
L 225.490655 228.493713 
L 230.970068 229.158405 
L 236.44948 229.694968 
L 241.928893 229.313526 
L 247.408306 229.418101 
L 252.887719 229.690477 
L 258.367131 230.339721 
L 263.846544 230.929649 
L 263.846544 221.673777 
L 263.846544 221.673777 
L 258.367131 221.70148 
L 252.887719 221.073526 
L 247.408306 219.090386 
L 241.928893 218.546661 
L 236.44948 217.402956 
L 230.970068 212.509233 
L 225.490655 213.315449 
L 220.011242 211.196105 
L 214.531829 209.731957 
L 209.052417 208.357956 
L 203.573004 208.340012 
L 198.093591 205.960543 
L 192.614178 200.728757 
L 187.134765 201.143556 
L 181.655353 198.836798 
L 176.17594 200.312511 
L 170.696527 194.363605 
L 165.217114 193.556069 
L 159.737702 190.411508 
L 154.258289 189.864857 
L 148.778876 186.97975 
L 143.299463 182.083844 
L 137.820051 179.819108 
L 132.340638 177.229791 
L 126.861225 174.037609 
L 121.381812 173.945727 
L 115.902399 169.866736 
L 110.422987 166.902791 
L 104.943574 162.942226 
L 99.464161 160.932381 
L 93.984748 156.587362 
L 88.505336 153.558396 
L 83.025923 151.821817 
L 77.54651 153.903124 
L 72.067097 150.558674 
z
" clip-path="url(#p485313ecd5)" style="fill: #1f77b4; fill-opacity: 0.3"/>
   </g>
   <g id="matplotlib.axis_3">
    <g id="xtick_19">
     <g id="line2d_28">
      <g>
       <use xlink:href="#m6646510cf5" x="69.327391" y="242.198125" style="stroke: #000000; stroke-width: 0.8"/>
      </g>
     </g>
     <g id="text_9">
      <text style="font-size: 10px; font-family: 'DejaVu Sans', 'Bitstream Vera Sans', 'Computer Modern Sans Serif', 'Lucida Grande', 'Verdana', 'Geneva', 'Lucid', 'Arial', 'Helvetica', 'Avant Garde', sans-serif; text-anchor: middle" x="69.327391" y="256.796562" transform="rotate(-0 69.327391 256.796562)">0</text>
     </g>
    </g>
    <g id="xtick_20">
     <g id="line2d_29">
      <g>
       <use xlink:href="#m6646510cf5" x="114.989164" y="242.198125" style="stroke: #000000; stroke-width: 0.8"/>
      </g>
     </g>
     <g id="text_10">
      <text style="font-size: 10px; font-family: 'DejaVu Sans', 'Bitstream Vera Sans', 'Computer Modern Sans Serif', 'Lucida Grande', 'Verdana', 'Geneva', 'Lucid', 'Arial', 'Helvetica', 'Avant Garde', sans-serif; text-anchor: middle" x="114.989164" y="256.796562" transform="rotate(-0 114.989164 256.796562)">500</text>
     </g>
    </g>
    <g id="xtick_21">
     <g id="line2d_30">
      <g>
       <use xlink:href="#m6646510cf5" x="160.650937" y="242.198125" style="stroke: #000000; stroke-width: 0.8"/>
      </g>
     </g>
     <g id="text_11">
      <text style="font-size: 10px; font-family: 'DejaVu Sans', 'Bitstream Vera Sans', 'Computer Modern Sans Serif', 'Lucida Grande', 'Verdana', 'Geneva', 'Lucid', 'Arial', 'Helvetica', 'Avant Garde', sans-serif; text-anchor: middle" x="160.650937" y="256.796562" transform="rotate(-0 160.650937 256.796562)">1000</text>
     </g>
    </g>
    <g id="xtick_22">
     <g id="line2d_31">
      <g>
       <use xlink:href="#m6646510cf5" x="206.31271" y="242.198125" style="stroke: #000000; stroke-width: 0.8"/>
      </g>
     </g>
     <g id="text_12">
      <text style="font-size: 10px; font-family: 'DejaVu Sans', 'Bitstream Vera Sans', 'Computer Modern Sans Serif', 'Lucida Grande', 'Verdana', 'Geneva', 'Lucid', 'Arial', 'Helvetica', 'Avant Garde', sans-serif; text-anchor: middle" x="206.31271" y="256.796562" transform="rotate(-0 206.31271 256.796562)">1500</text>
     </g>
    </g>
    <g id="xtick_23">
     <g id="line2d_32">
      <g>
       <use xlink:href="#m6646510cf5" x="251.974483" y="242.198125" style="stroke: #000000; stroke-width: 0.8"/>
      </g>
     </g>
     <g id="text_13">
      <text style="font-size: 10px; font-family: 'DejaVu Sans', 'Bitstream Vera Sans', 'Computer Modern Sans Serif', 'Lucida Grande', 'Verdana', 'Geneva', 'Lucid', 'Arial', 'Helvetica', 'Avant Garde', sans-serif; text-anchor: middle" x="251.974483" y="256.796562" transform="rotate(-0 251.974483 256.796562)">2000</text>
     </g>
    </g>
    <g id="text_14">
     <text style="font-size: 10px; font-family: 'DejaVu Sans', 'Bitstream Vera Sans', 'Computer Modern Sans Serif', 'Lucida Grande', 'Verdana', 'Geneva', 'Lucid', 'Arial', 'Helvetica', 'Avant Garde', sans-serif; text-anchor: middle" x="167.956821" y="270.474687" transform="rotate(-0 167.956821 270.474687)">Trial</text>
    </g>
   </g>
   <g id="matplotlib.axis_4">
    <g id="ytick_9">
     <g id="line2d_33">
      <defs>
       <path id="m34c8f73237" d="M 0 0 
L -3.5 0 
" style="stroke: #000000; stroke-width: 0.8"/>
      </defs>
      <g>
       <use xlink:href="#m34c8f73237" x="62.478125" y="242.198125" style="stroke: #000000; stroke-width: 0.8"/>
      </g>
     </g>
     <g id="text_15">
      <text style="font-size: 10px; font-family: 'DejaVu Sans', 'Bitstream Vera Sans', 'Computer Modern Sans Serif', 'Lucida Grande', 'Verdana', 'Geneva', 'Lucid', 'Arial', 'Helvetica', 'Avant Garde', sans-serif; text-anchor: end" x="55.478125" y="245.997344" transform="rotate(-0 55.478125 245.997344)">0</text>
     </g>
    </g>
    <g id="ytick_10">
     <g id="line2d_34">
      <g>
       <use xlink:href="#m34c8f73237" x="62.478125" y="215.242509" style="stroke: #000000; stroke-width: 0.8"/>
      </g>
     </g>
     <g id="text_16">
      <text style="font-size: 10px; font-family: 'DejaVu Sans', 'Bitstream Vera Sans', 'Computer Modern Sans Serif', 'Lucida Grande', 'Verdana', 'Geneva', 'Lucid', 'Arial', 'Helvetica', 'Avant Garde', sans-serif; text-anchor: end" x="55.478125" y="219.041728" transform="rotate(-0 55.478125 219.041728)">30</text>
     </g>
    </g>
    <g id="ytick_11">
     <g id="line2d_35">
      <g>
       <use xlink:href="#m34c8f73237" x="62.478125" y="188.286893" style="stroke: #000000; stroke-width: 0.8"/>
      </g>
     </g>
     <g id="text_17">
      <text style="font-size: 10px; font-family: 'DejaVu Sans', 'Bitstream Vera Sans', 'Computer Modern Sans Serif', 'Lucida Grande', 'Verdana', 'Geneva', 'Lucid', 'Arial', 'Helvetica', 'Avant Garde', sans-serif; text-anchor: end" x="55.478125" y="192.086112" transform="rotate(-0 55.478125 192.086112)">60</text>
     </g>
    </g>
    <g id="ytick_12">
     <g id="line2d_36">
      <g>
       <use xlink:href="#m34c8f73237" x="62.478125" y="161.331277" style="stroke: #000000; stroke-width: 0.8"/>
      </g>
     </g>
     <g id="text_18">
      <text style="font-size: 10px; font-family: 'DejaVu Sans', 'Bitstream Vera Sans', 'Computer Modern Sans Serif', 'Lucida Grande', 'Verdana', 'Geneva', 'Lucid', 'Arial', 'Helvetica', 'Avant Garde', sans-serif; text-anchor: end" x="55.478125" y="165.130496" transform="rotate(-0 55.478125 165.130496)">90</text>
     </g>
    </g>
    <g id="text_19">
     <text style="font-size: 10px; font-family: 'DejaVu Sans', 'Bitstream Vera Sans', 'Computer Modern Sans Serif', 'Lucida Grande', 'Verdana', 'Geneva', 'Lucid', 'Arial', 'Helvetica', 'Avant Garde', sans-serif; text-anchor: middle" x="36.673438" y="194.369125" transform="rotate(-90 36.673438 194.369125)">Directional Error (deg)</text>
    </g>
   </g>
   <g id="line2d_37">
    <path d="M 72.067097 164.493109 
L 77.54651 166.60861 
L 83.025923 164.943031 
L 88.505336 168.170999 
L 93.984748 172.828541 
L 99.464161 174.248709 
L 104.943574 177.377542 
L 110.422987 181.310929 
L 115.902399 183.744875 
L 121.381812 187.61818 
L 126.861225 189.967362 
L 132.340638 192.277185 
L 137.820051 194.119288 
L 143.299463 196.142307 
L 148.778876 200.031098 
L 154.258289 201.834963 
L 159.737702 202.638122 
L 165.217114 206.013639 
L 170.696527 207.060344 
L 176.17594 210.073663 
L 181.655353 210.400159 
L 187.134765 212.353149 
L 192.614178 212.443189 
L 198.093591 214.525612 
L 203.573004 216.671013 
L 209.052417 217.677915 
L 214.531829 218.183538 
L 220.011242 219.277971 
L 225.490655 220.904581 
L 230.970068 220.833819 
L 236.44948 223.548962 
L 241.928893 223.930094 
L 247.408306 224.254243 
L 252.887719 225.382001 
L 258.367131 226.0206 
L 263.846544 226.301713 
" clip-path="url(#p485313ecd5)" style="fill: none; stroke: #1f77b4; stroke-width: 1.5; stroke-linecap: square"/>
   </g>
   <g id="patch_8">
    <path d="M 62.478125 242.198125 
L 62.478125 146.540125 
" style="fill: none; stroke: #000000; stroke-width: 0.8; stroke-linejoin: miter; stroke-linecap: square"/>
   </g>
   <g id="patch_9">
    <path d="M 273.435517 242.198125 
L 273.435517 146.540125 
" style="fill: none; stroke: #000000; stroke-width: 0.8; stroke-linejoin: miter; stroke-linecap: square"/>
   </g>
   <g id="patch_10">
    <path d="M 62.478125 242.198125 
L 273.435517 242.198125 
" style="fill: none; stroke: #000000; stroke-width: 0.8; stroke-linejoin: miter; stroke-linecap: square"/>
   </g>
   <g id="patch_11">
    <path d="M 62.478125 146.540125 
L 273.435517 146.540125 
" style="fill: none; stroke: #000000; stroke-width: 0.8; stroke-linejoin: miter; stroke-linecap: square"/>
   </g>
  </g>
 </g>
 <defs>
  <clipPath id="p92cb288cf3">
   <rect x="62.478125" y="22.318125" width="210.957392" height="95.658"/>
  </clipPath>
  <clipPath id="p485313ecd5">
   <rect x="62.478125" y="146.540125" width="210.957392" height="95.658"/>
  </clipPath>
 </defs>
</svg>
