<?xml version="1.0" encoding="utf-8" standalone="no"?>
<!DOCTYPE svg PUBLIC "-//W3C//DTD SVG 1.1//EN"
  "http://www.w3.org/Graphics/SVG/1.1/DTD/svg11.dtd">
<svg xmlns:xlink="http://www.w3.org/1999/xlink" width="193.44pt" height="208.558125pt" viewBox="0 0 193.44 208.558125" xmlns="http://www.w3.org/2000/svg" version="1.1">
 <metadata>
  <rdf:RDF xmlns:dc="http://purl.org/dc/elements/1.1/" xmlns:cc="http://creativecommons.org/ns#" xmlns:rdf="http://www.w3.org/1999/02/22-rdf-syntax-ns#">
   <cc:Work>
    <dc:type rdf:resource="http://purl.org/dc/dcmitype/StillImage"/>
    <dc:date>2025-09-17T14:19:42.713449</dc:date>
    <dc:format>image/svg+xml</dc:format>
    <dc:creator>
     <cc:Agent>
      <dc:title>Matplotlib v3.10.0, https://matplotlib.org/</dc:title>
     </cc:Agent>
    </dc:creator>
   </cc:Work>
  </rdf:RDF>
 </metadata>
 <defs>
  <style type="text/css">*{stroke-linejoin: round; stroke-linecap: butt}</style>
 </defs>
 <g id="figure_1">
  <g id="patch_1">
   <path d="M 0 208.558125 
L 193.44 208.558125 
L 193.44 0 
L 0 0 
z
" style="fill: #ffffff"/>
  </g>
  <g id="axes_1">
   <g id="line2d_1">
    <defs>
     <path id="m1c6126f087" d="M 0 2 
C 0.530406 2 1.03916 1.789267 1.414214 1.414214 
C 1.789267 1.03916 2 0.530406 2 0 
C 2 -0.530406 1.789267 -1.03916 1.414214 -1.414214 
C 1.03916 -1.789267 0.530406 -2 0 -2 
C -0.530406 -2 -1.03916 -1.789267 -1.414214 -1.414214 
C -1.789267 -1.03916 -2 -0.530406 -2 0 
C -2 0.530406 -1.789267 1.03916 -1.414214 1.414214 
C -1.03916 1.789267 -0.530406 2 0 2 
z
" style="stroke: #000000"/>
    </defs>
    <g clip-path="url(#p8dab4ad58a)">
     <use xlink:href="#m1c6126f087" x="96.72" y="111.838125" style="stroke: #000000"/>
    </g>
   </g>
   <g id="line2d_2">
    <defs>
     <path id="mfb93e64b54" d="M 0 7.5 
C 1.989023 7.5 3.896849 6.709753 5.303301 5.303301 
C 6.709753 3.896849 7.5 1.989023 7.5 0 
C 7.5 -1.989023 6.709753 -3.896849 5.303301 -5.303301 
C 3.896849 -6.709753 1.989023 -7.5 0 -7.5 
C -1.989023 -7.5 -3.896849 -6.709753 -5.303301 -5.303301 
C -6.709753 -3.896849 -7.5 -1.989023 -7.5 0 
C -7.5 1.989023 -6.709753 3.896849 -5.303301 5.303301 
C -3.896849 6.709753 -1.989023 7.5 0 7.5 
z
" style="stroke: #ff0000"/>
    </defs>
    <g clip-path="url(#p8dab4ad58a)">
     <use xlink:href="#mfb93e64b54" x="150.432" y="111.838125" style="fill: #ff0000; stroke: #ff0000"/>
    </g>
   </g>
   <g id="line2d_3">
    <defs>
     <path id="m7194e859d0" d="M 0 2 
C 0.530406 2 1.03916 1.789267 1.414214 1.414214 
C 1.789267 1.03916 2 0.530406 2 0 
C 2 -0.530406 1.789267 -1.03916 1.414214 -1.414214 
C 1.03916 -1.789267 0.530406 -2 0 -2 
C -0.530406 -2 -1.03916 -1.789267 -1.414214 -1.414214 
C -1.789267 -1.03916 -2 -0.530406 -2 0 
C -2 0.530406 -1.789267 1.03916 -1.414214 1.414214 
C -1.03916 1.789267 -0.530406 2 0 2 
z
" style="stroke: #ff0000"/>
    </defs>
    <g clip-path="url(#p8dab4ad58a)">
     <use xlink:href="#m7194e859d0" x="128.208804" y="129.439657" style="fill: #ff0000; stroke: #ff0000"/>
    </g>
   </g>
   <g id="line2d_4">
    <g clip-path="url(#p8dab4ad58a)">
     <use xlink:href="#m7194e859d0" x="126.033623" y="113.532021" style="fill: #ff0000; stroke: #ff0000"/>
    </g>
   </g>
   <g id="line2d_5">
    <g clip-path="url(#p8dab4ad58a)">
     <use xlink:href="#m7194e859d0" x="126.803856" y="109.676805" style="fill: #ff0000; stroke: #ff0000"/>
    </g>
   </g>
   <g id="line2d_6">
    <g clip-path="url(#p8dab4ad58a)">
     <use xlink:href="#m7194e859d0" x="119.089372" y="115.995421" style="fill: #ff0000; stroke: #ff0000"/>
    </g>
   </g>
   <g id="line2d_7">
    <g clip-path="url(#p8dab4ad58a)">
     <use xlink:href="#m7194e859d0" x="121.16596" y="111.633023" style="fill: #ff0000; stroke: #ff0000"/>
    </g>
   </g>
   <g id="line2d_8">
    <g clip-path="url(#p8dab4ad58a)">
     <use xlink:href="#m7194e859d0" x="120.866528" y="114.159586" style="fill: #ff0000; stroke: #ff0000"/>
    </g>
   </g>
   <g id="line2d_9">
    <g clip-path="url(#p8dab4ad58a)">
     <use xlink:href="#m7194e859d0" x="140.099561" y="118.088924" style="fill: #ff0000; stroke: #ff0000"/>
    </g>
   </g>
   <g id="line2d_10">
    <g clip-path="url(#p8dab4ad58a)">
     <use xlink:href="#m7194e859d0" x="151.454916" y="105.281721" style="fill: #ff0000; stroke: #ff0000"/>
    </g>
   </g>
   <g id="line2d_11">
    <g clip-path="url(#p8dab4ad58a)">
     <use xlink:href="#m7194e859d0" x="126.020325" y="129.924823" style="fill: #ff0000; stroke: #ff0000"/>
    </g>
   </g>
   <g id="line2d_12">
    <g clip-path="url(#p8dab4ad58a)">
     <use xlink:href="#m7194e859d0" x="139.727295" y="106.445822" style="fill: #ff0000; stroke: #ff0000"/>
    </g>
   </g>
   <g id="line2d_13">
    <defs>
     <path id="ma83aa4cd02" d="M 0 7.5 
C 1.989023 7.5 3.896849 6.709753 5.303301 5.303301 
C 6.709753 3.896849 7.5 1.989023 7.5 0 
C 7.5 -1.989023 6.709753 -3.896849 5.303301 -5.303301 
C 3.896849 -6.709753 1.989023 -7.5 0 -7.5 
C -1.989023 -7.5 -3.896849 -6.709753 -5.303301 -5.303301 
C -6.709753 -3.896849 -7.5 -1.989023 -7.5 0 
C -7.5 1.989023 -6.709753 3.896849 -5.303301 5.303301 
C -3.896849 6.709753 -1.989023 7.5 0 7.5 
z
" style="stroke: #ffbd00"/>
    </defs>
    <g clip-path="url(#p8dab4ad58a)">
     <use xlink:href="#ma83aa4cd02" x="134.700119" y="73.858006" style="fill: #ffbd00; stroke: #ffbd00"/>
    </g>
   </g>
   <g id="line2d_14">
    <defs>
     <path id="m32210249cd" d="M 0 2 
C 0.530406 2 1.03916 1.789267 1.414214 1.414214 
C 1.789267 1.03916 2 0.530406 2 0 
C 2 -0.530406 1.789267 -1.03916 1.414214 -1.414214 
C 1.03916 -1.789267 0.530406 -2 0 -2 
C -0.530406 -2 -1.03916 -1.789267 -1.414214 -1.414214 
C -1.789267 -1.03916 -2 -0.530406 -2 0 
C -2 0.530406 -1.789267 1.03916 -1.414214 1.414214 
C -1.03916 1.789267 -0.530406 2 0 2 
z
" style="stroke: #ffbd00"/>
    </defs>
    <g clip-path="url(#p8dab4ad58a)">
     <use xlink:href="#m32210249cd" x="114.679345" y="95.579873" style="fill: #ffbd00; stroke: #ffbd00"/>
    </g>
   </g>
   <g id="line2d_15">
    <g clip-path="url(#p8dab4ad58a)">
     <use xlink:href="#m32210249cd" x="117.791447" y="80.831389" style="fill: #ffbd00; stroke: #ffbd00"/>
    </g>
   </g>
   <g id="line2d_16">
    <g clip-path="url(#p8dab4ad58a)">
     <use xlink:href="#m32210249cd" x="129.742412" y="87.969119" style="fill: #ffbd00; stroke: #ffbd00"/>
    </g>
   </g>
   <g id="line2d_17">
    <g clip-path="url(#p8dab4ad58a)">
     <use xlink:href="#m32210249cd" x="129.759174" y="77.566645" style="fill: #ffbd00; stroke: #ffbd00"/>
    </g>
   </g>
   <g id="line2d_18">
    <g clip-path="url(#p8dab4ad58a)">
     <use xlink:href="#m32210249cd" x="120.206992" y="83.668597" style="fill: #ffbd00; stroke: #ffbd00"/>
    </g>
   </g>
   <g id="line2d_19">
    <g clip-path="url(#p8dab4ad58a)">
     <use xlink:href="#m32210249cd" x="104.471743" y="84.061352" style="fill: #ffbd00; stroke: #ffbd00"/>
    </g>
   </g>
   <g id="line2d_20">
    <g clip-path="url(#p8dab4ad58a)">
     <use xlink:href="#m32210249cd" x="94.621305" y="95.869521" style="fill: #ffbd00; stroke: #ffbd00"/>
    </g>
   </g>
   <g id="line2d_21">
    <g clip-path="url(#p8dab4ad58a)">
     <use xlink:href="#m32210249cd" x="104.833213" y="97.536761" style="fill: #ffbd00; stroke: #ffbd00"/>
    </g>
   </g>
   <g id="line2d_22">
    <g clip-path="url(#p8dab4ad58a)">
     <use xlink:href="#m32210249cd" x="114.984702" y="89.218575" style="fill: #ffbd00; stroke: #ffbd00"/>
    </g>
   </g>
   <g id="line2d_23">
    <g clip-path="url(#p8dab4ad58a)">
     <use xlink:href="#m32210249cd" x="92.156251" y="101.381436" style="fill: #ffbd00; stroke: #ffbd00"/>
    </g>
   </g>
   <g id="line2d_24">
    <defs>
     <path id="mfc93c1a26c" d="M 0 7.5 
C 1.989023 7.5 3.896849 6.709753 5.303301 5.303301 
C 6.709753 3.896849 7.5 1.989023 7.5 0 
C 7.5 -1.989023 6.709753 -3.896849 5.303301 -5.303301 
C 3.896849 -6.709753 1.989023 -7.5 0 -7.5 
C -1.989023 -7.5 -3.896849 -6.709753 -5.303301 -5.303301 
C -6.709753 -3.896849 -7.5 -1.989023 -7.5 0 
C -7.5 1.989023 -6.709753 3.896849 -5.303301 5.303301 
C -3.896849 6.709753 -1.989023 7.5 0 7.5 
z
" style="stroke: #84ff00"/>
    </defs>
    <g clip-path="url(#p8dab4ad58a)">
     <use xlink:href="#mfc93c1a26c" x="96.72" y="58.126125" style="fill: #84ff00; stroke: #84ff00"/>
    </g>
   </g>
   <g id="line2d_25">
    <defs>
     <path id="m54f11dde0e" d="M 0 2 
C 0.530406 2 1.03916 1.789267 1.414214 1.414214 
C 1.789267 1.03916 2 0.530406 2 0 
C 2 -0.530406 1.789267 -1.03916 1.414214 -1.414214 
C 1.03916 -1.789267 0.530406 -2 0 -2 
C -0.530406 -2 -1.03916 -1.789267 -1.414214 -1.414214 
C -1.789267 -1.03916 -2 -0.530406 -2 0 
C -2 0.530406 -1.789267 1.03916 -1.414214 1.414214 
C -1.03916 1.789267 -0.530406 2 0 2 
z
" style="stroke: #84ff00"/>
    </defs>
    <g clip-path="url(#p8dab4ad58a)">
     <use xlink:href="#m54f11dde0e" x="72.769724" y="67.047274" style="fill: #84ff00; stroke: #84ff00"/>
    </g>
   </g>
   <g id="line2d_26">
    <g clip-path="url(#p8dab4ad58a)">
     <use xlink:href="#m54f11dde0e" x="91.02363" y="75.315159" style="fill: #84ff00; stroke: #84ff00"/>
    </g>
   </g>
   <g id="line2d_27">
    <g clip-path="url(#p8dab4ad58a)">
     <use xlink:href="#m54f11dde0e" x="88.982412" y="90.510373" style="fill: #84ff00; stroke: #84ff00"/>
    </g>
   </g>
   <g id="line2d_28">
    <g clip-path="url(#p8dab4ad58a)">
     <use xlink:href="#m54f11dde0e" x="75.045846" y="82.773867" style="fill: #84ff00; stroke: #84ff00"/>
    </g>
   </g>
   <g id="line2d_29">
    <g clip-path="url(#p8dab4ad58a)">
     <use xlink:href="#m54f11dde0e" x="77.712135" y="86.640792" style="fill: #84ff00; stroke: #84ff00"/>
    </g>
   </g>
   <g id="line2d_30">
    <g clip-path="url(#p8dab4ad58a)">
     <use xlink:href="#m54f11dde0e" x="86.033529" y="101.427726" style="fill: #84ff00; stroke: #84ff00"/>
    </g>
   </g>
   <g id="line2d_31">
    <g clip-path="url(#p8dab4ad58a)">
     <use xlink:href="#m54f11dde0e" x="96.309052" y="84.629462" style="fill: #84ff00; stroke: #84ff00"/>
    </g>
   </g>
   <g id="line2d_32">
    <g clip-path="url(#p8dab4ad58a)">
     <use xlink:href="#m54f11dde0e" x="82.030545" y="102.99731" style="fill: #84ff00; stroke: #84ff00"/>
    </g>
   </g>
   <g id="line2d_33">
    <g clip-path="url(#p8dab4ad58a)">
     <use xlink:href="#m54f11dde0e" x="90.214187" y="92.995499" style="fill: #84ff00; stroke: #84ff00"/>
    </g>
   </g>
   <g id="line2d_34">
    <g clip-path="url(#p8dab4ad58a)">
     <use xlink:href="#m54f11dde0e" x="80.620895" y="74.428317" style="fill: #84ff00; stroke: #84ff00"/>
    </g>
   </g>
   <g id="line2d_35">
    <defs>
     <path id="ma42220eb47" d="M 0 7.5 
C 1.989023 7.5 3.896849 6.709753 5.303301 5.303301 
C 6.709753 3.896849 7.5 1.989023 7.5 0 
C 7.5 -1.989023 6.709753 -3.896849 5.303301 -5.303301 
C 3.896849 -6.709753 1.989023 -7.5 0 -7.5 
C -1.989023 -7.5 -3.896849 -6.709753 -5.303301 -5.303301 
C -6.709753 -3.896849 -7.5 -1.989023 -7.5 0 
C -7.5 1.989023 -6.709753 3.896849 -5.303301 5.303301 
C -3.896849 6.709753 -1.989023 7.5 0 7.5 
z
" style="stroke: #00ff39"/>
    </defs>
    <g clip-path="url(#p8dab4ad58a)">
     <use xlink:href="#ma42220eb47" x="58.739881" y="73.858006" style="fill: #00ff39; stroke: #00ff39"/>
    </g>
   </g>
   <g id="line2d_36">
    <defs>
     <path id="m7b54fb9512" d="M 0 2 
C 0.530406 2 1.03916 1.789267 1.414214 1.414214 
C 1.789267 1.03916 2 0.530406 2 0 
C 2 -0.530406 1.789267 -1.03916 1.414214 -1.414214 
C 1.03916 -1.789267 0.530406 -2 0 -2 
C -0.530406 -2 -1.03916 -1.789267 -1.414214 -1.414214 
C -1.789267 -1.03916 -2 -0.530406 -2 0 
C -2 0.530406 -1.789267 1.03916 -1.414214 1.414214 
C -1.03916 1.789267 -0.530406 2 0 2 
z
" style="stroke: #00ff39"/>
    </defs>
    <g clip-path="url(#p8dab4ad58a)">
     <use xlink:href="#m7b54fb9512" x="46.939016" y="92.671721" style="fill: #00ff39; stroke: #00ff39"/>
    </g>
   </g>
   <g id="line2d_37">
    <g clip-path="url(#p8dab4ad58a)">
     <use xlink:href="#m7b54fb9512" x="75.05963" y="112.975745" style="fill: #00ff39; stroke: #00ff39"/>
    </g>
   </g>
   <g id="line2d_38">
    <g clip-path="url(#p8dab4ad58a)">
     <use xlink:href="#m7b54fb9512" x="44.934604" y="111.982912" style="fill: #00ff39; stroke: #00ff39"/>
    </g>
   </g>
   <g id="line2d_39">
    <g clip-path="url(#p8dab4ad58a)">
     <use xlink:href="#m7b54fb9512" x="71.492371" y="111.486053" style="fill: #00ff39; stroke: #00ff39"/>
    </g>
   </g>
   <g id="line2d_40">
    <g clip-path="url(#p8dab4ad58a)">
     <use xlink:href="#m7b54fb9512" x="58.857087" y="103.136388" style="fill: #00ff39; stroke: #00ff39"/>
    </g>
   </g>
   <g id="line2d_41">
    <g clip-path="url(#p8dab4ad58a)">
     <use xlink:href="#m7b54fb9512" x="83.593725" y="95.037984" style="fill: #00ff39; stroke: #00ff39"/>
    </g>
   </g>
   <g id="line2d_42">
    <g clip-path="url(#p8dab4ad58a)">
     <use xlink:href="#m7b54fb9512" x="71.792207" y="109.115659" style="fill: #00ff39; stroke: #00ff39"/>
    </g>
   </g>
   <g id="line2d_43">
    <g clip-path="url(#p8dab4ad58a)">
     <use xlink:href="#m7b54fb9512" x="86.045304" y="107.357135" style="fill: #00ff39; stroke: #00ff39"/>
    </g>
   </g>
   <g id="line2d_44">
    <g clip-path="url(#p8dab4ad58a)">
     <use xlink:href="#m7b54fb9512" x="72.405594" y="119.411098" style="fill: #00ff39; stroke: #00ff39"/>
    </g>
   </g>
   <g id="line2d_45">
    <g clip-path="url(#p8dab4ad58a)">
     <use xlink:href="#m7b54fb9512" x="88.069523" y="131.977184" style="fill: #00ff39; stroke: #00ff39"/>
    </g>
   </g>
   <g id="line2d_46">
    <defs>
     <path id="m3653bd5407" d="M 0 7.5 
C 1.989023 7.5 3.896849 6.709753 5.303301 5.303301 
C 6.709753 3.896849 7.5 1.989023 7.5 0 
C 7.5 -1.989023 6.709753 -3.896849 5.303301 -5.303301 
C 3.896849 -6.709753 1.989023 -7.5 0 -7.5 
C -1.989023 -7.5 -3.896849 -6.709753 -5.303301 -5.303301 
C -6.709753 -3.896849 -7.5 -1.989023 -7.5 0 
C -7.5 1.989023 -6.709753 3.896849 -5.303301 5.303301 
C -3.896849 6.709753 -1.989023 7.5 0 7.5 
z
" style="stroke: #00fff6"/>
    </defs>
    <g clip-path="url(#p8dab4ad58a)">
     <use xlink:href="#m3653bd5407" x="43.008" y="111.838125" style="fill: #00fff6; stroke: #00fff6"/>
    </g>
   </g>
   <g id="line2d_47">
    <defs>
     <path id="m6d746204fe" d="M 0 2 
C 0.530406 2 1.03916 1.789267 1.414214 1.414214 
C 1.789267 1.03916 2 0.530406 2 0 
C 2 -0.530406 1.789267 -1.03916 1.414214 -1.414214 
C 1.03916 -1.789267 0.530406 -2 0 -2 
C -0.530406 -2 -1.03916 -1.789267 -1.414214 -1.414214 
C -1.789267 -1.03916 -2 -0.530406 -2 0 
C -2 0.530406 -1.789267 1.03916 -1.414214 1.414214 
C -1.03916 1.789267 -0.530406 2 0 2 
z
" style="stroke: #00fff6"/>
    </defs>
    <g clip-path="url(#p8dab4ad58a)">
     <use xlink:href="#m6d746204fe" x="46.117286" y="111.84077" style="fill: #00fff6; stroke: #00fff6"/>
    </g>
   </g>
   <g id="line2d_48">
    <g clip-path="url(#p8dab4ad58a)">
     <use xlink:href="#m6d746204fe" x="52.271449" y="117.818041" style="fill: #00fff6; stroke: #00fff6"/>
    </g>
   </g>
   <g id="line2d_49">
    <g clip-path="url(#p8dab4ad58a)">
     <use xlink:href="#m6d746204fe" x="52.50836" y="113.839159" style="fill: #00fff6; stroke: #00fff6"/>
    </g>
   </g>
   <g id="line2d_50">
    <g clip-path="url(#p8dab4ad58a)">
     <use xlink:href="#m6d746204fe" x="79.703229" y="129.806491" style="fill: #00fff6; stroke: #00fff6"/>
    </g>
   </g>
   <g id="line2d_51">
    <g clip-path="url(#p8dab4ad58a)">
     <use xlink:href="#m6d746204fe" x="48.244005" y="124.933016" style="fill: #00fff6; stroke: #00fff6"/>
    </g>
   </g>
   <g id="line2d_52">
    <g clip-path="url(#p8dab4ad58a)">
     <use xlink:href="#m6d746204fe" x="80.48625" y="122.210554" style="fill: #00fff6; stroke: #00fff6"/>
    </g>
   </g>
   <g id="line2d_53">
    <g clip-path="url(#p8dab4ad58a)">
     <use xlink:href="#m6d746204fe" x="56.254211" y="113.556162" style="fill: #00fff6; stroke: #00fff6"/>
    </g>
   </g>
   <g id="line2d_54">
    <g clip-path="url(#p8dab4ad58a)">
     <use xlink:href="#m6d746204fe" x="58.045811" y="125.21706" style="fill: #00fff6; stroke: #00fff6"/>
    </g>
   </g>
   <g id="line2d_55">
    <g clip-path="url(#p8dab4ad58a)">
     <use xlink:href="#m6d746204fe" x="68.059725" y="122.770579" style="fill: #00fff6; stroke: #00fff6"/>
    </g>
   </g>
   <g id="line2d_56">
    <g clip-path="url(#p8dab4ad58a)">
     <use xlink:href="#m6d746204fe" x="36.644738" y="101.007624" style="fill: #00fff6; stroke: #00fff6"/>
    </g>
   </g>
   <g id="line2d_57">
    <defs>
     <path id="m5c14a21cf0" d="M 0 7.5 
C 1.989023 7.5 3.896849 6.709753 5.303301 5.303301 
C 6.709753 3.896849 7.5 1.989023 7.5 0 
C 7.5 -1.989023 6.709753 -3.896849 5.303301 -5.303301 
C 3.896849 -6.709753 1.989023 -7.5 0 -7.5 
C -1.989023 -7.5 -3.896849 -6.709753 -5.303301 -5.303301 
C -6.709753 -3.896849 -7.5 -1.989023 -7.5 0 
C -7.5 1.989023 -6.709753 3.896849 -5.303301 5.303301 
C -3.896849 6.709753 -1.989023 7.5 0 7.5 
z
" style="stroke: #004bff"/>
    </defs>
    <g clip-path="url(#p8dab4ad58a)">
     <use xlink:href="#m5c14a21cf0" x="58.739881" y="149.818244" style="fill: #004bff; stroke: #004bff"/>
    </g>
   </g>
   <g id="line2d_58">
    <defs>
     <path id="mf26b6a5693" d="M 0 2 
C 0.530406 2 1.03916 1.789267 1.414214 1.414214 
C 1.789267 1.03916 2 0.530406 2 0 
C 2 -0.530406 1.789267 -1.03916 1.414214 -1.414214 
C 1.03916 -1.789267 0.530406 -2 0 -2 
C -0.530406 -2 -1.03916 -1.789267 -1.414214 -1.414214 
C -1.789267 -1.03916 -2 -0.530406 -2 0 
C -2 0.530406 -1.789267 1.03916 -1.414214 1.414214 
C -1.03916 1.789267 -0.530406 2 0 2 
z
" style="stroke: #004bff"/>
    </defs>
    <g clip-path="url(#p8dab4ad58a)">
     <use xlink:href="#mf26b6a5693" x="63.854346" y="119.77354" style="fill: #004bff; stroke: #004bff"/>
    </g>
   </g>
   <g id="line2d_59">
    <g clip-path="url(#p8dab4ad58a)">
     <use xlink:href="#mf26b6a5693" x="63.245098" y="144.780608" style="fill: #004bff; stroke: #004bff"/>
    </g>
   </g>
   <g id="line2d_60">
    <g clip-path="url(#p8dab4ad58a)">
     <use xlink:href="#mf26b6a5693" x="63.624966" y="120.283556" style="fill: #004bff; stroke: #004bff"/>
    </g>
   </g>
   <g id="line2d_61">
    <g clip-path="url(#p8dab4ad58a)">
     <use xlink:href="#mf26b6a5693" x="69.782047" y="136.790139" style="fill: #004bff; stroke: #004bff"/>
    </g>
   </g>
   <g id="line2d_62">
    <g clip-path="url(#p8dab4ad58a)">
     <use xlink:href="#mf26b6a5693" x="67.569199" y="132.628873" style="fill: #004bff; stroke: #004bff"/>
    </g>
   </g>
   <g id="line2d_63">
    <g clip-path="url(#p8dab4ad58a)">
     <use xlink:href="#mf26b6a5693" x="66.747227" y="124.866637" style="fill: #004bff; stroke: #004bff"/>
    </g>
   </g>
   <g id="line2d_64">
    <g clip-path="url(#p8dab4ad58a)">
     <use xlink:href="#mf26b6a5693" x="44.057501" y="131.831713" style="fill: #004bff; stroke: #004bff"/>
    </g>
   </g>
   <g id="line2d_65">
    <g clip-path="url(#p8dab4ad58a)">
     <use xlink:href="#mf26b6a5693" x="54.290998" y="129.573128" style="fill: #004bff; stroke: #004bff"/>
    </g>
   </g>
   <g id="line2d_66">
    <g clip-path="url(#p8dab4ad58a)">
     <use xlink:href="#mf26b6a5693" x="56.174751" y="153.115498" style="fill: #004bff; stroke: #004bff"/>
    </g>
   </g>
   <g id="line2d_67">
    <g clip-path="url(#p8dab4ad58a)">
     <use xlink:href="#mf26b6a5693" x="56.906449" y="131.449889" style="fill: #004bff; stroke: #004bff"/>
    </g>
   </g>
   <g id="line2d_68">
    <defs>
     <path id="m92b113619e" d="M 0 7.5 
C 1.989023 7.5 3.896849 6.709753 5.303301 5.303301 
C 6.709753 3.896849 7.5 1.989023 7.5 0 
C 7.5 -1.989023 6.709753 -3.896849 5.303301 -5.303301 
C 3.896849 -6.709753 1.989023 -7.5 0 -7.5 
C -1.989023 -7.5 -3.896849 -6.709753 -5.303301 -5.303301 
C -6.709753 -3.896849 -7.5 -1.989023 -7.5 0 
C -7.5 1.989023 -6.709753 3.896849 -5.303301 5.303301 
C -3.896849 6.709753 -1.989023 7.5 0 7.5 
z
" style="stroke: #7200ff"/>
    </defs>
    <g clip-path="url(#p8dab4ad58a)">
     <use xlink:href="#m92b113619e" x="96.72" y="165.550125" style="fill: #7200ff; stroke: #7200ff"/>
    </g>
   </g>
   <g id="line2d_69">
    <defs>
     <path id="m57f4b7d6b2" d="M 0 2 
C 0.530406 2 1.03916 1.789267 1.414214 1.414214 
C 1.789267 1.03916 2 0.530406 2 0 
C 2 -0.530406 1.789267 -1.03916 1.414214 -1.414214 
C 1.03916 -1.789267 0.530406 -2 0 -2 
C -0.530406 -2 -1.03916 -1.789267 -1.414214 -1.414214 
C -1.789267 -1.03916 -2 -0.530406 -2 0 
C -2 0.530406 -1.789267 1.03916 -1.414214 1.414214 
C -1.03916 1.789267 -0.530406 2 0 2 
z
" style="stroke: #7200ff"/>
    </defs>
    <g clip-path="url(#p8dab4ad58a)">
     <use xlink:href="#m57f4b7d6b2" x="67.833427" y="173.460105" style="fill: #7200ff; stroke: #7200ff"/>
    </g>
   </g>
   <g id="line2d_70">
    <g clip-path="url(#p8dab4ad58a)">
     <use xlink:href="#m57f4b7d6b2" x="79.68757" y="149.606432" style="fill: #7200ff; stroke: #7200ff"/>
    </g>
   </g>
   <g id="line2d_71">
    <g clip-path="url(#p8dab4ad58a)">
     <use xlink:href="#m57f4b7d6b2" x="61.126152" y="157.465099" style="fill: #7200ff; stroke: #7200ff"/>
    </g>
   </g>
   <g id="line2d_72">
    <g clip-path="url(#p8dab4ad58a)">
     <use xlink:href="#m57f4b7d6b2" x="89.381484" y="170.37838" style="fill: #7200ff; stroke: #7200ff"/>
    </g>
   </g>
   <g id="line2d_73">
    <g clip-path="url(#p8dab4ad58a)">
     <use xlink:href="#m57f4b7d6b2" x="84.999163" y="158.172649" style="fill: #7200ff; stroke: #7200ff"/>
    </g>
   </g>
   <g id="line2d_74">
    <g clip-path="url(#p8dab4ad58a)">
     <use xlink:href="#m57f4b7d6b2" x="71.780405" y="168.312309" style="fill: #7200ff; stroke: #7200ff"/>
    </g>
   </g>
   <g id="line2d_75">
    <g clip-path="url(#p8dab4ad58a)">
     <use xlink:href="#m57f4b7d6b2" x="78.561914" y="168.626392" style="fill: #7200ff; stroke: #7200ff"/>
    </g>
   </g>
   <g id="line2d_76">
    <g clip-path="url(#p8dab4ad58a)">
     <use xlink:href="#m57f4b7d6b2" x="77.019406" y="152.808625" style="fill: #7200ff; stroke: #7200ff"/>
    </g>
   </g>
   <g id="line2d_77">
    <g clip-path="url(#p8dab4ad58a)">
     <use xlink:href="#m57f4b7d6b2" x="100.197252" y="159.021782" style="fill: #7200ff; stroke: #7200ff"/>
    </g>
   </g>
   <g id="line2d_78">
    <g clip-path="url(#p8dab4ad58a)">
     <use xlink:href="#m57f4b7d6b2" x="90.003344" y="164.215838" style="fill: #7200ff; stroke: #7200ff"/>
    </g>
   </g>
   <g id="line2d_79">
    <defs>
     <path id="m2672186444" d="M 0 7.5 
C 1.989023 7.5 3.896849 6.709753 5.303301 5.303301 
C 6.709753 3.896849 7.5 1.989023 7.5 0 
C 7.5 -1.989023 6.709753 -3.896849 5.303301 -5.303301 
C 3.896849 -6.709753 1.989023 -7.5 0 -7.5 
C -1.989023 -7.5 -3.896849 -6.709753 -5.303301 -5.303301 
C -6.709753 -3.896849 -7.5 -1.989023 -7.5 0 
C -7.5 1.989023 -6.709753 3.896849 -5.303301 5.303301 
C -3.896849 6.709753 -1.989023 7.5 0 7.5 
z
" style="stroke: #ff00cf"/>
    </defs>
    <g clip-path="url(#p8dab4ad58a)">
     <use xlink:href="#m2672186444" x="134.700119" y="149.818244" style="fill: #ff00cf; stroke: #ff00cf"/>
    </g>
   </g>
   <g id="line2d_80">
    <defs>
     <path id="m2b901a3ef2" d="M 0 2 
C 0.530406 2 1.03916 1.789267 1.414214 1.414214 
C 1.789267 1.03916 2 0.530406 2 0 
C 2 -0.530406 1.789267 -1.03916 1.414214 -1.414214 
C 1.03916 -1.789267 0.530406 -2 0 -2 
C -0.530406 -2 -1.03916 -1.789267 -1.414214 -1.414214 
C -1.789267 -1.03916 -2 -0.530406 -2 0 
C -2 0.530406 -1.789267 1.03916 -1.414214 1.414214 
C -1.03916 1.789267 -0.530406 2 0 2 
z
" style="stroke: #ff00cf"/>
    </defs>
    <g clip-path="url(#p8dab4ad58a)">
     <use xlink:href="#m2b901a3ef2" x="107.025926" y="153.379502" style="fill: #ff00cf; stroke: #ff00cf"/>
    </g>
   </g>
   <g id="line2d_81">
    <g clip-path="url(#p8dab4ad58a)">
     <use xlink:href="#m2b901a3ef2" x="120.181654" y="144.549139" style="fill: #ff00cf; stroke: #ff00cf"/>
    </g>
   </g>
   <g id="line2d_82">
    <g clip-path="url(#p8dab4ad58a)">
     <use xlink:href="#m2b901a3ef2" x="117.69262" y="155.109809" style="fill: #ff00cf; stroke: #ff00cf"/>
    </g>
   </g>
   <g id="line2d_83">
    <g clip-path="url(#p8dab4ad58a)">
     <use xlink:href="#m2b901a3ef2" x="130.048915" y="141.027254" style="fill: #ff00cf; stroke: #ff00cf"/>
    </g>
   </g>
   <g id="line2d_84">
    <g clip-path="url(#p8dab4ad58a)">
     <use xlink:href="#m2b901a3ef2" x="130.549434" y="159.744834" style="fill: #ff00cf; stroke: #ff00cf"/>
    </g>
   </g>
   <g id="line2d_85">
    <g clip-path="url(#p8dab4ad58a)">
     <use xlink:href="#m2b901a3ef2" x="131.411445" y="147.243688" style="fill: #ff00cf; stroke: #ff00cf"/>
    </g>
   </g>
   <g id="line2d_86">
    <g clip-path="url(#p8dab4ad58a)">
     <use xlink:href="#m2b901a3ef2" x="121.044467" y="139.450995" style="fill: #ff00cf; stroke: #ff00cf"/>
    </g>
   </g>
   <g id="line2d_87">
    <g clip-path="url(#p8dab4ad58a)">
     <use xlink:href="#m2b901a3ef2" x="121.926142" y="152.903569" style="fill: #ff00cf; stroke: #ff00cf"/>
    </g>
   </g>
   <g id="line2d_88">
    <g clip-path="url(#p8dab4ad58a)">
     <use xlink:href="#m2b901a3ef2" x="147.865743" y="148.246483" style="fill: #ff00cf; stroke: #ff00cf"/>
    </g>
   </g>
   <g id="line2d_89">
    <g clip-path="url(#p8dab4ad58a)">
     <use xlink:href="#m2b901a3ef2" x="124.101109" y="147.544833" style="fill: #ff00cf; stroke: #ff00cf"/>
    </g>
   </g>
   <g id="text_1">
    <text style="font-size: 12px; font-family: 'DejaVu Sans', 'Bitstream Vera Sans', 'Computer Modern Sans Serif', 'Lucida Grande', 'Verdana', 'Geneva', 'Lucid', 'Arial', 'Helvetica', 'Avant Garde', sans-serif; text-anchor: middle" x="96.72" y="16.318125" transform="rotate(-0 96.72 16.318125)">Policy Snapshot @ Trial 1000</text>
   </g>
  </g>
 </g>
 <defs>
  <clipPath id="p8dab4ad58a">
   <rect x="7.2" y="22.318125" width="179.04" height="179.04"/>
  </clipPath>
 </defs>
</svg>
