<?xml version="1.0" encoding="utf-8" standalone="no"?>
<!DOCTYPE svg PUBLIC "-//W3C//DTD SVG 1.1//EN"
  "http://www.w3.org/Graphics/SVG/1.1/DTD/svg11.dtd">
<svg xmlns:xlink="http://www.w3.org/1999/xlink" width="214.238149pt" height="347.04pt" viewBox="0 0 214.238149 347.04" xmlns="http://www.w3.org/2000/svg" version="1.1">
 <metadata>
  <rdf:RDF xmlns:dc="http://purl.org/dc/elements/1.1/" xmlns:cc="http://creativecommons.org/ns#" xmlns:rdf="http://www.w3.org/1999/02/22-rdf-syntax-ns#">
   <cc:Work>
    <dc:type rdf:resource="http://purl.org/dc/dcmitype/StillImage"/>
    <dc:date>2025-08-29T12:27:42.257123</dc:date>
    <dc:format>image/svg+xml</dc:format>
    <dc:creator>
     <cc:Agent>
      <dc:title>Matplotlib v3.10.0, https://matplotlib.org/</dc:title>
     </cc:Agent>
    </dc:creator>
   </cc:Work>
  </rdf:RDF>
 </metadata>
 <defs>
  <style type="text/css">*{stroke-linejoin: round; stroke-linecap: butt}</style>
 </defs>
 <g id="figure_1">
  <g id="patch_1">
   <path d="M -0 347.04 
L 214.238149 347.04 
L 214.238149 -0 
L -0 -0 
z
" style="fill: #ffffff"/>
  </g>
  <g id="axes_1">
   <g id="line2d_1">
    <path d="M 107.119075 173.519472 
" clip-path="url(#p46438d0cfa)" style="fill: none; stroke: #000000; stroke-width: 1.5; stroke-linecap: square"/>
    <defs>
     <path id="m692008fbfd" d="M 0 15 
C 3.978047 15 7.793698 13.419505 10.606602 10.606602 
C 13.419505 7.793698 15 3.978047 15 0 
C 15 -3.978047 13.419505 -7.793698 10.606602 -10.606602 
C 7.793698 -13.419505 3.978047 -15 0 -15 
C -3.978047 -15 -7.793698 -13.419505 -10.606602 -10.606602 
C -13.419505 -7.793698 -15 -3.978047 -15 0 
C -15 3.978047 -13.419505 7.793698 -10.606602 10.606602 
C -7.793698 13.419505 -3.978047 15 0 15 
z
" style="stroke: #000000"/>
    </defs>
    <g clip-path="url(#p46438d0cfa)">
     <use xlink:href="#m692008fbfd" x="107.119075" y="173.519472" style="stroke: #000000"/>
    </g>
   </g>
   <g id="line2d_2">
    <path d="M 96.219169 232.471757 
L 105.538025 219.016758 
L 114.871099 205.152591 
L 124.134458 191.003939 
L 133.244794 176.698045 
L 142.120174 162.363565 
L 150.68078 148.129414 
L 158.849625 134.123601 
L 166.553244 120.472085 
L 173.722357 107.297638 
L 180.292489 94.718741 
L 186.204555 82.848518 
L 191.405385 71.793722 
L 195.848206 61.653772 
L 198.368949 55.447448 
L 200.524814 49.713256 
L 202.307181 44.474123 
L 203.708922 39.751 
L 204.724432 35.562772 
L 205.349651 31.926187 
L 205.582079 28.855787 
L 205.420786 26.363848 
L 205.192634 25.338007 
L 204.866417 24.460336 
L 204.442461 23.731711 
L 203.921189 23.152861 
L 203.303124 22.724366 
L 202.588882 22.446653 
L 201.779178 22.32 
L 200.874823 22.344534 
L 199.876719 22.520231 
L 198.785865 22.846914 
L 196.330363 23.951783 
L 193.518135 25.654723 
L 190.360425 27.948925 
L 186.869861 30.825215 
L 183.060401 34.272092 
L 178.947276 38.275773 
L 174.546934 42.820249 
L 169.876971 47.887347 
L 162.40761 56.423038 
L 154.441026 66.011806 
L 146.048864 76.567418 
L 137.306596 87.994944 
L 128.292844 100.191614 
L 119.088671 113.04774 
L 109.776853 126.447703 
L 100.441132 140.270994 
L 91.165468 154.393298 
L 82.033279 168.687608 
L 73.126693 183.025372 
L 64.525808 197.277647 
L 56.307976 211.316259 
L 48.547101 225.014955 
L 41.312978 238.250539 
L 34.670666 250.90398 
L 28.679901 262.861483 
L 23.394559 274.015511 
L 18.862172 284.265752 
L 16.279309 290.55126 
L 14.059684 296.368797 
L 12.212172 301.695101 
L 10.744162 306.508873 
L 9.661522 310.790865 
L 8.968583 314.523954 
L 8.668115 317.693213 
L 8.76132 320.28597 
L 8.955494 321.362828 
L 9.247824 322.291856 
L 9.638017 323.072123 
L 10.125683 323.702851 
L 10.710334 324.183407 
L 11.391386 324.513312 
L 12.168158 324.692236 
L 13.039873 324.72 
L 14.005659 324.596576 
L 15.06455 324.322087 
L 17.457323 323.321165 
L 20.208624 321.721235 
L 23.30745 319.528696 
L 26.741412 316.752315 
L 30.496777 313.403193 
L 34.558528 309.494723 
L 38.910426 305.042534 
L 43.535067 300.064427 
L 48.413959 294.580309 
L 56.166083 285.453864 
L 64.376441 275.320764 
L 72.971194 264.27214 
L 81.873047 252.407353 
L 91.001944 239.833109 
L 100.275787 226.662489 
L 100.275787 226.662489 
" clip-path="url(#p46438d0cfa)" style="fill: none; stroke: #440154; stroke-opacity: 0.9; stroke-width: 2; stroke-linecap: square"/>
   </g>
   <g id="line2d_3">
    <defs>
     <path id="m83198f6c73" d="M 0 15 
C 3.978047 15 7.793698 13.419505 10.606602 10.606602 
C 13.419505 7.793698 15 3.978047 15 0 
C 15 -3.978047 13.419505 -7.793698 10.606602 -10.606602 
C 7.793698 -13.419505 3.978047 -15 0 -15 
C -3.978047 -15 -7.793698 -13.419505 -10.606602 -10.606602 
C -13.419505 -7.793698 -15 -3.978047 -15 0 
C -15 3.978047 -13.419505 7.793698 -10.606602 10.606602 
C -7.793698 13.419505 -3.978047 15 0 15 
z
" style="stroke: #440154; stroke-width: 1.5"/>
    </defs>
    <g clip-path="url(#p46438d0cfa)">
     <use xlink:href="#m83198f6c73" x="169.005626" y="116.021646" style="fill: #ffffff; stroke: #440154; stroke-width: 1.5"/>
    </g>
   </g>
   <g id="line2d_4">
    <path d="M 107.119075 240.132188 
L 96.219169 232.471757 
" clip-path="url(#p46438d0cfa)" style="fill: none; stroke: #000000; stroke-width: 2; stroke-linecap: square"/>
   </g>
   <g id="line2d_5">
    <defs>
     <path id="m34523a0c3a" d="M 0 5 
C 1.326016 5 2.597899 4.473168 3.535534 3.535534 
C 4.473168 2.597899 5 1.326016 5 0 
C 5 -1.326016 4.473168 -2.597899 3.535534 -3.535534 
C 2.597899 -4.473168 1.326016 -5 0 -5 
C -1.326016 -5 -2.597899 -4.473168 -3.535534 -3.535534 
C -4.473168 -2.597899 -5 -1.326016 -5 0 
C -5 1.326016 -4.473168 2.597899 -3.535534 3.535534 
C -2.597899 4.473168 -1.326016 5 0 5 
z
" style="stroke: #000000"/>
    </defs>
    <g clip-path="url(#p46438d0cfa)">
     <use xlink:href="#m34523a0c3a" x="107.119075" y="240.132188" style="stroke: #000000"/>
    </g>
   </g>
   <g id="line2d_6">
    <path d="M 157.078612 123.559935 
" clip-path="url(#p46438d0cfa)" style="fill: none; stroke: #ff0000; stroke-width: 1.5; stroke-linecap: square"/>
    <defs>
     <path id="m85b47038b8" d="M 0 10 
C 2.652031 10 5.195799 8.946337 7.071068 7.071068 
C 8.946337 5.195799 10 2.652031 10 0 
C 10 -2.652031 8.946337 -5.195799 7.071068 -7.071068 
C 5.195799 -8.946337 2.652031 -10 0 -10 
C -2.652031 -10 -5.195799 -8.946337 -7.071068 -7.071068 
C -8.946337 -5.195799 -10 -2.652031 -10 0 
C -10 2.652031 -8.946337 5.195799 -7.071068 7.071068 
C -5.195799 8.946337 -2.652031 10 0 10 
z
" style="stroke: #000000"/>
    </defs>
    <g clip-path="url(#p46438d0cfa)">
     <use xlink:href="#m85b47038b8" x="157.078612" y="123.559935" style="fill: #ff0000; stroke: #000000"/>
    </g>
   </g>
  </g>
 </g>
 <defs>
  <clipPath id="p46438d0cfa">
   <rect x="7.2" y="7.2" width="199.838149" height="332.64"/>
  </clipPath>
 </defs>
</svg>
