<?xml version="1.0" encoding="utf-8" standalone="no"?>
<!DOCTYPE svg PUBLIC "-//W3C//DTD SVG 1.1//EN"
  "http://www.w3.org/Graphics/SVG/1.1/DTD/svg11.dtd">
<svg xmlns:xlink="http://www.w3.org/1999/xlink" width="186.129369pt" height="347.04pt" viewBox="0 0 186.129369 347.04" xmlns="http://www.w3.org/2000/svg" version="1.1">
 <metadata>
  <rdf:RDF xmlns:dc="http://purl.org/dc/elements/1.1/" xmlns:cc="http://creativecommons.org/ns#" xmlns:rdf="http://www.w3.org/1999/02/22-rdf-syntax-ns#">
   <cc:Work>
    <dc:type rdf:resource="http://purl.org/dc/dcmitype/StillImage"/>
    <dc:date>2025-08-28T18:33:06.018094</dc:date>
    <dc:format>image/svg+xml</dc:format>
    <dc:creator>
     <cc:Agent>
      <dc:title>Matplotlib v3.10.0, https://matplotlib.org/</dc:title>
     </cc:Agent>
    </dc:creator>
   </cc:Work>
  </rdf:RDF>
 </metadata>
 <defs>
  <style type="text/css">*{stroke-linejoin: round; stroke-linecap: butt}</style>
 </defs>
 <g id="figure_1">
  <g id="patch_1">
   <path d="M 0 347.04 
L 186.129369 347.04 
L 186.129369 -0 
L 0 -0 
z
" style="fill: #ffffff"/>
  </g>
  <g id="axes_1">
   <g id="line2d_1">
    <path d="M 93.064685 173.512695 
" clip-path="url(#p68d23a6225)" style="fill: none; stroke: #000000; stroke-width: 1.5; stroke-linecap: square"/>
    <defs>
     <path id="ma19297a155" d="M 0 15 
C 3.978047 15 7.793698 13.419505 10.606602 10.606602 
C 13.419505 7.793698 15 3.978047 15 0 
C 15 -3.978047 13.419505 -7.793698 10.606602 -10.606602 
C 7.793698 -13.419505 3.978047 -15 0 -15 
C -3.978047 -15 -7.793698 -13.419505 -10.606602 -10.606602 
C -13.419505 -7.793698 -15 -3.978047 -15 0 
C -15 3.978047 -13.419505 7.793698 -10.606602 10.606602 
C -7.793698 13.419505 -3.978047 15 0 15 
z
" style="stroke: #000000"/>
    </defs>
    <g clip-path="url(#p68d23a6225)">
     <use xlink:href="#ma19297a155" x="93.064685" y="173.512695" style="stroke: #000000"/>
    </g>
   </g>
   <g id="line2d_2">
    <path d="M 83.697934 265.960311 
L 78.401587 258.212742 
L 73.163873 250.126486 
L 68.005736 241.733876 
L 62.947801 233.068473 
L 58.010294 224.164926 
L 53.212957 215.058837 
L 48.574974 205.78662 
L 44.114891 196.38535 
L 39.850542 186.892619 
L 35.798978 177.346387 
L 31.9764 167.784825 
L 28.398095 158.246167 
L 25.078369 148.768555 
L 22.030499 139.389886 
L 19.26667 130.147663 
L 16.797935 121.078842 
L 14.634165 112.219687 
L 12.784013 103.605622 
L 11.254876 95.271093 
L 10.05287 87.249425 
L 9.1828 79.572695 
L 8.648146 72.271601 
L 8.451045 65.375335 
L 8.592286 58.911475 
L 9.071304 52.905867 
L 9.886184 47.382526 
L 11.033667 42.363537 
L 11.730752 40.049527 
L 12.509165 37.868969 
L 13.368126 35.824044 
L 14.306777 33.916796 
L 15.324179 32.149133 
L 16.419316 30.522821 
L 17.591091 29.039487 
L 18.838334 27.700614 
L 20.159797 26.507541 
L 21.554159 25.461461 
L 23.020025 24.56342 
L 24.55593 23.814316 
L 26.160338 23.214898 
L 27.831645 22.765765 
L 29.56818 22.467366 
L 31.368206 22.32 
L 33.229923 22.323814 
L 35.151469 22.478805 
L 37.130925 22.784816 
L 39.166309 23.241544 
L 41.255587 23.848529 
L 43.39667 24.605167 
L 45.587417 25.510699 
L 47.825637 26.564221 
L 52.4355 29.110874 
L 57.207826 32.234942 
L 62.123531 35.923932 
L 67.16296 40.163094 
L 72.305961 44.935476 
L 77.531969 50.221996 
L 82.820087 56.001514 
L 88.14917 62.250921 
L 93.497908 68.945226 
L 98.844915 76.057661 
L 104.168808 83.559787 
L 109.448299 91.421605 
L 114.662278 99.611677 
L 119.789895 108.097255 
L 124.810647 116.844408 
L 129.704457 125.818158 
L 134.451757 134.982623 
L 139.033564 144.301156 
L 143.431557 153.736497 
L 147.628149 163.250916 
L 151.606561 172.806369 
L 155.350883 182.364646 
L 158.846143 191.887527 
L 162.078365 201.336934 
L 165.034624 210.67508 
L 167.703099 219.864626 
L 170.073121 228.868827 
L 172.135211 237.651677 
L 173.881124 246.178056 
L 175.30388 254.413871 
L 176.397788 262.326188 
L 177.158475 269.883371 
L 177.582899 277.055199 
L 177.669363 283.812995 
L 177.417521 290.129737 
L 176.82838 295.980166 
L 175.904296 301.340889 
L 174.648964 306.190469 
L 173.898597 308.417439 
L 173.067403 310.509515 
L 172.156213 312.464606 
L 171.165938 314.280757 
L 170.097569 315.956151 
L 168.952173 317.489113 
L 167.730896 318.878112 
L 166.434958 320.121757 
L 165.065657 321.218805 
L 163.624361 322.168159 
L 162.112511 322.96887 
L 160.531618 323.620138 
L 158.883265 324.12131 
L 157.169098 324.471887 
L 155.390833 324.671516 
L 153.550246 324.72 
L 151.649179 324.617289 
L 149.689532 324.363486 
L 147.673265 323.958845 
L 145.602394 323.40377 
L 143.47899 322.698816 
L 141.305176 321.844689 
L 139.083125 320.842242 
L 134.503247 318.396546 
L 129.757671 315.371508 
L 124.865371 311.779224 
L 119.845911 307.634058 
L 114.719362 302.952586 
L 109.506223 297.753526 
L 104.22734 292.057669 
L 98.903821 285.88779 
L 93.556953 279.26856 
L 88.208117 272.226448 
L 82.878701 264.789612 
L 80.22794 260.932407 
L 80.22794 260.932407 
" clip-path="url(#p68d23a6225)" style="fill: none; stroke: #440154; stroke-opacity: 0.9; stroke-width: 2; stroke-linecap: square"/>
   </g>
   <g id="line2d_3">
    <defs>
     <path id="me7a997cd25" d="M 0 15 
C 3.978047 15 7.793698 13.419505 10.606602 10.606602 
C 13.419505 7.793698 15 3.978047 15 0 
C 15 -3.978047 13.419505 -7.793698 10.606602 -10.606602 
C 7.793698 -13.419505 3.978047 -15 0 -15 
C -3.978047 -15 -7.793698 -13.419505 -10.606602 -10.606602 
C -13.419505 -7.793698 -15 -3.978047 -15 0 
C -15 3.978047 -13.419505 7.793698 -10.606602 10.606602 
C -7.793698 13.419505 -3.978047 15 0 15 
z
" style="stroke: #440154; stroke-width: 1.5"/>
    </defs>
    <g clip-path="url(#p68d23a6225)">
     <use xlink:href="#me7a997cd25" x="26.705055" y="153.497354" style="fill: #ffffff; stroke: #440154; stroke-width: 1.5"/>
    </g>
   </g>
   <g id="line2d_4">
    <path d="M 93.064685 259.37738 
L 83.697934 265.960311 
" clip-path="url(#p68d23a6225)" style="fill: none; stroke: #000000; stroke-width: 2; stroke-linecap: square"/>
   </g>
   <g id="line2d_5">
    <defs>
     <path id="mee6b40399d" d="M 0 5 
C 1.326016 5 2.597899 4.473168 3.535534 3.535534 
C 4.473168 2.597899 5 1.326016 5 0 
C 5 -1.326016 4.473168 -2.597899 3.535534 -3.535534 
C 2.597899 -4.473168 1.326016 -5 0 -5 
C -1.326016 -5 -2.597899 -4.473168 -3.535534 -3.535534 
C -4.473168 -2.597899 -5 -1.326016 -5 0 
C -5 1.326016 -4.473168 2.597899 -3.535534 3.535534 
C -2.597899 4.473168 -1.326016 5 0 5 
z
" style="stroke: #000000"/>
    </defs>
    <g clip-path="url(#p68d23a6225)">
     <use xlink:href="#mee6b40399d" x="93.064685" y="259.37738" style="stroke: #000000"/>
    </g>
   </g>
   <g id="line2d_6">
    <path d="M 138.859184 127.718196 
" clip-path="url(#p68d23a6225)" style="fill: none; stroke: #ff0000; stroke-width: 1.5; stroke-linecap: square"/>
    <defs>
     <path id="m9653d061a7" d="M 0 10 
C 2.652031 10 5.195799 8.946337 7.071068 7.071068 
C 8.946337 5.195799 10 2.652031 10 0 
C 10 -2.652031 8.946337 -5.195799 7.071068 -7.071068 
C 5.195799 -8.946337 2.652031 -10 0 -10 
C -2.652031 -10 -5.195799 -8.946337 -7.071068 -7.071068 
C -8.946337 -5.195799 -10 -2.652031 -10 0 
C -10 2.652031 -8.946337 5.195799 -7.071068 7.071068 
C -5.195799 8.946337 -2.652031 10 0 10 
z
" style="stroke: #000000"/>
    </defs>
    <g clip-path="url(#p68d23a6225)">
     <use xlink:href="#m9653d061a7" x="138.859184" y="127.718196" style="fill: #ff0000; stroke: #000000"/>
    </g>
   </g>
  </g>
 </g>
 <defs>
  <clipPath id="p68d23a6225">
   <rect x="7.2" y="7.2" width="171.729369" height="332.64"/>
  </clipPath>
 </defs>
</svg>
