<?xml version="1.0" encoding="utf-8" standalone="no"?>
<!DOCTYPE svg PUBLIC "-//W3C//DTD SVG 1.1//EN"
  "http://www.w3.org/Graphics/SVG/1.1/DTD/svg11.dtd">
<svg xmlns:xlink="http://www.w3.org/1999/xlink" width="214.238158pt" height="347.04pt" viewBox="0 0 214.238158 347.04" xmlns="http://www.w3.org/2000/svg" version="1.1">
 <metadata>
  <rdf:RDF xmlns:dc="http://purl.org/dc/elements/1.1/" xmlns:cc="http://creativecommons.org/ns#" xmlns:rdf="http://www.w3.org/1999/02/22-rdf-syntax-ns#">
   <cc:Work>
    <dc:type rdf:resource="http://purl.org/dc/dcmitype/StillImage"/>
    <dc:date>2025-08-29T12:39:22.945507</dc:date>
    <dc:format>image/svg+xml</dc:format>
    <dc:creator>
     <cc:Agent>
      <dc:title>Matplotlib v3.10.0, https://matplotlib.org/</dc:title>
     </cc:Agent>
    </dc:creator>
   </cc:Work>
  </rdf:RDF>
 </metadata>
 <defs>
  <style type="text/css">*{stroke-linejoin: round; stroke-linecap: butt}</style>
 </defs>
 <g id="figure_1">
  <g id="patch_1">
   <path d="M 0 347.04 
L 214.238158 347.04 
L 214.238158 -0 
L 0 -0 
z
" style="fill: #ffffff"/>
  </g>
  <g id="axes_1">
   <g id="line2d_1">
    <path d="M 107.119079 173.519472 
" clip-path="url(#p7c63772f50)" style="fill: none; stroke: #000000; stroke-width: 1.5; stroke-linecap: square"/>
    <defs>
     <path id="mb6b6ba17a8" d="M 0 15 
C 3.978047 15 7.793698 13.419505 10.606602 10.606602 
C 13.419505 7.793698 15 3.978047 15 0 
C 15 -3.978047 13.419505 -7.793698 10.606602 -10.606602 
C 7.793698 -13.419505 3.978047 -15 0 -15 
C -3.978047 -15 -7.793698 -13.419505 -10.606602 -10.606602 
C -13.419505 -7.793698 -15 -3.978047 -15 0 
C -15 3.978047 -13.419505 7.793698 -10.606602 10.606602 
C -7.793698 13.419505 -3.978047 15 0 15 
z
" style="stroke: #000000"/>
    </defs>
    <g clip-path="url(#p7c63772f50)">
     <use xlink:href="#mb6b6ba17a8" x="107.119079" y="173.519472" style="stroke: #000000"/>
    </g>
   </g>
   <g id="line2d_2">
    <path d="M 96.219173 232.471759 
L 105.53803 219.01676 
L 114.871107 205.152593 
L 124.134467 191.003941 
L 133.244803 176.698047 
L 142.120184 162.363567 
L 150.680792 148.129416 
L 158.849638 134.123603 
L 166.553258 120.472087 
L 173.722372 107.29764 
L 180.292505 94.718742 
L 186.204571 82.84852 
L 191.405402 71.793724 
L 195.848224 61.653773 
L 198.368967 55.44745 
L 200.524832 49.713257 
L 202.307199 44.474124 
L 203.70894 39.751001 
L 204.724451 35.562773 
L 205.34967 31.926188 
L 205.582097 28.855787 
L 205.420804 26.363849 
L 205.192652 25.338008 
L 204.866435 24.460336 
L 204.442479 23.731711 
L 203.921207 23.152861 
L 203.303141 22.724366 
L 202.588899 22.446653 
L 201.779196 22.32 
L 200.87484 22.344534 
L 199.876736 22.52023 
L 198.785882 22.846914 
L 196.33038 23.951782 
L 193.518151 25.654722 
L 190.360441 27.948925 
L 186.869876 30.825215 
L 183.060415 34.272092 
L 178.947289 38.275773 
L 174.546947 42.820248 
L 169.876983 47.887346 
L 162.407621 56.423036 
L 154.441036 66.011805 
L 146.048872 76.567416 
L 137.306603 87.994942 
L 128.29285 100.191612 
L 119.088676 113.047738 
L 109.776856 126.447701 
L 100.441134 140.270992 
L 91.165469 154.393296 
L 82.033278 168.687606 
L 73.126691 183.02537 
L 64.525805 197.277645 
L 56.307972 211.316257 
L 48.547095 225.014953 
L 41.312972 238.250537 
L 34.670659 250.903978 
L 28.679893 262.861481 
L 23.39455 274.015509 
L 18.862163 284.265751 
L 16.2793 290.551259 
L 14.059675 296.368796 
L 12.212163 301.6951 
L 10.744152 306.508872 
L 9.661513 310.790864 
L 8.968573 314.523953 
L 8.668105 317.693213 
L 8.76131 320.285969 
L 8.955485 321.362828 
L 9.247815 322.291856 
L 9.638008 323.072123 
L 10.125674 323.702851 
L 10.710325 324.183407 
L 11.391377 324.513312 
L 12.168149 324.692236 
L 13.039864 324.72 
L 14.00565 324.596576 
L 15.064542 324.322087 
L 17.457316 323.321165 
L 20.208617 321.721236 
L 23.307444 319.528697 
L 26.741406 316.752316 
L 30.496771 313.403194 
L 34.558524 309.494724 
L 38.910421 305.042535 
L 43.535063 300.064428 
L 48.413956 294.580311 
L 56.166082 285.453865 
L 64.376441 275.320765 
L 72.971195 264.272141 
L 81.873049 252.407355 
L 91.001948 239.833111 
L 100.275792 226.662491 
L 100.275792 226.662491 
" clip-path="url(#p7c63772f50)" style="fill: none; stroke: #440154; stroke-opacity: 0.9; stroke-width: 2; stroke-linecap: square"/>
   </g>
   <g id="line2d_3">
    <defs>
     <path id="m753031a879" d="M 0 15 
C 3.978047 15 7.793698 13.419505 10.606602 10.606602 
C 13.419505 7.793698 15 3.978047 15 0 
C 15 -3.978047 13.419505 -7.793698 10.606602 -10.606602 
C 7.793698 -13.419505 3.978047 -15 0 -15 
C -3.978047 -15 -7.793698 -13.419505 -10.606602 -10.606602 
C -13.419505 -7.793698 -15 -3.978047 -15 0 
C -15 3.978047 -13.419505 7.793698 -10.606602 10.606602 
C -7.793698 13.419505 -3.978047 15 0 15 
z
" style="stroke: #440154; stroke-width: 1.5"/>
    </defs>
    <g clip-path="url(#p7c63772f50)">
     <use xlink:href="#m753031a879" x="169.005641" y="116.021648" style="fill: #ffffff; stroke: #440154; stroke-width: 1.5"/>
    </g>
   </g>
   <g id="line2d_4">
    <path d="M 107.119079 240.132191 
L 96.219173 232.471759 
" clip-path="url(#p7c63772f50)" style="fill: none; stroke: #000000; stroke-width: 2; stroke-linecap: square"/>
   </g>
   <g id="line2d_5">
    <defs>
     <path id="m5f6cfa49d7" d="M 0 5 
C 1.326016 5 2.597899 4.473168 3.535534 3.535534 
C 4.473168 2.597899 5 1.326016 5 0 
C 5 -1.326016 4.473168 -2.597899 3.535534 -3.535534 
C 2.597899 -4.473168 1.326016 -5 0 -5 
C -1.326016 -5 -2.597899 -4.473168 -3.535534 -3.535534 
C -4.473168 -2.597899 -5 -1.326016 -5 0 
C -5 1.326016 -4.473168 2.597899 -3.535534 3.535534 
C -2.597899 4.473168 -1.326016 5 0 5 
z
" style="stroke: #000000"/>
    </defs>
    <g clip-path="url(#p7c63772f50)">
     <use xlink:href="#m5f6cfa49d7" x="107.119079" y="240.132191" style="stroke: #000000"/>
    </g>
   </g>
   <g id="line2d_6">
    <path d="M 157.078618 123.559932 
" clip-path="url(#p7c63772f50)" style="fill: none; stroke: #ff0000; stroke-width: 1.5; stroke-linecap: square"/>
    <defs>
     <path id="m0e63b40154" d="M 0 10 
C 2.652031 10 5.195799 8.946337 7.071068 7.071068 
C 8.946337 5.195799 10 2.652031 10 0 
C 10 -2.652031 8.946337 -5.195799 7.071068 -7.071068 
C 5.195799 -8.946337 2.652031 -10 0 -10 
C -2.652031 -10 -5.195799 -8.946337 -7.071068 -7.071068 
C -8.946337 -5.195799 -10 -2.652031 -10 0 
C -10 2.652031 -8.946337 5.195799 -7.071068 7.071068 
C -5.195799 8.946337 -2.652031 10 0 10 
z
" style="stroke: #000000"/>
    </defs>
    <g clip-path="url(#p7c63772f50)">
     <use xlink:href="#m0e63b40154" x="157.078618" y="123.559932" style="fill: #ff0000; stroke: #000000"/>
    </g>
   </g>
  </g>
 </g>
 <defs>
  <clipPath id="p7c63772f50">
   <rect x="7.2" y="7.2" width="199.838158" height="332.64"/>
  </clipPath>
 </defs>
</svg>
