<?xml version="1.0" encoding="utf-8" standalone="no"?>
<!DOCTYPE svg PUBLIC "-//W3C//DTD SVG 1.1//EN"
  "http://www.w3.org/Graphics/SVG/1.1/DTD/svg11.dtd">
<svg xmlns:xlink="http://www.w3.org/1999/xlink" width="321.540887pt" height="280.474375pt" viewBox="0 0 321.540887 280.474375" xmlns="http://www.w3.org/2000/svg" version="1.1">
 <metadata>
  <rdf:RDF xmlns:dc="http://purl.org/dc/elements/1.1/" xmlns:cc="http://creativecommons.org/ns#" xmlns:rdf="http://www.w3.org/1999/02/22-rdf-syntax-ns#">
   <cc:Work>
    <dc:type rdf:resource="http://purl.org/dc/dcmitype/StillImage"/>
    <dc:date>2025-09-09T10:59:20.149873</dc:date>
    <dc:format>image/svg+xml</dc:format>
    <dc:creator>
     <cc:Agent>
      <dc:title>Matplotlib v3.10.0, https://matplotlib.org/</dc:title>
     </cc:Agent>
    </dc:creator>
   </cc:Work>
  </rdf:RDF>
 </metadata>
 <defs>
  <style type="text/css">*{stroke-linejoin: round; stroke-linecap: butt}</style>
 </defs>
 <g id="figure_1">
  <g id="patch_1">
   <path d="M 0 280.474375 
L 321.540887 280.474375 
L 321.540887 0 
L 0 0 
z
" style="fill: #ffffff"/>
  </g>
  <g id="axes_1">
   <g id="patch_2">
    <path d="M 62.478125 117.022125 
L 272.726774 117.022125 
L 272.726774 22.318125 
L 62.478125 22.318125 
z
" style="fill: #ffffff"/>
   </g>
   <g id="FillBetweenPolyCollection_1">
    <path d="M 72.034882 99754.796335 
L 72.034882 99754.796335 
L 119.300219 99754.796335 
L 141.277349 99754.796335 
L 155.753315 99754.796335 
L 166.565556 99754.796335 
L 175.198964 99754.796335 
L 182.386092 99754.796335 
L 188.542686 99754.796335 
L 193.92755 99754.796335 
L 198.712785 99754.796335 
L 203.018652 99754.796335 
L 206.932509 99754.796335 
L 210.519816 99754.796335 
L 213.830893 99754.796335 
L 216.905255 99754.796335 
L 219.774502 99754.796335 
L 222.464301 99754.796335 
L 224.995782 99754.796335 
L 227.38655 99754.796335 
L 229.651429 99754.796335 
L 231.803016 99754.796335 
L 233.852106 99754.796335 
L 235.808023 99754.796335 
L 237.678873 99754.796335 
L 239.471747 99754.796335 
L 241.192887 99754.796335 
L 242.847813 99754.796335 
L 244.441431 99754.796335 
L 245.978122 99754.796335 
L 247.461812 99754.796335 
L 248.896037 99754.796335 
L 250.283989 99754.796335 
L 251.628559 99754.796335 
L 252.932379 99754.796335 
L 254.197846 99754.796335 
L 255.427151 99754.796335 
L 256.622305 99754.796335 
L 257.785153 99754.796335 
L 258.917396 99754.796335 
L 260.020605 99754.796335 
L 261.09623 99754.796335 
L 262.145618 99754.796335 
L 263.170017 99754.796335 
L 263.170017 99754.796335 
L 263.170017 99754.796335 
L 262.145618 99754.796335 
L 261.09623 99754.796335 
L 260.020605 99754.796335 
L 258.917396 99754.796335 
L 257.785153 99754.796335 
L 256.622305 99754.796335 
L 255.427151 99754.796335 
L 254.197846 99754.796335 
L 252.932379 99754.796335 
L 251.628559 99754.796335 
L 250.283989 99754.796335 
L 248.896037 99754.796335 
L 247.461812 99754.796335 
L 245.978122 99754.796335 
L 244.441431 99754.796335 
L 242.847813 99754.796335 
L 241.192887 99754.796335 
L 239.471747 99754.796335 
L 237.678873 99754.796335 
L 235.808023 99754.796335 
L 233.852106 99754.796335 
L 231.803016 99754.796335 
L 229.651429 99754.796335 
L 227.38655 99754.796335 
L 224.995782 99754.796335 
L 222.464301 99754.796335 
L 219.774502 99754.796335 
L 216.905255 99754.796335 
L 213.830893 99754.796335 
L 210.519816 99754.796335 
L 206.932509 99754.796335 
L 203.018652 99754.796335 
L 198.712785 99754.796335 
L 193.92755 99754.796335 
L 188.542686 99754.796335 
L 182.386092 99754.796335 
L 175.198964 99754.796335 
L 166.565556 99754.796335 
L 155.753315 99754.796335 
L 141.277349 99754.796335 
L 119.300219 99754.796335 
L 72.034882 99754.796335 
z
" clip-path="url(#p945045b6bb)" style="fill: #1f77b4; fill-opacity: 0.3"/>
   </g>
   <g id="matplotlib.axis_1">
    <g id="xtick_1">
     <g id="line2d_1">
      <defs>
       <path id="m9af46f7f01" d="M 0 0 
L 0 3.5 
" style="stroke: #000000; stroke-width: 0.8"/>
      </defs>
      <g>
       <use xlink:href="#m9af46f7f01" x="123.833119" y="117.022125" style="stroke: #000000; stroke-width: 0.8"/>
      </g>
     </g>
     <g id="text_1">
      <!-- $\mathdefault{10^{2}}$ -->
      <g transform="translate(115.033119 131.620563)">
       <text>
        <tspan x="0" y="-0.976562" style="font-size: 10px; font-family: 'DejaVu Sans'">1</tspan>
        <tspan x="6.362305" y="-0.976562" style="font-size: 10px; font-family: 'DejaVu Sans'">0</tspan>
        <tspan x="12.820312" y="-4.804688" style="font-size: 7px; font-family: 'DejaVu Sans'">2</tspan>
       </text>
      </g>
     </g>
    </g>
    <g id="xtick_2">
     <g id="line2d_2">
      <g>
       <use xlink:href="#m9af46f7f01" x="222.896694" y="117.022125" style="stroke: #000000; stroke-width: 0.8"/>
      </g>
     </g>
     <g id="text_2">
      <!-- $\mathdefault{10^{3}}$ -->
      <g transform="translate(214.096694 131.620563)">
       <text>
        <tspan x="0" y="-0.976562" style="font-size: 10px; font-family: 'DejaVu Sans'">1</tspan>
        <tspan x="6.362305" y="-0.976562" style="font-size: 10px; font-family: 'DejaVu Sans'">0</tspan>
        <tspan x="12.820312" y="-4.804688" style="font-size: 7px; font-family: 'DejaVu Sans'">3</tspan>
       </text>
      </g>
     </g>
    </g>
    <g id="xtick_3">
     <g id="line2d_3">
      <defs>
       <path id="m148ec2140c" d="M 0 0 
L 0 2 
" style="stroke: #000000; stroke-width: 0.6"/>
      </defs>
      <g>
       <use xlink:href="#m148ec2140c" x="72.034882" y="117.022125" style="stroke: #000000; stroke-width: 0.6"/>
      </g>
     </g>
    </g>
    <g id="xtick_4">
     <g id="line2d_4">
      <g>
       <use xlink:href="#m148ec2140c" x="84.41176" y="117.022125" style="stroke: #000000; stroke-width: 0.6"/>
      </g>
     </g>
    </g>
    <g id="xtick_5">
     <g id="line2d_5">
      <g>
       <use xlink:href="#m148ec2140c" x="94.012012" y="117.022125" style="stroke: #000000; stroke-width: 0.6"/>
      </g>
     </g>
    </g>
    <g id="xtick_6">
     <g id="line2d_6">
      <g>
       <use xlink:href="#m148ec2140c" x="101.855989" y="117.022125" style="stroke: #000000; stroke-width: 0.6"/>
      </g>
     </g>
    </g>
    <g id="xtick_7">
     <g id="line2d_7">
      <g>
       <use xlink:href="#m148ec2140c" x="108.487977" y="117.022125" style="stroke: #000000; stroke-width: 0.6"/>
      </g>
     </g>
    </g>
    <g id="xtick_8">
     <g id="line2d_8">
      <g>
       <use xlink:href="#m148ec2140c" x="114.232867" y="117.022125" style="stroke: #000000; stroke-width: 0.6"/>
      </g>
     </g>
    </g>
    <g id="xtick_9">
     <g id="line2d_9">
      <g>
       <use xlink:href="#m148ec2140c" x="119.300219" y="117.022125" style="stroke: #000000; stroke-width: 0.6"/>
      </g>
     </g>
    </g>
    <g id="xtick_10">
     <g id="line2d_10">
      <g>
       <use xlink:href="#m148ec2140c" x="153.654227" y="117.022125" style="stroke: #000000; stroke-width: 0.6"/>
      </g>
     </g>
    </g>
    <g id="xtick_11">
     <g id="line2d_11">
      <g>
       <use xlink:href="#m148ec2140c" x="171.098456" y="117.022125" style="stroke: #000000; stroke-width: 0.6"/>
      </g>
     </g>
    </g>
    <g id="xtick_12">
     <g id="line2d_12">
      <g>
       <use xlink:href="#m148ec2140c" x="183.475334" y="117.022125" style="stroke: #000000; stroke-width: 0.6"/>
      </g>
     </g>
    </g>
    <g id="xtick_13">
     <g id="line2d_13">
      <g>
       <use xlink:href="#m148ec2140c" x="193.075587" y="117.022125" style="stroke: #000000; stroke-width: 0.6"/>
      </g>
     </g>
    </g>
    <g id="xtick_14">
     <g id="line2d_14">
      <g>
       <use xlink:href="#m148ec2140c" x="200.919564" y="117.022125" style="stroke: #000000; stroke-width: 0.6"/>
      </g>
     </g>
    </g>
    <g id="xtick_15">
     <g id="line2d_15">
      <g>
       <use xlink:href="#m148ec2140c" x="207.551552" y="117.022125" style="stroke: #000000; stroke-width: 0.6"/>
      </g>
     </g>
    </g>
    <g id="xtick_16">
     <g id="line2d_16">
      <g>
       <use xlink:href="#m148ec2140c" x="213.296442" y="117.022125" style="stroke: #000000; stroke-width: 0.6"/>
      </g>
     </g>
    </g>
    <g id="xtick_17">
     <g id="line2d_17">
      <g>
       <use xlink:href="#m148ec2140c" x="218.363793" y="117.022125" style="stroke: #000000; stroke-width: 0.6"/>
      </g>
     </g>
    </g>
    <g id="xtick_18">
     <g id="line2d_18">
      <g>
       <use xlink:href="#m148ec2140c" x="252.717801" y="117.022125" style="stroke: #000000; stroke-width: 0.6"/>
      </g>
     </g>
    </g>
    <g id="xtick_19">
     <g id="line2d_19">
      <g>
       <use xlink:href="#m148ec2140c" x="270.162031" y="117.022125" style="stroke: #000000; stroke-width: 0.6"/>
      </g>
     </g>
    </g>
   </g>
   <g id="matplotlib.axis_2">
    <g id="ytick_1">
     <g id="line2d_20">
      <defs>
       <path id="me8900f2192" d="M 0 0 
L -2 0 
" style="stroke: #000000; stroke-width: 0.6"/>
      </defs>
      <g>
       <use xlink:href="#me8900f2192" x="62.478125" y="90.759353" style="stroke: #000000; stroke-width: 0.6"/>
      </g>
     </g>
     <g id="text_3">
      <!-- $\mathdefault{2\times10^{1}}$ -->
      <g transform="translate(20.878125 94.558572)">
       <text>
        <tspan x="0" y="-0.064063" style="font-size: 10px; font-family: 'DejaVu Sans'">2</tspan>
        <tspan x="8.310547" y="-0.064063" style="font-size: 10px; font-family: 'DejaVu Sans'">×</tspan>
        <tspan x="18.637695" y="-0.064063" style="font-size: 10px; font-family: 'DejaVu Sans'">1</tspan>
        <tspan x="25" y="-0.064063" style="font-size: 10px; font-family: 'DejaVu Sans'">0</tspan>
        <tspan x="31.458008" y="-3.892188" style="font-size: 7px; font-family: 'DejaVu Sans'">1</tspan>
       </text>
      </g>
     </g>
    </g>
    <g id="ytick_2">
     <g id="line2d_21">
      <g>
       <use xlink:href="#me8900f2192" x="62.478125" y="73.232191" style="stroke: #000000; stroke-width: 0.6"/>
      </g>
     </g>
     <g id="text_4">
      <!-- $\mathdefault{3\times10^{1}}$ -->
      <g transform="translate(20.878125 77.03141)">
       <text>
        <tspan x="0" y="-0.064063" style="font-size: 10px; font-family: 'DejaVu Sans'">3</tspan>
        <tspan x="8.310547" y="-0.064063" style="font-size: 10px; font-family: 'DejaVu Sans'">×</tspan>
        <tspan x="18.637695" y="-0.064063" style="font-size: 10px; font-family: 'DejaVu Sans'">1</tspan>
        <tspan x="25" y="-0.064063" style="font-size: 10px; font-family: 'DejaVu Sans'">0</tspan>
        <tspan x="31.458008" y="-3.892188" style="font-size: 7px; font-family: 'DejaVu Sans'">1</tspan>
       </text>
      </g>
     </g>
    </g>
    <g id="ytick_3">
     <g id="line2d_22">
      <g>
       <use xlink:href="#me8900f2192" x="62.478125" y="60.796471" style="stroke: #000000; stroke-width: 0.6"/>
      </g>
     </g>
     <g id="text_5">
      <!-- $\mathdefault{4\times10^{1}}$ -->
      <g transform="translate(20.878125 64.59569)">
       <text>
        <tspan x="0" y="-0.064063" style="font-size: 10px; font-family: 'DejaVu Sans'">4</tspan>
        <tspan x="8.310547" y="-0.064063" style="font-size: 10px; font-family: 'DejaVu Sans'">×</tspan>
        <tspan x="18.637695" y="-0.064063" style="font-size: 10px; font-family: 'DejaVu Sans'">1</tspan>
        <tspan x="25" y="-0.064063" style="font-size: 10px; font-family: 'DejaVu Sans'">0</tspan>
        <tspan x="31.458008" y="-3.892188" style="font-size: 7px; font-family: 'DejaVu Sans'">1</tspan>
       </text>
      </g>
     </g>
    </g>
    <g id="ytick_4">
     <g id="line2d_23">
      <g>
       <use xlink:href="#me8900f2192" x="62.478125" y="51.150578" style="stroke: #000000; stroke-width: 0.6"/>
      </g>
     </g>
    </g>
    <g id="ytick_5">
     <g id="line2d_24">
      <g>
       <use xlink:href="#me8900f2192" x="62.478125" y="43.269309" style="stroke: #000000; stroke-width: 0.6"/>
      </g>
     </g>
     <g id="text_6">
      <!-- $\mathdefault{6\times10^{1}}$ -->
      <g transform="translate(20.878125 47.068528)">
       <text>
        <tspan x="0" y="-0.064063" style="font-size: 10px; font-family: 'DejaVu Sans'">6</tspan>
        <tspan x="8.310547" y="-0.064063" style="font-size: 10px; font-family: 'DejaVu Sans'">×</tspan>
        <tspan x="18.637695" y="-0.064063" style="font-size: 10px; font-family: 'DejaVu Sans'">1</tspan>
        <tspan x="25" y="-0.064063" style="font-size: 10px; font-family: 'DejaVu Sans'">0</tspan>
        <tspan x="31.458008" y="-3.892188" style="font-size: 7px; font-family: 'DejaVu Sans'">1</tspan>
       </text>
      </g>
     </g>
    </g>
    <g id="ytick_6">
     <g id="line2d_25">
      <g>
       <use xlink:href="#me8900f2192" x="62.478125" y="36.605791" style="stroke: #000000; stroke-width: 0.6"/>
      </g>
     </g>
    </g>
    <g id="ytick_7">
     <g id="line2d_26">
      <g>
       <use xlink:href="#me8900f2192" x="62.478125" y="30.833589" style="stroke: #000000; stroke-width: 0.6"/>
      </g>
     </g>
    </g>
    <g id="ytick_8">
     <g id="line2d_27">
      <g>
       <use xlink:href="#me8900f2192" x="62.478125" y="25.742146" style="stroke: #000000; stroke-width: 0.6"/>
      </g>
     </g>
    </g>
    <g id="text_7">
     <text style="font-size: 10px; font-family: 'DejaVu Sans', 'Bitstream Vera Sans', 'Computer Modern Sans Serif', 'Lucida Grande', 'Verdana', 'Geneva', 'Lucid', 'Arial', 'Helvetica', 'Avant Garde', sans-serif; text-anchor: middle" x="14.798438" y="69.670125" transform="rotate(-90 14.798438 69.670125)">Reward</text>
    </g>
   </g>
   <g id="line2d_28">
    <path d="M 72.034882 26.622852 
L 119.300219 28.04342 
L 141.277349 29.34637 
L 155.753315 31.887096 
L 166.565556 33.602521 
L 175.198964 36.014369 
L 182.386092 37.702017 
L 188.542686 40.844259 
L 193.92755 43.096264 
L 198.712785 46.397118 
L 203.018652 49.792731 
L 206.932509 52.429957 
L 210.519816 55.418436 
L 213.830893 58.714396 
L 216.905255 62.190515 
L 219.774502 64.90059 
L 222.464301 68.019583 
L 224.995782 71.437076 
L 227.38655 73.835032 
L 229.651429 76.086665 
L 231.803016 78.528631 
L 233.852106 82.570116 
L 235.808023 84.850442 
L 237.678873 87.015111 
L 239.471747 88.789835 
L 241.192887 91.268027 
L 242.847813 93.596692 
L 244.441431 94.953627 
L 245.978122 97.277098 
L 247.461812 98.866801 
L 248.896037 100.450936 
L 250.283989 101.954763 
L 251.628559 103.153843 
L 252.932379 104.470375 
L 254.197846 105.510612 
L 255.427151 106.561716 
L 256.622305 108.291171 
L 257.785153 108.912914 
L 258.917396 109.875144 
L 260.020605 111.150621 
L 261.09623 111.431448 
L 262.145618 111.922246 
L 263.170017 112.717398 
" clip-path="url(#p945045b6bb)" style="fill: none; stroke: #1f77b4; stroke-width: 1.5; stroke-linecap: square"/>
   </g>
   <g id="patch_3">
    <path d="M 62.478125 117.022125 
L 62.478125 22.318125 
" style="fill: none; stroke: #000000; stroke-width: 0.8; stroke-linejoin: miter; stroke-linecap: square"/>
   </g>
   <g id="patch_4">
    <path d="M 272.726774 117.022125 
L 272.726774 22.318125 
" style="fill: none; stroke: #000000; stroke-width: 0.8; stroke-linejoin: miter; stroke-linecap: square"/>
   </g>
   <g id="patch_5">
    <path d="M 62.478125 117.022125 
L 272.726774 117.022125 
" style="fill: none; stroke: #000000; stroke-width: 0.8; stroke-linejoin: miter; stroke-linecap: square"/>
   </g>
   <g id="patch_6">
    <path d="M 62.478125 22.318125 
L 272.726774 22.318125 
" style="fill: none; stroke: #000000; stroke-width: 0.8; stroke-linejoin: miter; stroke-linecap: square"/>
   </g>
   <g id="text_8">
    <text style="font-size: 12px; font-family: 'DejaVu Sans', 'Bitstream Vera Sans', 'Computer Modern Sans Serif', 'Lucida Grande', 'Verdana', 'Geneva', 'Lucid', 'Arial', 'Helvetica', 'Avant Garde', sans-serif; text-anchor: middle" x="167.60245" y="16.318125" transform="rotate(-0 167.60245 16.318125)">Learning performance (average of multiple runs)</text>
   </g>
  </g>
  <g id="axes_2">
   <g id="patch_7">
    <path d="M 62.478125 242.918125 
L 272.726774 242.918125 
L 272.726774 148.214125 
L 62.478125 148.214125 
z
" style="fill: #ffffff"/>
   </g>
   <g id="FillBetweenPolyCollection_2">
    <path d="M 72.034882 152.308629 
L 72.034882 169.138915 
L 76.585718 172.403863 
L 81.136555 175.425817 
L 85.687391 180.410458 
L 90.238228 183.46024 
L 94.789065 187.148839 
L 99.339901 189.99829 
L 103.890738 194.318844 
L 108.441574 197.064475 
L 112.992411 201.163087 
L 117.543247 205.523738 
L 122.094084 207.198232 
L 126.644921 209.998746 
L 131.195757 212.501667 
L 135.746594 215.18198 
L 140.29743 216.696047 
L 144.848267 218.808609 
L 149.399103 220.813537 
L 153.94994 222.059058 
L 158.500776 223.238842 
L 163.051613 224.178829 
L 167.60245 225.991714 
L 172.153286 226.727442 
L 176.704123 227.231885 
L 181.254959 228.023639 
L 185.805796 228.797614 
L 190.356632 229.38416 
L 194.907469 229.953813 
L 199.458306 230.488443 
L 204.009142 230.966272 
L 208.559979 231.289499 
L 213.110815 231.594575 
L 217.661652 231.58764 
L 222.212488 232.125631 
L 226.763325 232.270582 
L 231.314161 232.646337 
L 235.864998 233.02679 
L 240.415835 233.117871 
L 244.966671 233.314793 
L 249.517508 233.844979 
L 254.068344 233.75647 
L 258.619181 233.954129 
L 263.170017 234.1987 
L 263.170017 229.203875 
L 263.170017 229.203875 
L 258.619181 229.031968 
L 254.068344 228.96871 
L 249.517508 228.72957 
L 244.966671 228.563164 
L 240.415835 228.220799 
L 235.864998 227.956984 
L 231.314161 227.32297 
L 226.763325 227.062042 
L 222.212488 226.561465 
L 217.661652 226.25988 
L 213.110815 225.465699 
L 208.559979 224.752076 
L 204.009142 223.963174 
L 199.458306 223.283234 
L 194.907469 222.04723 
L 190.356632 221.537927 
L 185.805796 220.192056 
L 181.254959 218.791917 
L 176.704123 217.948312 
L 172.153286 216.365006 
L 167.60245 214.785382 
L 163.051613 212.182297 
L 158.500776 210.246919 
L 153.94994 208.627593 
L 149.399103 206.727342 
L 144.848267 203.936438 
L 140.29743 201.328509 
L 135.746594 198.455121 
L 131.195757 195.089723 
L 126.644921 191.393358 
L 122.094084 188.149371 
L 117.543247 184.131426 
L 112.992411 180.632142 
L 108.441574 176.474945 
L 103.890738 173.215194 
L 99.339901 168.615959 
L 94.789065 166.40027 
L 90.238228 162.498177 
L 85.687391 159.885458 
L 81.136555 156.059435 
L 76.585718 154.358142 
L 72.034882 152.308629 
z
" clip-path="url(#pbb14c915ea)" style="fill: #1f77b4; fill-opacity: 0.3"/>
   </g>
   <g id="matplotlib.axis_3">
    <g id="xtick_20">
     <g id="line2d_29">
      <g>
       <use xlink:href="#m9af46f7f01" x="69.759464" y="242.918125" style="stroke: #000000; stroke-width: 0.8"/>
      </g>
     </g>
     <g id="text_9">
      <text style="font-size: 10px; font-family: 'DejaVu Sans', 'Bitstream Vera Sans', 'Computer Modern Sans Serif', 'Lucida Grande', 'Verdana', 'Geneva', 'Lucid', 'Arial', 'Helvetica', 'Avant Garde', sans-serif; text-anchor: middle" x="69.759464" y="257.516563" transform="rotate(-0 69.759464 257.516563)">0</text>
     </g>
    </g>
    <g id="xtick_21">
     <g id="line2d_30">
      <g>
       <use xlink:href="#m9af46f7f01" x="107.683102" y="242.918125" style="stroke: #000000; stroke-width: 0.8"/>
      </g>
     </g>
     <g id="text_10">
      <text style="font-size: 10px; font-family: 'DejaVu Sans', 'Bitstream Vera Sans', 'Computer Modern Sans Serif', 'Lucida Grande', 'Verdana', 'Geneva', 'Lucid', 'Arial', 'Helvetica', 'Avant Garde', sans-serif; text-anchor: middle" x="107.683102" y="257.516563" transform="rotate(-0 107.683102 257.516563)">500</text>
     </g>
    </g>
    <g id="xtick_22">
     <g id="line2d_31">
      <g>
       <use xlink:href="#m9af46f7f01" x="145.60674" y="242.918125" style="stroke: #000000; stroke-width: 0.8"/>
      </g>
     </g>
     <g id="text_11">
      <text style="font-size: 10px; font-family: 'DejaVu Sans', 'Bitstream Vera Sans', 'Computer Modern Sans Serif', 'Lucida Grande', 'Verdana', 'Geneva', 'Lucid', 'Arial', 'Helvetica', 'Avant Garde', sans-serif; text-anchor: middle" x="145.60674" y="257.516563" transform="rotate(-0 145.60674 257.516563)">1000</text>
     </g>
    </g>
    <g id="xtick_23">
     <g id="line2d_32">
      <g>
       <use xlink:href="#m9af46f7f01" x="183.530378" y="242.918125" style="stroke: #000000; stroke-width: 0.8"/>
      </g>
     </g>
     <g id="text_12">
      <text style="font-size: 10px; font-family: 'DejaVu Sans', 'Bitstream Vera Sans', 'Computer Modern Sans Serif', 'Lucida Grande', 'Verdana', 'Geneva', 'Lucid', 'Arial', 'Helvetica', 'Avant Garde', sans-serif; text-anchor: middle" x="183.530378" y="257.516563" transform="rotate(-0 183.530378 257.516563)">1500</text>
     </g>
    </g>
    <g id="xtick_24">
     <g id="line2d_33">
      <g>
       <use xlink:href="#m9af46f7f01" x="221.454016" y="242.918125" style="stroke: #000000; stroke-width: 0.8"/>
      </g>
     </g>
     <g id="text_13">
      <text style="font-size: 10px; font-family: 'DejaVu Sans', 'Bitstream Vera Sans', 'Computer Modern Sans Serif', 'Lucida Grande', 'Verdana', 'Geneva', 'Lucid', 'Arial', 'Helvetica', 'Avant Garde', sans-serif; text-anchor: middle" x="221.454016" y="257.516563" transform="rotate(-0 221.454016 257.516563)">2000</text>
     </g>
    </g>
    <g id="xtick_25">
     <g id="line2d_34">
      <g>
       <use xlink:href="#m9af46f7f01" x="259.377654" y="242.918125" style="stroke: #000000; stroke-width: 0.8"/>
      </g>
     </g>
     <g id="text_14">
      <text style="font-size: 10px; font-family: 'DejaVu Sans', 'Bitstream Vera Sans', 'Computer Modern Sans Serif', 'Lucida Grande', 'Verdana', 'Geneva', 'Lucid', 'Arial', 'Helvetica', 'Avant Garde', sans-serif; text-anchor: middle" x="259.377654" y="257.516563" transform="rotate(-0 259.377654 257.516563)">2500</text>
     </g>
    </g>
    <g id="text_15">
     <text style="font-size: 10px; font-family: 'DejaVu Sans', 'Bitstream Vera Sans', 'Computer Modern Sans Serif', 'Lucida Grande', 'Verdana', 'Geneva', 'Lucid', 'Arial', 'Helvetica', 'Avant Garde', sans-serif; text-anchor: middle" x="167.60245" y="271.194687" transform="rotate(-0 167.60245 271.194687)">Trial</text>
    </g>
   </g>
   <g id="matplotlib.axis_4">
    <g id="ytick_9">
     <g id="line2d_35">
      <defs>
       <path id="m26172bdf3f" d="M 0 0 
L -3.5 0 
" style="stroke: #000000; stroke-width: 0.8"/>
      </defs>
      <g>
       <use xlink:href="#m26172bdf3f" x="62.478125" y="242.918125" style="stroke: #000000; stroke-width: 0.8"/>
      </g>
     </g>
     <g id="text_16">
      <text style="font-size: 10px; font-family: 'DejaVu Sans', 'Bitstream Vera Sans', 'Computer Modern Sans Serif', 'Lucida Grande', 'Verdana', 'Geneva', 'Lucid', 'Arial', 'Helvetica', 'Avant Garde', sans-serif; text-anchor: end" x="55.478125" y="246.717344" transform="rotate(-0 55.478125 246.717344)">0</text>
     </g>
    </g>
    <g id="ytick_10">
     <g id="line2d_36">
      <g>
       <use xlink:href="#m26172bdf3f" x="62.478125" y="214.956077" style="stroke: #000000; stroke-width: 0.8"/>
      </g>
     </g>
     <g id="text_17">
      <text style="font-size: 10px; font-family: 'DejaVu Sans', 'Bitstream Vera Sans', 'Computer Modern Sans Serif', 'Lucida Grande', 'Verdana', 'Geneva', 'Lucid', 'Arial', 'Helvetica', 'Avant Garde', sans-serif; text-anchor: end" x="55.478125" y="218.755296" transform="rotate(-0 55.478125 218.755296)">30</text>
     </g>
    </g>
    <g id="ytick_11">
     <g id="line2d_37">
      <g>
       <use xlink:href="#m26172bdf3f" x="62.478125" y="186.99403" style="stroke: #000000; stroke-width: 0.8"/>
      </g>
     </g>
     <g id="text_18">
      <text style="font-size: 10px; font-family: 'DejaVu Sans', 'Bitstream Vera Sans', 'Computer Modern Sans Serif', 'Lucida Grande', 'Verdana', 'Geneva', 'Lucid', 'Arial', 'Helvetica', 'Avant Garde', sans-serif; text-anchor: end" x="55.478125" y="190.793248" transform="rotate(-0 55.478125 190.793248)">60</text>
     </g>
    </g>
    <g id="ytick_12">
     <g id="line2d_38">
      <g>
       <use xlink:href="#m26172bdf3f" x="62.478125" y="159.031982" style="stroke: #000000; stroke-width: 0.8"/>
      </g>
     </g>
     <g id="text_19">
      <text style="font-size: 10px; font-family: 'DejaVu Sans', 'Bitstream Vera Sans', 'Computer Modern Sans Serif', 'Lucida Grande', 'Verdana', 'Geneva', 'Lucid', 'Arial', 'Helvetica', 'Avant Garde', sans-serif; text-anchor: end" x="55.478125" y="162.831201" transform="rotate(-0 55.478125 162.831201)">90</text>
     </g>
    </g>
    <g id="text_20">
     <text style="font-size: 10px; font-family: 'DejaVu Sans', 'Bitstream Vera Sans', 'Computer Modern Sans Serif', 'Lucida Grande', 'Verdana', 'Geneva', 'Lucid', 'Arial', 'Helvetica', 'Avant Garde', sans-serif; text-anchor: middle" x="36.673438" y="195.566125" transform="rotate(-90 36.673438 195.566125)">Directional Error (deg)</text>
    </g>
   </g>
   <g id="line2d_39">
    <path d="M 72.034882 160.723772 
L 76.585718 163.381003 
L 81.136555 165.742626 
L 85.687391 170.147958 
L 90.238228 172.979209 
L 94.789065 176.774555 
L 99.339901 179.307124 
L 103.890738 183.767019 
L 108.441574 186.76971 
L 112.992411 190.897614 
L 117.543247 194.827582 
L 122.094084 197.673801 
L 126.644921 200.696052 
L 131.195757 203.795695 
L 135.746594 206.81855 
L 140.29743 209.012278 
L 144.848267 211.372524 
L 149.399103 213.77044 
L 153.94994 215.343325 
L 158.500776 216.742881 
L 163.051613 218.180563 
L 167.60245 220.388548 
L 172.153286 221.546224 
L 176.704123 222.590098 
L 181.254959 223.407778 
L 185.805796 224.494835 
L 190.356632 225.461043 
L 194.907469 226.000522 
L 199.458306 226.885838 
L 204.009142 227.464723 
L 208.559979 228.020787 
L 213.110815 228.530137 
L 217.661652 228.92376 
L 222.212488 229.343548 
L 226.763325 229.666312 
L 231.314161 229.984654 
L 235.864998 230.491887 
L 240.415835 230.669335 
L 244.966671 230.938978 
L 249.517508 231.287275 
L 254.068344 231.36259 
L 258.619181 231.493048 
L 263.170017 231.701288 
" clip-path="url(#pbb14c915ea)" style="fill: none; stroke: #1f77b4; stroke-width: 1.5; stroke-linecap: square"/>
   </g>
   <g id="patch_8">
    <path d="M 62.478125 242.918125 
L 62.478125 148.214125 
" style="fill: none; stroke: #000000; stroke-width: 0.8; stroke-linejoin: miter; stroke-linecap: square"/>
   </g>
   <g id="patch_9">
    <path d="M 272.726774 242.918125 
L 272.726774 148.214125 
" style="fill: none; stroke: #000000; stroke-width: 0.8; stroke-linejoin: miter; stroke-linecap: square"/>
   </g>
   <g id="patch_10">
    <path d="M 62.478125 242.918125 
L 272.726774 242.918125 
" style="fill: none; stroke: #000000; stroke-width: 0.8; stroke-linejoin: miter; stroke-linecap: square"/>
   </g>
   <g id="patch_11">
    <path d="M 62.478125 148.214125 
L 272.726774 148.214125 
" style="fill: none; stroke: #000000; stroke-width: 0.8; stroke-linejoin: miter; stroke-linecap: square"/>
   </g>
  </g>
 </g>
 <defs>
  <clipPath id="p945045b6bb">
   <rect x="62.478125" y="22.318125" width="210.248649" height="94.704"/>
  </clipPath>
  <clipPath id="pbb14c915ea">
   <rect x="62.478125" y="148.214125" width="210.248649" height="94.704"/>
  </clipPath>
 </defs>
</svg>
