<?xml version="1.0" encoding="utf-8" standalone="no"?>
<!DOCTYPE svg PUBLIC "-//W3C//DTD SVG 1.1//EN"
  "http://www.w3.org/Graphics/SVG/1.1/DTD/svg11.dtd">
<svg xmlns:xlink="http://www.w3.org/1999/xlink" width="319.188364pt" height="280.474375pt" viewBox="0 0 319.188364 280.474375" xmlns="http://www.w3.org/2000/svg" version="1.1">
 <metadata>
  <rdf:RDF xmlns:dc="http://purl.org/dc/elements/1.1/" xmlns:cc="http://creativecommons.org/ns#" xmlns:rdf="http://www.w3.org/1999/02/22-rdf-syntax-ns#">
   <cc:Work>
    <dc:type rdf:resource="http://purl.org/dc/dcmitype/StillImage"/>
    <dc:date>2025-09-17T17:48:06.695660</dc:date>
    <dc:format>image/svg+xml</dc:format>
    <dc:creator>
     <cc:Agent>
      <dc:title>Matplotlib v3.10.0, https://matplotlib.org/</dc:title>
     </cc:Agent>
    </dc:creator>
   </cc:Work>
  </rdf:RDF>
 </metadata>
 <defs>
  <style type="text/css">*{stroke-linejoin: round; stroke-linecap: butt}</style>
 </defs>
 <g id="figure_1">
  <g id="patch_1">
   <path d="M 0 280.474375 
L 319.188364 280.474375 
L 319.188364 0 
L 0 0 
z
" style="fill: #ffffff"/>
  </g>
  <g id="axes_1">
   <g id="patch_2">
    <path d="M 62.478125 117.022125 
L 268.021728 117.022125 
L 268.021728 22.318125 
L 62.478125 22.318125 
z
" style="fill: #ffffff"/>
   </g>
   <g id="FillBetweenPolyCollection_1">
    <path d="M 71.821016 103464.587688 
L 71.821016 103464.587688 
L 116.495433 103464.587688 
L 137.267853 103464.587688 
L 150.950297 103464.587688 
L 161.169849 103464.587688 
L 169.330004 103464.587688 
L 176.123159 103464.587688 
L 181.94227 103464.587688 
L 187.031955 103464.587688 
L 191.554879 103464.587688 
L 195.624714 103464.587688 
L 199.324027 103464.587688 
L 202.714691 103464.587688 
L 205.844266 103464.587688 
L 208.750102 103464.587688 
L 211.462067 103464.587688 
L 214.00442 103464.587688 
L 216.397134 103464.587688 
L 218.656849 103464.587688 
L 220.797575 103464.587688 
L 222.83122 103464.587688 
L 224.767986 103464.587688 
L 226.616686 103464.587688 
L 228.384983 103464.587688 
L 230.079578 103464.587688 
L 231.706371 103464.587688 
L 233.27058 103464.587688 
L 234.776841 103464.587688 
L 236.229296 103464.587688 
L 237.631656 103464.587688 
L 238.987261 103464.587688 
L 240.29913 103464.587688 
L 241.569996 103464.587688 
L 242.802345 103464.587688 
L 243.998443 103464.587688 
L 245.160363 103464.587688 
L 246.290002 103464.587688 
L 247.389107 103464.587688 
L 248.459285 103464.587688 
L 249.502019 103464.587688 
L 250.518682 103464.587688 
L 251.510546 103464.587688 
L 252.478792 103464.587688 
L 253.424518 103464.587688 
L 254.348749 103464.587688 
L 255.25244 103464.587688 
L 256.136484 103464.587688 
L 257.001716 103464.587688 
L 257.848922 103464.587688 
L 258.678837 103464.587688 
L 258.678837 103464.587688 
L 258.678837 103464.587688 
L 257.848922 103464.587688 
L 257.001716 103464.587688 
L 256.136484 103464.587688 
L 255.25244 103464.587688 
L 254.348749 103464.587688 
L 253.424518 103464.587688 
L 252.478792 103464.587688 
L 251.510546 103464.587688 
L 250.518682 103464.587688 
L 249.502019 103464.587688 
L 248.459285 103464.587688 
L 247.389107 103464.587688 
L 246.290002 103464.587688 
L 245.160363 103464.587688 
L 243.998443 103464.587688 
L 242.802345 103464.587688 
L 241.569996 103464.587688 
L 240.29913 103464.587688 
L 238.987261 103464.587688 
L 237.631656 103464.587688 
L 236.229296 103464.587688 
L 234.776841 103464.587688 
L 233.27058 103464.587688 
L 231.706371 103464.587688 
L 230.079578 103464.587688 
L 228.384983 103464.587688 
L 226.616686 103464.587688 
L 224.767986 103464.587688 
L 222.83122 103464.587688 
L 220.797575 103464.587688 
L 218.656849 103464.587688 
L 216.397134 103464.587688 
L 214.00442 103464.587688 
L 211.462067 103464.587688 
L 208.750102 103464.587688 
L 205.844266 103464.587688 
L 202.714691 103464.587688 
L 199.324027 103464.587688 
L 195.624714 103464.587688 
L 191.554879 103464.587688 
L 187.031955 103464.587688 
L 181.94227 103464.587688 
L 176.123159 103464.587688 
L 169.330004 103464.587688 
L 161.169849 103464.587688 
L 150.950297 103464.587688 
L 137.267853 103464.587688 
L 116.495433 103464.587688 
L 71.821016 103464.587688 
z
" clip-path="url(#p3127e25fe3)" style="fill: #1f77b4; fill-opacity: 0.3"/>
   </g>
   <g id="matplotlib.axis_1">
    <g id="xtick_1">
     <g id="line2d_1">
      <defs>
       <path id="m1d1d65a1f8" d="M 0 0 
L 0 3.5 
" style="stroke: #000000; stroke-width: 0.8"/>
      </defs>
      <g>
       <use xlink:href="#m1d1d65a1f8" x="120.779855" y="117.022125" style="stroke: #000000; stroke-width: 0.8"/>
      </g>
     </g>
     <g id="text_1">
      <!-- $\mathdefault{10^{2}}$ -->
      <g transform="translate(111.979855 131.620563)">
       <text>
        <tspan x="0" y="-0.976562" style="font-size: 10px; font-family: 'DejaVu Sans'">1</tspan>
        <tspan x="6.362305" y="-0.976562" style="font-size: 10px; font-family: 'DejaVu Sans'">0</tspan>
        <tspan x="12.820312" y="-4.804688" style="font-size: 7px; font-family: 'DejaVu Sans'">2</tspan>
       </text>
      </g>
     </g>
    </g>
    <g id="xtick_2">
     <g id="line2d_2">
      <g>
       <use xlink:href="#m1d1d65a1f8" x="214.413111" y="117.022125" style="stroke: #000000; stroke-width: 0.8"/>
      </g>
     </g>
     <g id="text_2">
      <!-- $\mathdefault{10^{3}}$ -->
      <g transform="translate(205.613111 131.620563)">
       <text>
        <tspan x="0" y="-0.976562" style="font-size: 10px; font-family: 'DejaVu Sans'">1</tspan>
        <tspan x="6.362305" y="-0.976562" style="font-size: 10px; font-family: 'DejaVu Sans'">0</tspan>
        <tspan x="12.820312" y="-4.804688" style="font-size: 7px; font-family: 'DejaVu Sans'">3</tspan>
       </text>
      </g>
     </g>
    </g>
    <g id="xtick_3">
     <g id="line2d_3">
      <defs>
       <path id="mcc2f5e2043" d="M 0 0 
L 0 2 
" style="stroke: #000000; stroke-width: 0.6"/>
      </defs>
      <g>
       <use xlink:href="#mcc2f5e2043" x="71.821016" y="117.022125" style="stroke: #000000; stroke-width: 0.6"/>
      </g>
     </g>
    </g>
    <g id="xtick_4">
     <g id="line2d_4">
      <g>
       <use xlink:href="#mcc2f5e2043" x="83.519437" y="117.022125" style="stroke: #000000; stroke-width: 0.6"/>
      </g>
     </g>
    </g>
    <g id="xtick_5">
     <g id="line2d_5">
      <g>
       <use xlink:href="#mcc2f5e2043" x="92.593437" y="117.022125" style="stroke: #000000; stroke-width: 0.6"/>
      </g>
     </g>
    </g>
    <g id="xtick_6">
     <g id="line2d_6">
      <g>
       <use xlink:href="#mcc2f5e2043" x="100.007435" y="117.022125" style="stroke: #000000; stroke-width: 0.6"/>
      </g>
     </g>
    </g>
    <g id="xtick_7">
     <g id="line2d_7">
      <g>
       <use xlink:href="#mcc2f5e2043" x="106.275881" y="117.022125" style="stroke: #000000; stroke-width: 0.6"/>
      </g>
     </g>
    </g>
    <g id="xtick_8">
     <g id="line2d_8">
      <g>
       <use xlink:href="#mcc2f5e2043" x="111.705855" y="117.022125" style="stroke: #000000; stroke-width: 0.6"/>
      </g>
     </g>
    </g>
    <g id="xtick_9">
     <g id="line2d_9">
      <g>
       <use xlink:href="#mcc2f5e2043" x="116.495433" y="117.022125" style="stroke: #000000; stroke-width: 0.6"/>
      </g>
     </g>
    </g>
    <g id="xtick_10">
     <g id="line2d_10">
      <g>
       <use xlink:href="#mcc2f5e2043" x="148.966274" y="117.022125" style="stroke: #000000; stroke-width: 0.6"/>
      </g>
     </g>
    </g>
    <g id="xtick_11">
     <g id="line2d_11">
      <g>
       <use xlink:href="#mcc2f5e2043" x="165.454272" y="117.022125" style="stroke: #000000; stroke-width: 0.6"/>
      </g>
     </g>
    </g>
    <g id="xtick_12">
     <g id="line2d_12">
      <g>
       <use xlink:href="#mcc2f5e2043" x="177.152693" y="117.022125" style="stroke: #000000; stroke-width: 0.6"/>
      </g>
     </g>
    </g>
    <g id="xtick_13">
     <g id="line2d_13">
      <g>
       <use xlink:href="#mcc2f5e2043" x="186.226693" y="117.022125" style="stroke: #000000; stroke-width: 0.6"/>
      </g>
     </g>
    </g>
    <g id="xtick_14">
     <g id="line2d_14">
      <g>
       <use xlink:href="#mcc2f5e2043" x="193.64069" y="117.022125" style="stroke: #000000; stroke-width: 0.6"/>
      </g>
     </g>
    </g>
    <g id="xtick_15">
     <g id="line2d_15">
      <g>
       <use xlink:href="#mcc2f5e2043" x="199.909136" y="117.022125" style="stroke: #000000; stroke-width: 0.6"/>
      </g>
     </g>
    </g>
    <g id="xtick_16">
     <g id="line2d_16">
      <g>
       <use xlink:href="#mcc2f5e2043" x="205.339111" y="117.022125" style="stroke: #000000; stroke-width: 0.6"/>
      </g>
     </g>
    </g>
    <g id="xtick_17">
     <g id="line2d_17">
      <g>
       <use xlink:href="#mcc2f5e2043" x="210.128688" y="117.022125" style="stroke: #000000; stroke-width: 0.6"/>
      </g>
     </g>
    </g>
    <g id="xtick_18">
     <g id="line2d_18">
      <g>
       <use xlink:href="#mcc2f5e2043" x="242.59953" y="117.022125" style="stroke: #000000; stroke-width: 0.6"/>
      </g>
     </g>
    </g>
    <g id="xtick_19">
     <g id="line2d_19">
      <g>
       <use xlink:href="#mcc2f5e2043" x="259.087528" y="117.022125" style="stroke: #000000; stroke-width: 0.6"/>
      </g>
     </g>
    </g>
   </g>
   <g id="matplotlib.axis_2">
    <g id="ytick_1">
     <g id="line2d_20">
      <defs>
       <path id="m1e47d9c0ca" d="M 0 0 
L -2 0 
" style="stroke: #000000; stroke-width: 0.6"/>
      </defs>
      <g>
       <use xlink:href="#m1e47d9c0ca" x="62.478125" y="92.708158" style="stroke: #000000; stroke-width: 0.6"/>
      </g>
     </g>
     <g id="text_3">
      <!-- $\mathdefault{2\times10^{1}}$ -->
      <g transform="translate(20.878125 96.507377)">
       <text>
        <tspan x="0" y="-0.064063" style="font-size: 10px; font-family: 'DejaVu Sans'">2</tspan>
        <tspan x="8.310547" y="-0.064063" style="font-size: 10px; font-family: 'DejaVu Sans'">×</tspan>
        <tspan x="18.637695" y="-0.064063" style="font-size: 10px; font-family: 'DejaVu Sans'">1</tspan>
        <tspan x="25" y="-0.064063" style="font-size: 10px; font-family: 'DejaVu Sans'">0</tspan>
        <tspan x="31.458008" y="-3.892188" style="font-size: 7px; font-family: 'DejaVu Sans'">1</tspan>
       </text>
      </g>
     </g>
    </g>
    <g id="ytick_2">
     <g id="line2d_21">
      <g>
       <use xlink:href="#m1e47d9c0ca" x="62.478125" y="74.528925" style="stroke: #000000; stroke-width: 0.6"/>
      </g>
     </g>
     <g id="text_4">
      <!-- $\mathdefault{3\times10^{1}}$ -->
      <g transform="translate(20.878125 78.328144)">
       <text>
        <tspan x="0" y="-0.064063" style="font-size: 10px; font-family: 'DejaVu Sans'">3</tspan>
        <tspan x="8.310547" y="-0.064063" style="font-size: 10px; font-family: 'DejaVu Sans'">×</tspan>
        <tspan x="18.637695" y="-0.064063" style="font-size: 10px; font-family: 'DejaVu Sans'">1</tspan>
        <tspan x="25" y="-0.064063" style="font-size: 10px; font-family: 'DejaVu Sans'">0</tspan>
        <tspan x="31.458008" y="-3.892188" style="font-size: 7px; font-family: 'DejaVu Sans'">1</tspan>
       </text>
      </g>
     </g>
    </g>
    <g id="ytick_3">
     <g id="line2d_22">
      <g>
       <use xlink:href="#m1e47d9c0ca" x="62.478125" y="61.630555" style="stroke: #000000; stroke-width: 0.6"/>
      </g>
     </g>
     <g id="text_5">
      <!-- $\mathdefault{4\times10^{1}}$ -->
      <g transform="translate(20.878125 65.429773)">
       <text>
        <tspan x="0" y="-0.064063" style="font-size: 10px; font-family: 'DejaVu Sans'">4</tspan>
        <tspan x="8.310547" y="-0.064063" style="font-size: 10px; font-family: 'DejaVu Sans'">×</tspan>
        <tspan x="18.637695" y="-0.064063" style="font-size: 10px; font-family: 'DejaVu Sans'">1</tspan>
        <tspan x="25" y="-0.064063" style="font-size: 10px; font-family: 'DejaVu Sans'">0</tspan>
        <tspan x="31.458008" y="-3.892188" style="font-size: 7px; font-family: 'DejaVu Sans'">1</tspan>
       </text>
      </g>
     </g>
    </g>
    <g id="ytick_4">
     <g id="line2d_23">
      <g>
       <use xlink:href="#m1e47d9c0ca" x="62.478125" y="51.625801" style="stroke: #000000; stroke-width: 0.6"/>
      </g>
     </g>
    </g>
    <g id="ytick_5">
     <g id="line2d_24">
      <g>
       <use xlink:href="#m1e47d9c0ca" x="62.478125" y="43.451322" style="stroke: #000000; stroke-width: 0.6"/>
      </g>
     </g>
     <g id="text_6">
      <!-- $\mathdefault{6\times10^{1}}$ -->
      <g transform="translate(20.878125 47.250541)">
       <text>
        <tspan x="0" y="-0.064063" style="font-size: 10px; font-family: 'DejaVu Sans'">6</tspan>
        <tspan x="8.310547" y="-0.064063" style="font-size: 10px; font-family: 'DejaVu Sans'">×</tspan>
        <tspan x="18.637695" y="-0.064063" style="font-size: 10px; font-family: 'DejaVu Sans'">1</tspan>
        <tspan x="25" y="-0.064063" style="font-size: 10px; font-family: 'DejaVu Sans'">0</tspan>
        <tspan x="31.458008" y="-3.892188" style="font-size: 7px; font-family: 'DejaVu Sans'">1</tspan>
       </text>
      </g>
     </g>
    </g>
    <g id="ytick_6">
     <g id="line2d_25">
      <g>
       <use xlink:href="#m1e47d9c0ca" x="62.478125" y="36.539898" style="stroke: #000000; stroke-width: 0.6"/>
      </g>
     </g>
    </g>
    <g id="ytick_7">
     <g id="line2d_26">
      <g>
       <use xlink:href="#m1e47d9c0ca" x="62.478125" y="30.552951" style="stroke: #000000; stroke-width: 0.6"/>
      </g>
     </g>
    </g>
    <g id="ytick_8">
     <g id="line2d_27">
      <g>
       <use xlink:href="#m1e47d9c0ca" x="62.478125" y="25.272089" style="stroke: #000000; stroke-width: 0.6"/>
      </g>
     </g>
    </g>
    <g id="text_7">
     <text style="font-size: 10px; font-family: 'DejaVu Sans', 'Bitstream Vera Sans', 'Computer Modern Sans Serif', 'Lucida Grande', 'Verdana', 'Geneva', 'Lucid', 'Arial', 'Helvetica', 'Avant Garde', sans-serif; text-anchor: middle" x="14.798438" y="69.670125" transform="rotate(-90 14.798438 69.670125)">Reward</text>
    </g>
   </g>
   <g id="line2d_28">
    <path d="M 71.821016 26.622852 
L 116.495433 27.699991 
L 137.267853 28.793345 
L 150.950297 31.087755 
L 161.169849 32.496205 
L 169.330004 34.17193 
L 176.123159 35.544966 
L 181.94227 38.391089 
L 187.031955 40.122026 
L 191.554879 43.097509 
L 195.624714 44.925184 
L 199.324027 46.860876 
L 202.714691 49.42928 
L 205.844266 52.794748 
L 208.750102 55.126816 
L 211.462067 57.449825 
L 214.00442 58.849973 
L 216.397134 63.023397 
L 218.656849 64.301462 
L 220.797575 66.455918 
L 222.83122 68.84129 
L 224.767986 72.650614 
L 226.616686 74.132842 
L 228.384983 75.931453 
L 230.079578 77.797842 
L 231.706371 80.568237 
L 233.27058 82.742618 
L 234.776841 83.85147 
L 236.229296 86.51495 
L 237.631656 88.176318 
L 238.987261 89.534299 
L 240.29913 92.199728 
L 241.569996 93.804203 
L 242.802345 96.265901 
L 243.998443 97.463586 
L 245.160363 99.01421 
L 246.290002 101.142395 
L 247.389107 102.511731 
L 248.459285 103.887048 
L 249.502019 105.923637 
L 250.518682 106.237666 
L 251.510546 107.269652 
L 252.478792 107.414128 
L 253.424518 109.20256 
L 254.348749 109.798053 
L 255.25244 110.735671 
L 256.136484 111.144375 
L 257.001716 111.564062 
L 257.848922 112.334911 
L 258.678837 112.717398 
" clip-path="url(#p3127e25fe3)" style="fill: none; stroke: #1f77b4; stroke-width: 1.5; stroke-linecap: square"/>
   </g>
   <g id="patch_3">
    <path d="M 62.478125 117.022125 
L 62.478125 22.318125 
" style="fill: none; stroke: #000000; stroke-width: 0.8; stroke-linejoin: miter; stroke-linecap: square"/>
   </g>
   <g id="patch_4">
    <path d="M 268.021728 117.022125 
L 268.021728 22.318125 
" style="fill: none; stroke: #000000; stroke-width: 0.8; stroke-linejoin: miter; stroke-linecap: square"/>
   </g>
   <g id="patch_5">
    <path d="M 62.478125 117.022125 
L 268.021728 117.022125 
" style="fill: none; stroke: #000000; stroke-width: 0.8; stroke-linejoin: miter; stroke-linecap: square"/>
   </g>
   <g id="patch_6">
    <path d="M 62.478125 22.318125 
L 268.021728 22.318125 
" style="fill: none; stroke: #000000; stroke-width: 0.8; stroke-linejoin: miter; stroke-linecap: square"/>
   </g>
   <g id="text_8">
    <text style="font-size: 12px; font-family: 'DejaVu Sans', 'Bitstream Vera Sans', 'Computer Modern Sans Serif', 'Lucida Grande', 'Verdana', 'Geneva', 'Lucid', 'Arial', 'Helvetica', 'Avant Garde', sans-serif; text-anchor: middle" x="165.249926" y="16.318125" transform="rotate(-0 165.249926 16.318125)">Learning performance (average of multiple runs)</text>
   </g>
  </g>
  <g id="axes_2">
   <g id="patch_7">
    <path d="M 62.478125 242.918125 
L 268.021728 242.918125 
L 268.021728 148.214125 
L 62.478125 148.214125 
z
" style="fill: #ffffff"/>
   </g>
   <g id="FillBetweenPolyCollection_2">
    <path d="M 71.821016 152.301659 
L 71.821016 177.799792 
L 75.634441 180.09157 
L 79.447866 183.126413 
L 83.261291 187.247593 
L 87.074716 189.795827 
L 90.888141 192.484881 
L 94.701566 193.399027 
L 98.51499 197.602854 
L 102.328415 199.154714 
L 106.14184 202.284523 
L 109.955265 205.831076 
L 113.76869 207.211089 
L 117.582115 208.912652 
L 121.39554 211.990063 
L 125.208965 214.537896 
L 129.02239 215.900315 
L 132.835815 215.977364 
L 136.64924 219.32894 
L 140.462664 220.442278 
L 144.276089 221.432974 
L 148.089514 222.771805 
L 151.902939 224.532919 
L 155.716364 225.476634 
L 159.529789 224.981314 
L 163.343214 226.216704 
L 167.156639 227.293978 
L 170.970064 227.647567 
L 174.783489 228.391932 
L 178.596914 228.821726 
L 182.410339 229.532459 
L 186.223763 229.980991 
L 190.037188 230.475457 
L 193.850613 230.364109 
L 197.664038 231.09797 
L 201.477463 231.177846 
L 205.290888 231.5694 
L 209.104313 231.760044 
L 212.917738 232.039313 
L 216.731163 232.310285 
L 220.544588 232.838572 
L 224.358013 232.903676 
L 228.171437 232.886593 
L 231.984862 233.258921 
L 235.798287 233.638098 
L 239.611712 233.813689 
L 243.425137 233.622282 
L 247.238562 233.559236 
L 251.051987 233.9722 
L 254.865412 233.784494 
L 258.678837 234.052333 
L 258.678837 228.957395 
L 258.678837 228.957395 
L 254.865412 229.02967 
L 251.051987 228.442727 
L 247.238562 228.635424 
L 243.425137 228.355885 
L 239.611712 227.660295 
L 235.798287 227.510155 
L 231.984862 226.884654 
L 228.171437 227.174058 
L 224.358013 226.556813 
L 220.544588 226.436532 
L 216.731163 225.730496 
L 212.917738 225.135637 
L 209.104313 224.526047 
L 205.290888 223.280225 
L 201.477463 222.581369 
L 197.664038 221.792828 
L 193.850613 220.667236 
L 190.037188 219.287811 
L 186.223763 217.572746 
L 182.410339 216.844036 
L 178.596914 216.065171 
L 174.783489 213.988636 
L 170.970064 213.644874 
L 167.156639 211.784988 
L 163.343214 209.881993 
L 159.529789 209.003236 
L 155.716364 206.385559 
L 151.902939 205.515111 
L 148.089514 202.329152 
L 144.276089 200.349197 
L 140.462664 198.186787 
L 136.64924 197.356774 
L 132.835815 193.962517 
L 129.02239 191.632036 
L 125.208965 188.830449 
L 121.39554 186.97529 
L 117.582115 183.280978 
L 113.76869 179.461594 
L 109.955265 176.466637 
L 106.14184 175.705338 
L 102.328415 171.435149 
L 98.51499 168.450762 
L 94.701566 164.804354 
L 90.888141 161.749424 
L 87.074716 159.426791 
L 83.261291 157.615362 
L 79.447866 154.334604 
L 75.634441 153.706706 
L 71.821016 152.301659 
z
" clip-path="url(#pad6fc9aa38)" style="fill: #1f77b4; fill-opacity: 0.3"/>
   </g>
   <g id="matplotlib.axis_3">
    <g id="xtick_20">
     <g id="line2d_29">
      <g>
       <use xlink:href="#m1d1d65a1f8" x="69.914304" y="242.918125" style="stroke: #000000; stroke-width: 0.8"/>
      </g>
     </g>
     <g id="text_9">
      <text style="font-size: 10px; font-family: 'DejaVu Sans', 'Bitstream Vera Sans', 'Computer Modern Sans Serif', 'Lucida Grande', 'Verdana', 'Geneva', 'Lucid', 'Arial', 'Helvetica', 'Avant Garde', sans-serif; text-anchor: middle" x="69.914304" y="257.516563" transform="rotate(-0 69.914304 257.516563)">0</text>
     </g>
    </g>
    <g id="xtick_21">
     <g id="line2d_30">
      <g>
       <use xlink:href="#m1d1d65a1f8" x="133.471385" y="242.918125" style="stroke: #000000; stroke-width: 0.8"/>
      </g>
     </g>
     <g id="text_10">
      <text style="font-size: 10px; font-family: 'DejaVu Sans', 'Bitstream Vera Sans', 'Computer Modern Sans Serif', 'Lucida Grande', 'Verdana', 'Geneva', 'Lucid', 'Arial', 'Helvetica', 'Avant Garde', sans-serif; text-anchor: middle" x="133.471385" y="257.516563" transform="rotate(-0 133.471385 257.516563)">1000</text>
     </g>
    </g>
    <g id="xtick_22">
     <g id="line2d_31">
      <g>
       <use xlink:href="#m1d1d65a1f8" x="197.028467" y="242.918125" style="stroke: #000000; stroke-width: 0.8"/>
      </g>
     </g>
     <g id="text_11">
      <text style="font-size: 10px; font-family: 'DejaVu Sans', 'Bitstream Vera Sans', 'Computer Modern Sans Serif', 'Lucida Grande', 'Verdana', 'Geneva', 'Lucid', 'Arial', 'Helvetica', 'Avant Garde', sans-serif; text-anchor: middle" x="197.028467" y="257.516563" transform="rotate(-0 197.028467 257.516563)">2000</text>
     </g>
    </g>
    <g id="xtick_23">
     <g id="line2d_32">
      <g>
       <use xlink:href="#m1d1d65a1f8" x="260.585549" y="242.918125" style="stroke: #000000; stroke-width: 0.8"/>
      </g>
     </g>
     <g id="text_12">
      <text style="font-size: 10px; font-family: 'DejaVu Sans', 'Bitstream Vera Sans', 'Computer Modern Sans Serif', 'Lucida Grande', 'Verdana', 'Geneva', 'Lucid', 'Arial', 'Helvetica', 'Avant Garde', sans-serif; text-anchor: middle" x="260.585549" y="257.516563" transform="rotate(-0 260.585549 257.516563)">3000</text>
     </g>
    </g>
    <g id="text_13">
     <text style="font-size: 10px; font-family: 'DejaVu Sans', 'Bitstream Vera Sans', 'Computer Modern Sans Serif', 'Lucida Grande', 'Verdana', 'Geneva', 'Lucid', 'Arial', 'Helvetica', 'Avant Garde', sans-serif; text-anchor: middle" x="165.249926" y="271.194687" transform="rotate(-0 165.249926 271.194687)">Trial</text>
    </g>
   </g>
   <g id="matplotlib.axis_4">
    <g id="ytick_9">
     <g id="line2d_33">
      <defs>
       <path id="mb0988aa928" d="M 0 0 
L -3.5 0 
" style="stroke: #000000; stroke-width: 0.8"/>
      </defs>
      <g>
       <use xlink:href="#mb0988aa928" x="62.478125" y="242.918125" style="stroke: #000000; stroke-width: 0.8"/>
      </g>
     </g>
     <g id="text_14">
      <text style="font-size: 10px; font-family: 'DejaVu Sans', 'Bitstream Vera Sans', 'Computer Modern Sans Serif', 'Lucida Grande', 'Verdana', 'Geneva', 'Lucid', 'Arial', 'Helvetica', 'Avant Garde', sans-serif; text-anchor: end" x="55.478125" y="246.717344" transform="rotate(-0 55.478125 246.717344)">0</text>
     </g>
    </g>
    <g id="ytick_10">
     <g id="line2d_34">
      <g>
       <use xlink:href="#mb0988aa928" x="62.478125" y="216.168454" style="stroke: #000000; stroke-width: 0.8"/>
      </g>
     </g>
     <g id="text_15">
      <text style="font-size: 10px; font-family: 'DejaVu Sans', 'Bitstream Vera Sans', 'Computer Modern Sans Serif', 'Lucida Grande', 'Verdana', 'Geneva', 'Lucid', 'Arial', 'Helvetica', 'Avant Garde', sans-serif; text-anchor: end" x="55.478125" y="219.967673" transform="rotate(-0 55.478125 219.967673)">30</text>
     </g>
    </g>
    <g id="ytick_11">
     <g id="line2d_35">
      <g>
       <use xlink:href="#mb0988aa928" x="62.478125" y="189.418783" style="stroke: #000000; stroke-width: 0.8"/>
      </g>
     </g>
     <g id="text_16">
      <text style="font-size: 10px; font-family: 'DejaVu Sans', 'Bitstream Vera Sans', 'Computer Modern Sans Serif', 'Lucida Grande', 'Verdana', 'Geneva', 'Lucid', 'Arial', 'Helvetica', 'Avant Garde', sans-serif; text-anchor: end" x="55.478125" y="193.218002" transform="rotate(-0 55.478125 193.218002)">60</text>
     </g>
    </g>
    <g id="ytick_12">
     <g id="line2d_36">
      <g>
       <use xlink:href="#mb0988aa928" x="62.478125" y="162.669112" style="stroke: #000000; stroke-width: 0.8"/>
      </g>
     </g>
     <g id="text_17">
      <text style="font-size: 10px; font-family: 'DejaVu Sans', 'Bitstream Vera Sans', 'Computer Modern Sans Serif', 'Lucida Grande', 'Verdana', 'Geneva', 'Lucid', 'Arial', 'Helvetica', 'Avant Garde', sans-serif; text-anchor: end" x="55.478125" y="166.468331" transform="rotate(-0 55.478125 166.468331)">90</text>
     </g>
    </g>
    <g id="text_18">
     <text style="font-size: 10px; font-family: 'DejaVu Sans', 'Bitstream Vera Sans', 'Computer Modern Sans Serif', 'Lucida Grande', 'Verdana', 'Geneva', 'Lucid', 'Arial', 'Helvetica', 'Avant Garde', sans-serif; text-anchor: middle" x="36.673438" y="195.566125" transform="rotate(-90 36.673438 195.566125)">Directional Error (deg)</text>
    </g>
   </g>
   <g id="line2d_37">
    <path d="M 71.821016 165.050725 
L 75.634441 166.899138 
L 79.447866 168.730508 
L 83.261291 172.431478 
L 87.074716 174.611309 
L 90.888141 177.117152 
L 94.701566 179.10169 
L 98.51499 183.026808 
L 102.328415 185.294932 
L 106.14184 188.994931 
L 109.955265 191.148856 
L 113.76869 193.336341 
L 117.582115 196.096815 
L 121.39554 199.482677 
L 125.208965 201.684172 
L 129.02239 203.766176 
L 132.835815 204.969941 
L 136.64924 208.342857 
L 140.462664 209.314533 
L 144.276089 210.891086 
L 148.089514 212.550479 
L 151.902939 215.024015 
L 155.716364 215.931097 
L 159.529789 216.992275 
L 163.343214 218.049348 
L 167.156639 219.539483 
L 170.970064 220.64622 
L 174.783489 221.190284 
L 178.596914 222.443448 
L 182.410339 223.188248 
L 186.223763 223.776869 
L 190.037188 224.881634 
L 193.850613 225.515673 
L 197.664038 226.445399 
L 201.477463 226.879607 
L 205.290888 227.424813 
L 209.104313 228.143046 
L 212.917738 228.587475 
L 216.731163 229.02039 
L 220.544588 229.637552 
L 224.358013 229.730244 
L 228.171437 230.030325 
L 231.984862 230.071787 
L 235.798287 230.574126 
L 239.611712 230.736992 
L 243.425137 230.989084 
L 247.238562 231.09733 
L 251.051987 231.207464 
L 254.865412 231.407082 
L 258.678837 231.504864 
" clip-path="url(#pad6fc9aa38)" style="fill: none; stroke: #1f77b4; stroke-width: 1.5; stroke-linecap: square"/>
   </g>
   <g id="patch_8">
    <path d="M 62.478125 242.918125 
L 62.478125 148.214125 
" style="fill: none; stroke: #000000; stroke-width: 0.8; stroke-linejoin: miter; stroke-linecap: square"/>
   </g>
   <g id="patch_9">
    <path d="M 268.021728 242.918125 
L 268.021728 148.214125 
" style="fill: none; stroke: #000000; stroke-width: 0.8; stroke-linejoin: miter; stroke-linecap: square"/>
   </g>
   <g id="patch_10">
    <path d="M 62.478125 242.918125 
L 268.021728 242.918125 
" style="fill: none; stroke: #000000; stroke-width: 0.8; stroke-linejoin: miter; stroke-linecap: square"/>
   </g>
   <g id="patch_11">
    <path d="M 62.478125 148.214125 
L 268.021728 148.214125 
" style="fill: none; stroke: #000000; stroke-width: 0.8; stroke-linejoin: miter; stroke-linecap: square"/>
   </g>
  </g>
 </g>
 <defs>
  <clipPath id="p3127e25fe3">
   <rect x="62.478125" y="22.318125" width="205.543603" height="94.704"/>
  </clipPath>
  <clipPath id="pad6fc9aa38">
   <rect x="62.478125" y="148.214125" width="205.543603" height="94.704"/>
  </clipPath>
 </defs>
</svg>
