<?xml version="1.0" encoding="utf-8" standalone="no"?>
<!DOCTYPE svg PUBLIC "-//W3C//DTD SVG 1.1//EN"
  "http://www.w3.org/Graphics/SVG/1.1/DTD/svg11.dtd">
<svg xmlns:xlink="http://www.w3.org/1999/xlink" width="321.540887pt" height="280.474375pt" viewBox="0 0 321.540887 280.474375" xmlns="http://www.w3.org/2000/svg" version="1.1">
 <metadata>
  <rdf:RDF xmlns:dc="http://purl.org/dc/elements/1.1/" xmlns:cc="http://creativecommons.org/ns#" xmlns:rdf="http://www.w3.org/1999/02/22-rdf-syntax-ns#">
   <cc:Work>
    <dc:type rdf:resource="http://purl.org/dc/dcmitype/StillImage"/>
    <dc:date>2025-09-11T17:37:37.679245</dc:date>
    <dc:format>image/svg+xml</dc:format>
    <dc:creator>
     <cc:Agent>
      <dc:title>Matplotlib v3.10.0, https://matplotlib.org/</dc:title>
     </cc:Agent>
    </dc:creator>
   </cc:Work>
  </rdf:RDF>
 </metadata>
 <defs>
  <style type="text/css">*{stroke-linejoin: round; stroke-linecap: butt}</style>
 </defs>
 <g id="figure_1">
  <g id="patch_1">
   <path d="M 0 280.474375 
L 321.540887 280.474375 
L 321.540887 0 
L 0 0 
z
" style="fill: #ffffff"/>
  </g>
  <g id="axes_1">
   <g id="patch_2">
    <path d="M 62.478125 117.022125 
L 272.726774 117.022125 
L 272.726774 22.318125 
L 62.478125 22.318125 
z
" style="fill: #ffffff"/>
   </g>
   <g id="FillBetweenPolyCollection_1">
    <path d="M 72.034882 105475.159074 
L 72.034882 105475.159074 
L 119.300219 105475.159074 
L 141.277349 105475.159074 
L 155.753315 105475.159074 
L 166.565556 105475.159074 
L 175.198964 105475.159074 
L 182.386092 105475.159074 
L 188.542686 105475.159074 
L 193.92755 105475.159074 
L 198.712785 105475.159074 
L 203.018652 105475.159074 
L 206.932509 105475.159074 
L 210.519816 105475.159074 
L 213.830893 105475.159074 
L 216.905255 105475.159074 
L 219.774502 105475.159074 
L 222.464301 105475.159074 
L 224.995782 105475.159074 
L 227.38655 105475.159074 
L 229.651429 105475.159074 
L 231.803016 105475.159074 
L 233.852106 105475.159074 
L 235.808023 105475.159074 
L 237.678873 105475.159074 
L 239.471747 105475.159074 
L 241.192887 105475.159074 
L 242.847813 105475.159074 
L 244.441431 105475.159074 
L 245.978122 105475.159074 
L 247.461812 105475.159074 
L 248.896037 105475.159074 
L 250.283989 105475.159074 
L 251.628559 105475.159074 
L 252.932379 105475.159074 
L 254.197846 105475.159074 
L 255.427151 105475.159074 
L 256.622305 105475.159074 
L 257.785153 105475.159074 
L 258.917396 105475.159074 
L 260.020605 105475.159074 
L 261.09623 105475.159074 
L 262.145618 105475.159074 
L 263.170017 105475.159074 
L 263.170017 105475.159074 
L 263.170017 105475.159074 
L 262.145618 105475.159074 
L 261.09623 105475.159074 
L 260.020605 105475.159074 
L 258.917396 105475.159074 
L 257.785153 105475.159074 
L 256.622305 105475.159074 
L 255.427151 105475.159074 
L 254.197846 105475.159074 
L 252.932379 105475.159074 
L 251.628559 105475.159074 
L 250.283989 105475.159074 
L 248.896037 105475.159074 
L 247.461812 105475.159074 
L 245.978122 105475.159074 
L 244.441431 105475.159074 
L 242.847813 105475.159074 
L 241.192887 105475.159074 
L 239.471747 105475.159074 
L 237.678873 105475.159074 
L 235.808023 105475.159074 
L 233.852106 105475.159074 
L 231.803016 105475.159074 
L 229.651429 105475.159074 
L 227.38655 105475.159074 
L 224.995782 105475.159074 
L 222.464301 105475.159074 
L 219.774502 105475.159074 
L 216.905255 105475.159074 
L 213.830893 105475.159074 
L 210.519816 105475.159074 
L 206.932509 105475.159074 
L 203.018652 105475.159074 
L 198.712785 105475.159074 
L 193.92755 105475.159074 
L 188.542686 105475.159074 
L 182.386092 105475.159074 
L 175.198964 105475.159074 
L 166.565556 105475.159074 
L 155.753315 105475.159074 
L 141.277349 105475.159074 
L 119.300219 105475.159074 
L 72.034882 105475.159074 
z
" clip-path="url(#pe1b0b83fba)" style="fill: #1f77b4; fill-opacity: 0.3"/>
   </g>
   <g id="matplotlib.axis_1">
    <g id="xtick_1">
     <g id="line2d_1">
      <defs>
       <path id="m060f73c427" d="M 0 0 
L 0 3.5 
" style="stroke: #000000; stroke-width: 0.8"/>
      </defs>
      <g>
       <use xlink:href="#m060f73c427" x="123.833119" y="117.022125" style="stroke: #000000; stroke-width: 0.8"/>
      </g>
     </g>
     <g id="text_1">
      <!-- $\mathdefault{10^{2}}$ -->
      <g transform="translate(115.033119 131.620563)">
       <text>
        <tspan x="0" y="-0.976562" style="font-size: 10px; font-family: 'DejaVu Sans'">1</tspan>
        <tspan x="6.362305" y="-0.976562" style="font-size: 10px; font-family: 'DejaVu Sans'">0</tspan>
        <tspan x="12.820312" y="-4.804688" style="font-size: 7px; font-family: 'DejaVu Sans'">2</tspan>
       </text>
      </g>
     </g>
    </g>
    <g id="xtick_2">
     <g id="line2d_2">
      <g>
       <use xlink:href="#m060f73c427" x="222.896694" y="117.022125" style="stroke: #000000; stroke-width: 0.8"/>
      </g>
     </g>
     <g id="text_2">
      <!-- $\mathdefault{10^{3}}$ -->
      <g transform="translate(214.096694 131.620563)">
       <text>
        <tspan x="0" y="-0.976562" style="font-size: 10px; font-family: 'DejaVu Sans'">1</tspan>
        <tspan x="6.362305" y="-0.976562" style="font-size: 10px; font-family: 'DejaVu Sans'">0</tspan>
        <tspan x="12.820312" y="-4.804688" style="font-size: 7px; font-family: 'DejaVu Sans'">3</tspan>
       </text>
      </g>
     </g>
    </g>
    <g id="xtick_3">
     <g id="line2d_3">
      <defs>
       <path id="m08c914ab55" d="M 0 0 
L 0 2 
" style="stroke: #000000; stroke-width: 0.6"/>
      </defs>
      <g>
       <use xlink:href="#m08c914ab55" x="72.034882" y="117.022125" style="stroke: #000000; stroke-width: 0.6"/>
      </g>
     </g>
    </g>
    <g id="xtick_4">
     <g id="line2d_4">
      <g>
       <use xlink:href="#m08c914ab55" x="84.41176" y="117.022125" style="stroke: #000000; stroke-width: 0.6"/>
      </g>
     </g>
    </g>
    <g id="xtick_5">
     <g id="line2d_5">
      <g>
       <use xlink:href="#m08c914ab55" x="94.012012" y="117.022125" style="stroke: #000000; stroke-width: 0.6"/>
      </g>
     </g>
    </g>
    <g id="xtick_6">
     <g id="line2d_6">
      <g>
       <use xlink:href="#m08c914ab55" x="101.855989" y="117.022125" style="stroke: #000000; stroke-width: 0.6"/>
      </g>
     </g>
    </g>
    <g id="xtick_7">
     <g id="line2d_7">
      <g>
       <use xlink:href="#m08c914ab55" x="108.487977" y="117.022125" style="stroke: #000000; stroke-width: 0.6"/>
      </g>
     </g>
    </g>
    <g id="xtick_8">
     <g id="line2d_8">
      <g>
       <use xlink:href="#m08c914ab55" x="114.232867" y="117.022125" style="stroke: #000000; stroke-width: 0.6"/>
      </g>
     </g>
    </g>
    <g id="xtick_9">
     <g id="line2d_9">
      <g>
       <use xlink:href="#m08c914ab55" x="119.300219" y="117.022125" style="stroke: #000000; stroke-width: 0.6"/>
      </g>
     </g>
    </g>
    <g id="xtick_10">
     <g id="line2d_10">
      <g>
       <use xlink:href="#m08c914ab55" x="153.654227" y="117.022125" style="stroke: #000000; stroke-width: 0.6"/>
      </g>
     </g>
    </g>
    <g id="xtick_11">
     <g id="line2d_11">
      <g>
       <use xlink:href="#m08c914ab55" x="171.098456" y="117.022125" style="stroke: #000000; stroke-width: 0.6"/>
      </g>
     </g>
    </g>
    <g id="xtick_12">
     <g id="line2d_12">
      <g>
       <use xlink:href="#m08c914ab55" x="183.475334" y="117.022125" style="stroke: #000000; stroke-width: 0.6"/>
      </g>
     </g>
    </g>
    <g id="xtick_13">
     <g id="line2d_13">
      <g>
       <use xlink:href="#m08c914ab55" x="193.075587" y="117.022125" style="stroke: #000000; stroke-width: 0.6"/>
      </g>
     </g>
    </g>
    <g id="xtick_14">
     <g id="line2d_14">
      <g>
       <use xlink:href="#m08c914ab55" x="200.919564" y="117.022125" style="stroke: #000000; stroke-width: 0.6"/>
      </g>
     </g>
    </g>
    <g id="xtick_15">
     <g id="line2d_15">
      <g>
       <use xlink:href="#m08c914ab55" x="207.551552" y="117.022125" style="stroke: #000000; stroke-width: 0.6"/>
      </g>
     </g>
    </g>
    <g id="xtick_16">
     <g id="line2d_16">
      <g>
       <use xlink:href="#m08c914ab55" x="213.296442" y="117.022125" style="stroke: #000000; stroke-width: 0.6"/>
      </g>
     </g>
    </g>
    <g id="xtick_17">
     <g id="line2d_17">
      <g>
       <use xlink:href="#m08c914ab55" x="218.363793" y="117.022125" style="stroke: #000000; stroke-width: 0.6"/>
      </g>
     </g>
    </g>
    <g id="xtick_18">
     <g id="line2d_18">
      <g>
       <use xlink:href="#m08c914ab55" x="252.717801" y="117.022125" style="stroke: #000000; stroke-width: 0.6"/>
      </g>
     </g>
    </g>
    <g id="xtick_19">
     <g id="line2d_19">
      <g>
       <use xlink:href="#m08c914ab55" x="270.162031" y="117.022125" style="stroke: #000000; stroke-width: 0.6"/>
      </g>
     </g>
    </g>
   </g>
   <g id="matplotlib.axis_2">
    <g id="ytick_1">
     <g id="line2d_20">
      <defs>
       <path id="m8b0df459e2" d="M 0 0 
L -2 0 
" style="stroke: #000000; stroke-width: 0.6"/>
      </defs>
      <g>
       <use xlink:href="#m8b0df459e2" x="62.478125" y="93.547007" style="stroke: #000000; stroke-width: 0.6"/>
      </g>
     </g>
     <g id="text_3">
      <!-- $\mathdefault{2\times10^{1}}$ -->
      <g transform="translate(20.878125 97.346225)">
       <text>
        <tspan x="0" y="-0.064063" style="font-size: 10px; font-family: 'DejaVu Sans'">2</tspan>
        <tspan x="8.310547" y="-0.064063" style="font-size: 10px; font-family: 'DejaVu Sans'">×</tspan>
        <tspan x="18.637695" y="-0.064063" style="font-size: 10px; font-family: 'DejaVu Sans'">1</tspan>
        <tspan x="25" y="-0.064063" style="font-size: 10px; font-family: 'DejaVu Sans'">0</tspan>
        <tspan x="31.458008" y="-3.892188" style="font-size: 7px; font-family: 'DejaVu Sans'">1</tspan>
       </text>
      </g>
     </g>
    </g>
    <g id="ytick_2">
     <g id="line2d_21">
      <g>
       <use xlink:href="#m8b0df459e2" x="62.478125" y="75.014337" style="stroke: #000000; stroke-width: 0.6"/>
      </g>
     </g>
     <g id="text_4">
      <!-- $\mathdefault{3\times10^{1}}$ -->
      <g transform="translate(20.878125 78.813556)">
       <text>
        <tspan x="0" y="-0.064063" style="font-size: 10px; font-family: 'DejaVu Sans'">3</tspan>
        <tspan x="8.310547" y="-0.064063" style="font-size: 10px; font-family: 'DejaVu Sans'">×</tspan>
        <tspan x="18.637695" y="-0.064063" style="font-size: 10px; font-family: 'DejaVu Sans'">1</tspan>
        <tspan x="25" y="-0.064063" style="font-size: 10px; font-family: 'DejaVu Sans'">0</tspan>
        <tspan x="31.458008" y="-3.892188" style="font-size: 7px; font-family: 'DejaVu Sans'">1</tspan>
       </text>
      </g>
     </g>
    </g>
    <g id="ytick_3">
     <g id="line2d_22">
      <g>
       <use xlink:href="#m8b0df459e2" x="62.478125" y="61.865199" style="stroke: #000000; stroke-width: 0.6"/>
      </g>
     </g>
     <g id="text_5">
      <!-- $\mathdefault{4\times10^{1}}$ -->
      <g transform="translate(20.878125 65.664418)">
       <text>
        <tspan x="0" y="-0.064063" style="font-size: 10px; font-family: 'DejaVu Sans'">4</tspan>
        <tspan x="8.310547" y="-0.064063" style="font-size: 10px; font-family: 'DejaVu Sans'">×</tspan>
        <tspan x="18.637695" y="-0.064063" style="font-size: 10px; font-family: 'DejaVu Sans'">1</tspan>
        <tspan x="25" y="-0.064063" style="font-size: 10px; font-family: 'DejaVu Sans'">0</tspan>
        <tspan x="31.458008" y="-3.892188" style="font-size: 7px; font-family: 'DejaVu Sans'">1</tspan>
       </text>
      </g>
     </g>
    </g>
    <g id="ytick_4">
     <g id="line2d_23">
      <g>
       <use xlink:href="#m8b0df459e2" x="62.478125" y="51.665935" style="stroke: #000000; stroke-width: 0.6"/>
      </g>
     </g>
    </g>
    <g id="ytick_5">
     <g id="line2d_24">
      <g>
       <use xlink:href="#m8b0df459e2" x="62.478125" y="43.33253" style="stroke: #000000; stroke-width: 0.6"/>
      </g>
     </g>
     <g id="text_6">
      <!-- $\mathdefault{6\times10^{1}}$ -->
      <g transform="translate(20.878125 47.131749)">
       <text>
        <tspan x="0" y="-0.064063" style="font-size: 10px; font-family: 'DejaVu Sans'">6</tspan>
        <tspan x="8.310547" y="-0.064063" style="font-size: 10px; font-family: 'DejaVu Sans'">×</tspan>
        <tspan x="18.637695" y="-0.064063" style="font-size: 10px; font-family: 'DejaVu Sans'">1</tspan>
        <tspan x="25" y="-0.064063" style="font-size: 10px; font-family: 'DejaVu Sans'">0</tspan>
        <tspan x="31.458008" y="-3.892188" style="font-size: 7px; font-family: 'DejaVu Sans'">1</tspan>
       </text>
      </g>
     </g>
    </g>
    <g id="ytick_6">
     <g id="line2d_25">
      <g>
       <use xlink:href="#m8b0df459e2" x="62.478125" y="36.286736" style="stroke: #000000; stroke-width: 0.6"/>
      </g>
     </g>
    </g>
    <g id="ytick_7">
     <g id="line2d_26">
      <g>
       <use xlink:href="#m8b0df459e2" x="62.478125" y="30.183392" style="stroke: #000000; stroke-width: 0.6"/>
      </g>
     </g>
    </g>
    <g id="ytick_8">
     <g id="line2d_27">
      <g>
       <use xlink:href="#m8b0df459e2" x="62.478125" y="24.799861" style="stroke: #000000; stroke-width: 0.6"/>
      </g>
     </g>
    </g>
    <g id="text_7">
     <text style="font-size: 10px; font-family: 'DejaVu Sans', 'Bitstream Vera Sans', 'Computer Modern Sans Serif', 'Lucida Grande', 'Verdana', 'Geneva', 'Lucid', 'Arial', 'Helvetica', 'Avant Garde', sans-serif; text-anchor: middle" x="14.798438" y="69.670125" transform="rotate(-90 14.798438 69.670125)">Reward</text>
    </g>
   </g>
   <g id="line2d_28">
    <path d="M 72.034882 26.622852 
L 119.300219 27.884473 
L 141.277349 26.88793 
L 155.753315 28.842431 
L 166.565556 31.816182 
L 175.198964 32.766849 
L 182.386092 34.940844 
L 188.542686 37.82414 
L 193.92755 39.714178 
L 198.712785 42.832622 
L 203.018652 44.828518 
L 206.932509 46.916748 
L 210.519816 48.718117 
L 213.830893 50.656773 
L 216.905255 54.745635 
L 219.774502 56.80203 
L 222.464301 57.689783 
L 224.995782 61.84626 
L 227.38655 63.061333 
L 229.651429 67.374667 
L 231.803016 67.837052 
L 233.852106 70.928863 
L 235.808023 70.957163 
L 237.678873 74.359704 
L 239.471747 78.103227 
L 241.192887 80.036783 
L 242.847813 80.932678 
L 244.441431 83.053846 
L 245.978122 86.346806 
L 247.461812 86.1687 
L 248.896037 92.73989 
L 250.283989 93.453548 
L 251.628559 94.371192 
L 252.932379 97.399296 
L 254.197846 98.950642 
L 255.427151 99.857189 
L 256.622305 102.086503 
L 257.785153 102.281601 
L 258.917396 105.274658 
L 260.020605 111.019003 
L 261.09623 108.649984 
L 262.145618 112.717398 
L 263.170017 110.959677 
" clip-path="url(#pe1b0b83fba)" style="fill: none; stroke: #1f77b4; stroke-width: 1.5; stroke-linecap: square"/>
   </g>
   <g id="patch_3">
    <path d="M 62.478125 117.022125 
L 62.478125 22.318125 
" style="fill: none; stroke: #000000; stroke-width: 0.8; stroke-linejoin: miter; stroke-linecap: square"/>
   </g>
   <g id="patch_4">
    <path d="M 272.726774 117.022125 
L 272.726774 22.318125 
" style="fill: none; stroke: #000000; stroke-width: 0.8; stroke-linejoin: miter; stroke-linecap: square"/>
   </g>
   <g id="patch_5">
    <path d="M 62.478125 117.022125 
L 272.726774 117.022125 
" style="fill: none; stroke: #000000; stroke-width: 0.8; stroke-linejoin: miter; stroke-linecap: square"/>
   </g>
   <g id="patch_6">
    <path d="M 62.478125 22.318125 
L 272.726774 22.318125 
" style="fill: none; stroke: #000000; stroke-width: 0.8; stroke-linejoin: miter; stroke-linecap: square"/>
   </g>
   <g id="text_8">
    <text style="font-size: 12px; font-family: 'DejaVu Sans', 'Bitstream Vera Sans', 'Computer Modern Sans Serif', 'Lucida Grande', 'Verdana', 'Geneva', 'Lucid', 'Arial', 'Helvetica', 'Avant Garde', sans-serif; text-anchor: middle" x="167.60245" y="16.318125" transform="rotate(-0 167.60245 16.318125)">Learning performance (average of multiple runs)</text>
   </g>
  </g>
  <g id="axes_2">
   <g id="patch_7">
    <path d="M 62.478125 242.918125 
L 272.726774 242.918125 
L 272.726774 148.214125 
L 62.478125 148.214125 
z
" style="fill: #ffffff"/>
   </g>
   <g id="FillBetweenPolyCollection_2">
    <path d="M 72.034882 152.299092 
L 72.034882 179.857638 
L 76.585718 180.734318 
L 81.136555 179.497736 
L 85.687391 184.169794 
L 90.238228 190.403707 
L 94.789065 188.905369 
L 99.339901 193.169785 
L 103.890738 197.034241 
L 108.441574 198.967364 
L 112.992411 202.549487 
L 117.543247 207.039971 
L 122.094084 208.501366 
L 126.644921 209.598877 
L 131.195757 211.373493 
L 135.746594 214.235876 
L 140.29743 214.968906 
L 144.848267 215.972586 
L 149.399103 219.493409 
L 153.94994 220.707693 
L 158.500776 220.94439 
L 163.051613 223.011051 
L 167.60245 224.57404 
L 172.153286 225.089611 
L 176.704123 224.078551 
L 181.254959 225.874906 
L 185.805796 227.964243 
L 190.356632 227.626054 
L 194.907469 228.313207 
L 199.458306 229.474359 
L 204.009142 230.207429 
L 208.559979 230.690741 
L 213.110815 230.280324 
L 217.661652 230.181987 
L 222.212488 230.673613 
L 226.763325 231.440184 
L 231.314161 231.876354 
L 235.864998 231.769954 
L 240.415835 231.737735 
L 244.966671 232.53034 
L 249.517508 233.090888 
L 254.068344 233.19307 
L 258.619181 233.923885 
L 263.170017 233.998426 
L 263.170017 227.556322 
L 263.170017 227.556322 
L 258.619181 228.546909 
L 254.068344 227.103146 
L 249.517508 228.495357 
L 244.966671 225.808443 
L 240.415835 224.740159 
L 235.864998 224.582358 
L 231.314161 223.002268 
L 226.763325 222.818301 
L 222.212488 222.494696 
L 217.661652 220.748767 
L 213.110815 219.942566 
L 208.559979 218.971729 
L 204.009142 213.862026 
L 199.458306 214.75753 
L 194.907469 212.810697 
L 190.356632 211.373948 
L 185.805796 210.108678 
L 181.254959 210.134132 
L 176.704123 207.677746 
L 172.153286 202.487225 
L 167.60245 202.966712 
L 163.051613 200.449937 
L 158.500776 201.882393 
L 153.94994 195.883357 
L 149.399103 195.232152 
L 144.848267 191.983232 
L 140.29743 191.459486 
L 135.746594 188.53832 
L 131.195757 183.627663 
L 126.644921 181.466661 
L 122.094084 178.754582 
L 117.543247 175.607655 
L 112.992411 175.492374 
L 108.441574 171.463369 
L 103.890738 168.524317 
L 99.339901 164.557003 
L 94.789065 162.580846 
L 90.238228 158.25889 
L 85.687391 155.271436 
L 81.136555 153.547674 
L 76.585718 155.606301 
L 72.034882 152.299092 
z
" clip-path="url(#pa31553cc1d)" style="fill: #1f77b4; fill-opacity: 0.3"/>
   </g>
   <g id="matplotlib.axis_3">
    <g id="xtick_20">
     <g id="line2d_29">
      <g>
       <use xlink:href="#m060f73c427" x="69.759464" y="242.918125" style="stroke: #000000; stroke-width: 0.8"/>
      </g>
     </g>
     <g id="text_9">
      <text style="font-size: 10px; font-family: 'DejaVu Sans', 'Bitstream Vera Sans', 'Computer Modern Sans Serif', 'Lucida Grande', 'Verdana', 'Geneva', 'Lucid', 'Arial', 'Helvetica', 'Avant Garde', sans-serif; text-anchor: middle" x="69.759464" y="257.516563" transform="rotate(-0 69.759464 257.516563)">0</text>
     </g>
    </g>
    <g id="xtick_21">
     <g id="line2d_30">
      <g>
       <use xlink:href="#m060f73c427" x="107.683102" y="242.918125" style="stroke: #000000; stroke-width: 0.8"/>
      </g>
     </g>
     <g id="text_10">
      <text style="font-size: 10px; font-family: 'DejaVu Sans', 'Bitstream Vera Sans', 'Computer Modern Sans Serif', 'Lucida Grande', 'Verdana', 'Geneva', 'Lucid', 'Arial', 'Helvetica', 'Avant Garde', sans-serif; text-anchor: middle" x="107.683102" y="257.516563" transform="rotate(-0 107.683102 257.516563)">500</text>
     </g>
    </g>
    <g id="xtick_22">
     <g id="line2d_31">
      <g>
       <use xlink:href="#m060f73c427" x="145.60674" y="242.918125" style="stroke: #000000; stroke-width: 0.8"/>
      </g>
     </g>
     <g id="text_11">
      <text style="font-size: 10px; font-family: 'DejaVu Sans', 'Bitstream Vera Sans', 'Computer Modern Sans Serif', 'Lucida Grande', 'Verdana', 'Geneva', 'Lucid', 'Arial', 'Helvetica', 'Avant Garde', sans-serif; text-anchor: middle" x="145.60674" y="257.516563" transform="rotate(-0 145.60674 257.516563)">1000</text>
     </g>
    </g>
    <g id="xtick_23">
     <g id="line2d_32">
      <g>
       <use xlink:href="#m060f73c427" x="183.530378" y="242.918125" style="stroke: #000000; stroke-width: 0.8"/>
      </g>
     </g>
     <g id="text_12">
      <text style="font-size: 10px; font-family: 'DejaVu Sans', 'Bitstream Vera Sans', 'Computer Modern Sans Serif', 'Lucida Grande', 'Verdana', 'Geneva', 'Lucid', 'Arial', 'Helvetica', 'Avant Garde', sans-serif; text-anchor: middle" x="183.530378" y="257.516563" transform="rotate(-0 183.530378 257.516563)">1500</text>
     </g>
    </g>
    <g id="xtick_24">
     <g id="line2d_33">
      <g>
       <use xlink:href="#m060f73c427" x="221.454016" y="242.918125" style="stroke: #000000; stroke-width: 0.8"/>
      </g>
     </g>
     <g id="text_13">
      <text style="font-size: 10px; font-family: 'DejaVu Sans', 'Bitstream Vera Sans', 'Computer Modern Sans Serif', 'Lucida Grande', 'Verdana', 'Geneva', 'Lucid', 'Arial', 'Helvetica', 'Avant Garde', sans-serif; text-anchor: middle" x="221.454016" y="257.516563" transform="rotate(-0 221.454016 257.516563)">2000</text>
     </g>
    </g>
    <g id="xtick_25">
     <g id="line2d_34">
      <g>
       <use xlink:href="#m060f73c427" x="259.377654" y="242.918125" style="stroke: #000000; stroke-width: 0.8"/>
      </g>
     </g>
     <g id="text_14">
      <text style="font-size: 10px; font-family: 'DejaVu Sans', 'Bitstream Vera Sans', 'Computer Modern Sans Serif', 'Lucida Grande', 'Verdana', 'Geneva', 'Lucid', 'Arial', 'Helvetica', 'Avant Garde', sans-serif; text-anchor: middle" x="259.377654" y="257.516563" transform="rotate(-0 259.377654 257.516563)">2500</text>
     </g>
    </g>
    <g id="text_15">
     <text style="font-size: 10px; font-family: 'DejaVu Sans', 'Bitstream Vera Sans', 'Computer Modern Sans Serif', 'Lucida Grande', 'Verdana', 'Geneva', 'Lucid', 'Arial', 'Helvetica', 'Avant Garde', sans-serif; text-anchor: middle" x="167.60245" y="271.194687" transform="rotate(-0 167.60245 271.194687)">Trial</text>
    </g>
   </g>
   <g id="matplotlib.axis_4">
    <g id="ytick_9">
     <g id="line2d_35">
      <defs>
       <path id="m81b9afa4ba" d="M 0 0 
L -3.5 0 
" style="stroke: #000000; stroke-width: 0.8"/>
      </defs>
      <g>
       <use xlink:href="#m81b9afa4ba" x="62.478125" y="242.918125" style="stroke: #000000; stroke-width: 0.8"/>
      </g>
     </g>
     <g id="text_16">
      <text style="font-size: 10px; font-family: 'DejaVu Sans', 'Bitstream Vera Sans', 'Computer Modern Sans Serif', 'Lucida Grande', 'Verdana', 'Geneva', 'Lucid', 'Arial', 'Helvetica', 'Avant Garde', sans-serif; text-anchor: end" x="55.478125" y="246.717344" transform="rotate(-0 55.478125 246.717344)">0</text>
     </g>
    </g>
    <g id="ytick_10">
     <g id="line2d_36">
      <g>
       <use xlink:href="#m81b9afa4ba" x="62.478125" y="216.262664" style="stroke: #000000; stroke-width: 0.8"/>
      </g>
     </g>
     <g id="text_17">
      <text style="font-size: 10px; font-family: 'DejaVu Sans', 'Bitstream Vera Sans', 'Computer Modern Sans Serif', 'Lucida Grande', 'Verdana', 'Geneva', 'Lucid', 'Arial', 'Helvetica', 'Avant Garde', sans-serif; text-anchor: end" x="55.478125" y="220.061882" transform="rotate(-0 55.478125 220.061882)">30</text>
     </g>
    </g>
    <g id="ytick_11">
     <g id="line2d_37">
      <g>
       <use xlink:href="#m81b9afa4ba" x="62.478125" y="189.607202" style="stroke: #000000; stroke-width: 0.8"/>
      </g>
     </g>
     <g id="text_18">
      <text style="font-size: 10px; font-family: 'DejaVu Sans', 'Bitstream Vera Sans', 'Computer Modern Sans Serif', 'Lucida Grande', 'Verdana', 'Geneva', 'Lucid', 'Arial', 'Helvetica', 'Avant Garde', sans-serif; text-anchor: end" x="55.478125" y="193.406421" transform="rotate(-0 55.478125 193.406421)">60</text>
     </g>
    </g>
    <g id="ytick_12">
     <g id="line2d_38">
      <g>
       <use xlink:href="#m81b9afa4ba" x="62.478125" y="162.951741" style="stroke: #000000; stroke-width: 0.8"/>
      </g>
     </g>
     <g id="text_19">
      <text style="font-size: 10px; font-family: 'DejaVu Sans', 'Bitstream Vera Sans', 'Computer Modern Sans Serif', 'Lucida Grande', 'Verdana', 'Geneva', 'Lucid', 'Arial', 'Helvetica', 'Avant Garde', sans-serif; text-anchor: end" x="55.478125" y="166.75096" transform="rotate(-0 55.478125 166.75096)">90</text>
     </g>
    </g>
    <g id="text_20">
     <text style="font-size: 10px; font-family: 'DejaVu Sans', 'Bitstream Vera Sans', 'Computer Modern Sans Serif', 'Lucida Grande', 'Verdana', 'Geneva', 'Lucid', 'Arial', 'Helvetica', 'Avant Garde', sans-serif; text-anchor: middle" x="36.673438" y="195.566125" transform="rotate(-90 36.673438 195.566125)">Directional Error (deg)</text>
    </g>
   </g>
   <g id="line2d_39">
    <path d="M 72.034882 166.078365 
L 76.585718 168.17031 
L 81.136555 166.522705 
L 85.687391 169.720615 
L 90.238228 174.331299 
L 94.789065 175.743107 
L 99.339901 178.863394 
L 103.890738 182.779279 
L 108.441574 185.215367 
L 112.992411 189.02093 
L 117.543247 191.323813 
L 122.094084 193.627974 
L 126.644921 195.532769 
L 131.195757 197.500578 
L 135.746594 201.387098 
L 140.29743 203.214196 
L 144.848267 203.977909 
L 149.399103 207.362781 
L 153.94994 208.295525 
L 158.500776 211.413392 
L 163.051613 211.730494 
L 167.60245 213.770376 
L 172.153286 213.788418 
L 176.704123 215.878149 
L 181.254959 218.004519 
L 185.805796 219.03646 
L 190.356632 219.500001 
L 194.907469 220.561952 
L 199.458306 222.115945 
L 204.009142 222.034727 
L 208.559979 224.831235 
L 213.110815 225.111445 
L 217.661652 225.465377 
L 222.212488 226.584154 
L 226.763325 227.129242 
L 231.314161 227.439311 
L 235.864998 228.176156 
L 240.415835 228.238947 
L 244.966671 229.169391 
L 249.517508 230.793122 
L 254.068344 230.148108 
L 258.619181 231.235397 
L 263.170017 230.777374 
" clip-path="url(#pa31553cc1d)" style="fill: none; stroke: #1f77b4; stroke-width: 1.5; stroke-linecap: square"/>
   </g>
   <g id="patch_8">
    <path d="M 62.478125 242.918125 
L 62.478125 148.214125 
" style="fill: none; stroke: #000000; stroke-width: 0.8; stroke-linejoin: miter; stroke-linecap: square"/>
   </g>
   <g id="patch_9">
    <path d="M 272.726774 242.918125 
L 272.726774 148.214125 
" style="fill: none; stroke: #000000; stroke-width: 0.8; stroke-linejoin: miter; stroke-linecap: square"/>
   </g>
   <g id="patch_10">
    <path d="M 62.478125 242.918125 
L 272.726774 242.918125 
" style="fill: none; stroke: #000000; stroke-width: 0.8; stroke-linejoin: miter; stroke-linecap: square"/>
   </g>
   <g id="patch_11">
    <path d="M 62.478125 148.214125 
L 272.726774 148.214125 
" style="fill: none; stroke: #000000; stroke-width: 0.8; stroke-linejoin: miter; stroke-linecap: square"/>
   </g>
  </g>
 </g>
 <defs>
  <clipPath id="pe1b0b83fba">
   <rect x="62.478125" y="22.318125" width="210.248649" height="94.704"/>
  </clipPath>
  <clipPath id="pa31553cc1d">
   <rect x="62.478125" y="148.214125" width="210.248649" height="94.704"/>
  </clipPath>
 </defs>
</svg>
