<?xml version="1.0" encoding="utf-8" standalone="no"?>
<!DOCTYPE svg PUBLIC "-//W3C//DTD SVG 1.1//EN"
  "http://www.w3.org/Graphics/SVG/1.1/DTD/svg11.dtd">
<svg xmlns:xlink="http://www.w3.org/1999/xlink" width="194.16pt" height="209.278125pt" viewBox="0 0 194.16 209.278125" xmlns="http://www.w3.org/2000/svg" version="1.1">
 <metadata>
  <rdf:RDF xmlns:dc="http://purl.org/dc/elements/1.1/" xmlns:cc="http://creativecommons.org/ns#" xmlns:rdf="http://www.w3.org/1999/02/22-rdf-syntax-ns#">
   <cc:Work>
    <dc:type rdf:resource="http://purl.org/dc/dcmitype/StillImage"/>
    <dc:date>2025-09-11T09:57:17.511551</dc:date>
    <dc:format>image/svg+xml</dc:format>
    <dc:creator>
     <cc:Agent>
      <dc:title>Matplotlib v3.10.0, https://matplotlib.org/</dc:title>
     </cc:Agent>
    </dc:creator>
   </cc:Work>
  </rdf:RDF>
 </metadata>
 <defs>
  <style type="text/css">*{stroke-linejoin: round; stroke-linecap: butt}</style>
 </defs>
 <g id="figure_1">
  <g id="patch_1">
   <path d="M 0 209.278125 
L 194.16 209.278125 
L 194.16 0 
L 0 0 
z
" style="fill: #ffffff"/>
  </g>
  <g id="axes_1">
   <g id="line2d_1">
    <defs>
     <path id="mc16b9250a3" d="M 0 2 
C 0.530406 2 1.03916 1.789267 1.414214 1.414214 
C 1.789267 1.03916 2 0.530406 2 0 
C 2 -0.530406 1.789267 -1.03916 1.414214 -1.414214 
C 1.03916 -1.789267 0.530406 -2 0 -2 
C -0.530406 -2 -1.03916 -1.789267 -1.414214 -1.414214 
C -1.789267 -1.03916 -2 -0.530406 -2 0 
C -2 0.530406 -1.789267 1.03916 -1.414214 1.414214 
C -1.03916 1.789267 -0.530406 2 0 2 
z
" style="stroke: #000000"/>
    </defs>
    <g clip-path="url(#p1c3e5519bb)">
     <use xlink:href="#mc16b9250a3" x="97.08" y="112.198125" style="stroke: #000000"/>
    </g>
   </g>
   <g id="line2d_2">
    <defs>
     <path id="md939b9a4b5" d="M 0 7.5 
C 1.989023 7.5 3.896849 6.709753 5.303301 5.303301 
C 6.709753 3.896849 7.5 1.989023 7.5 0 
C 7.5 -1.989023 6.709753 -3.896849 5.303301 -5.303301 
C 3.896849 -6.709753 1.989023 -7.5 0 -7.5 
C -1.989023 -7.5 -3.896849 -6.709753 -5.303301 -5.303301 
C -6.709753 -3.896849 -7.5 -1.989023 -7.5 0 
C -7.5 1.989023 -6.709753 3.896849 -5.303301 5.303301 
C -3.896849 6.709753 -1.989023 7.5 0 7.5 
z
" style="stroke: #ff0000"/>
    </defs>
    <g clip-path="url(#p1c3e5519bb)">
     <use xlink:href="#md939b9a4b5" x="151.008" y="112.198125" style="fill: #ff0000; stroke: #ff0000"/>
    </g>
   </g>
   <g id="line2d_3">
    <defs>
     <path id="m251aeacd3f" d="M 0 2 
C 0.530406 2 1.03916 1.789267 1.414214 1.414214 
C 1.789267 1.03916 2 0.530406 2 0 
C 2 -0.530406 1.789267 -1.03916 1.414214 -1.414214 
C 1.03916 -1.789267 0.530406 -2 0 -2 
C -0.530406 -2 -1.03916 -1.789267 -1.414214 -1.414214 
C -1.789267 -1.03916 -2 -0.530406 -2 0 
C -2 0.530406 -1.789267 1.03916 -1.414214 1.414214 
C -1.03916 1.789267 -0.530406 2 0 2 
z
" style="stroke: #ff0000"/>
    </defs>
    <g clip-path="url(#p1c3e5519bb)">
     <use xlink:href="#m251aeacd3f" x="143.135303" y="126.633415" style="fill: #ff0000; stroke: #ff0000"/>
    </g>
   </g>
   <g id="line2d_4">
    <g clip-path="url(#p1c3e5519bb)">
     <use xlink:href="#m251aeacd3f" x="151.773925" y="129.862808" style="fill: #ff0000; stroke: #ff0000"/>
    </g>
   </g>
   <g id="line2d_5">
    <g clip-path="url(#p1c3e5519bb)">
     <use xlink:href="#m251aeacd3f" x="141.591182" y="112.131892" style="fill: #ff0000; stroke: #ff0000"/>
    </g>
   </g>
   <g id="line2d_6">
    <g clip-path="url(#p1c3e5519bb)">
     <use xlink:href="#m251aeacd3f" x="146.661833" y="123.795172" style="fill: #ff0000; stroke: #ff0000"/>
    </g>
   </g>
   <g id="line2d_7">
    <g clip-path="url(#p1c3e5519bb)">
     <use xlink:href="#m251aeacd3f" x="145.181113" y="113.367401" style="fill: #ff0000; stroke: #ff0000"/>
    </g>
   </g>
   <g id="line2d_8">
    <g clip-path="url(#p1c3e5519bb)">
     <use xlink:href="#m251aeacd3f" x="137.363385" y="116.49644" style="fill: #ff0000; stroke: #ff0000"/>
    </g>
   </g>
   <g id="line2d_9">
    <g clip-path="url(#p1c3e5519bb)">
     <use xlink:href="#m251aeacd3f" x="133.57255" y="103.703013" style="fill: #ff0000; stroke: #ff0000"/>
    </g>
   </g>
   <g id="line2d_10">
    <g clip-path="url(#p1c3e5519bb)">
     <use xlink:href="#m251aeacd3f" x="140.437705" y="102.682176" style="fill: #ff0000; stroke: #ff0000"/>
    </g>
   </g>
   <g id="line2d_11">
    <g clip-path="url(#p1c3e5519bb)">
     <use xlink:href="#m251aeacd3f" x="151.999288" y="96.789081" style="fill: #ff0000; stroke: #ff0000"/>
    </g>
   </g>
   <g id="line2d_12">
    <g clip-path="url(#p1c3e5519bb)">
     <use xlink:href="#m251aeacd3f" x="126.373212" y="100.307471" style="fill: #ff0000; stroke: #ff0000"/>
    </g>
   </g>
   <g id="line2d_13">
    <defs>
     <path id="mac8b9c56c1" d="M 0 7.5 
C 1.989023 7.5 3.896849 6.709753 5.303301 5.303301 
C 6.709753 3.896849 7.5 1.989023 7.5 0 
C 7.5 -1.989023 6.709753 -3.896849 5.303301 -5.303301 
C 3.896849 -6.709753 1.989023 -7.5 0 -7.5 
C -1.989023 -7.5 -3.896849 -6.709753 -5.303301 -5.303301 
C -6.709753 -3.896849 -7.5 -1.989023 -7.5 0 
C -7.5 1.989023 -6.709753 3.896849 -5.303301 5.303301 
C -3.896849 6.709753 -1.989023 7.5 0 7.5 
z
" style="stroke: #ffbd00"/>
    </defs>
    <g clip-path="url(#p1c3e5519bb)">
     <use xlink:href="#mac8b9c56c1" x="135.212854" y="74.065271" style="fill: #ffbd00; stroke: #ffbd00"/>
    </g>
   </g>
   <g id="line2d_14">
    <defs>
     <path id="ma0fe1467d1" d="M 0 2 
C 0.530406 2 1.03916 1.789267 1.414214 1.414214 
C 1.789267 1.03916 2 0.530406 2 0 
C 2 -0.530406 1.789267 -1.03916 1.414214 -1.414214 
C 1.03916 -1.789267 0.530406 -2 0 -2 
C -0.530406 -2 -1.03916 -1.789267 -1.414214 -1.414214 
C -1.789267 -1.03916 -2 -0.530406 -2 0 
C -2 0.530406 -1.789267 1.03916 -1.414214 1.414214 
C -1.03916 1.789267 -0.530406 2 0 2 
z
" style="stroke: #ffbd00"/>
    </defs>
    <g clip-path="url(#p1c3e5519bb)">
     <use xlink:href="#ma0fe1467d1" x="115.972032" y="80.237273" style="fill: #ffbd00; stroke: #ffbd00"/>
    </g>
   </g>
   <g id="line2d_15">
    <g clip-path="url(#p1c3e5519bb)">
     <use xlink:href="#ma0fe1467d1" x="116.595533" y="68.240007" style="fill: #ffbd00; stroke: #ffbd00"/>
    </g>
   </g>
   <g id="line2d_16">
    <g clip-path="url(#p1c3e5519bb)">
     <use xlink:href="#ma0fe1467d1" x="128.572232" y="61.092626" style="fill: #ffbd00; stroke: #ffbd00"/>
    </g>
   </g>
   <g id="line2d_17">
    <g clip-path="url(#p1c3e5519bb)">
     <use xlink:href="#ma0fe1467d1" x="126.475554" y="62.905075" style="fill: #ffbd00; stroke: #ffbd00"/>
    </g>
   </g>
   <g id="line2d_18">
    <g clip-path="url(#p1c3e5519bb)">
     <use xlink:href="#ma0fe1467d1" x="117.776978" y="74.397539" style="fill: #ffbd00; stroke: #ffbd00"/>
    </g>
   </g>
   <g id="line2d_19">
    <g clip-path="url(#p1c3e5519bb)">
     <use xlink:href="#ma0fe1467d1" x="137.942538" y="52.600332" style="fill: #ffbd00; stroke: #ffbd00"/>
    </g>
   </g>
   <g id="line2d_20">
    <g clip-path="url(#p1c3e5519bb)">
     <use xlink:href="#ma0fe1467d1" x="122.111625" y="71.643144" style="fill: #ffbd00; stroke: #ffbd00"/>
    </g>
   </g>
   <g id="line2d_21">
    <g clip-path="url(#p1c3e5519bb)">
     <use xlink:href="#ma0fe1467d1" x="117.178538" y="75.172342" style="fill: #ffbd00; stroke: #ffbd00"/>
    </g>
   </g>
   <g id="line2d_22">
    <g clip-path="url(#p1c3e5519bb)">
     <use xlink:href="#ma0fe1467d1" x="126.663971" y="86.726974" style="fill: #ffbd00; stroke: #ffbd00"/>
    </g>
   </g>
   <g id="line2d_23">
    <g clip-path="url(#p1c3e5519bb)">
     <use xlink:href="#ma0fe1467d1" x="126.017461" y="84.064152" style="fill: #ffbd00; stroke: #ffbd00"/>
    </g>
   </g>
   <g id="line2d_24">
    <defs>
     <path id="mebeed51d97" d="M 0 7.5 
C 1.989023 7.5 3.896849 6.709753 5.303301 5.303301 
C 6.709753 3.896849 7.5 1.989023 7.5 0 
C 7.5 -1.989023 6.709753 -3.896849 5.303301 -5.303301 
C 3.896849 -6.709753 1.989023 -7.5 0 -7.5 
C -1.989023 -7.5 -3.896849 -6.709753 -5.303301 -5.303301 
C -6.709753 -3.896849 -7.5 -1.989023 -7.5 0 
C -7.5 1.989023 -6.709753 3.896849 -5.303301 5.303301 
C -3.896849 6.709753 -1.989023 7.5 0 7.5 
z
" style="stroke: #84ff00"/>
    </defs>
    <g clip-path="url(#p1c3e5519bb)">
     <use xlink:href="#mebeed51d97" x="97.08" y="58.270125" style="fill: #84ff00; stroke: #84ff00"/>
    </g>
   </g>
   <g id="line2d_25">
    <defs>
     <path id="m27cddf0dc4" d="M 0 2 
C 0.530406 2 1.03916 1.789267 1.414214 1.414214 
C 1.789267 1.03916 2 0.530406 2 0 
C 2 -0.530406 1.789267 -1.03916 1.414214 -1.414214 
C 1.03916 -1.789267 0.530406 -2 0 -2 
C -0.530406 -2 -1.03916 -1.789267 -1.414214 -1.414214 
C -1.789267 -1.03916 -2 -0.530406 -2 0 
C -2 0.530406 -1.789267 1.03916 -1.414214 1.414214 
C -1.03916 1.789267 -0.530406 2 0 2 
z
" style="stroke: #84ff00"/>
    </defs>
    <g clip-path="url(#p1c3e5519bb)">
     <use xlink:href="#m27cddf0dc4" x="84.086066" y="83.693954" style="fill: #84ff00; stroke: #84ff00"/>
    </g>
   </g>
   <g id="line2d_26">
    <g clip-path="url(#p1c3e5519bb)">
     <use xlink:href="#m27cddf0dc4" x="92.556708" y="64.940108" style="fill: #84ff00; stroke: #84ff00"/>
    </g>
   </g>
   <g id="line2d_27">
    <g clip-path="url(#p1c3e5519bb)">
     <use xlink:href="#m27cddf0dc4" x="90.924707" y="68.238914" style="fill: #84ff00; stroke: #84ff00"/>
    </g>
   </g>
   <g id="line2d_28">
    <g clip-path="url(#p1c3e5519bb)">
     <use xlink:href="#m27cddf0dc4" x="96.318924" y="62.54855" style="fill: #84ff00; stroke: #84ff00"/>
    </g>
   </g>
   <g id="line2d_29">
    <g clip-path="url(#p1c3e5519bb)">
     <use xlink:href="#m27cddf0dc4" x="89.562242" y="58.994279" style="fill: #84ff00; stroke: #84ff00"/>
    </g>
   </g>
   <g id="line2d_30">
    <g clip-path="url(#p1c3e5519bb)">
     <use xlink:href="#m27cddf0dc4" x="97.061035" y="85.371765" style="fill: #84ff00; stroke: #84ff00"/>
    </g>
   </g>
   <g id="line2d_31">
    <g clip-path="url(#p1c3e5519bb)">
     <use xlink:href="#m27cddf0dc4" x="95.055801" y="78.334172" style="fill: #84ff00; stroke: #84ff00"/>
    </g>
   </g>
   <g id="line2d_32">
    <g clip-path="url(#p1c3e5519bb)">
     <use xlink:href="#m27cddf0dc4" x="95.338057" y="72.910993" style="fill: #84ff00; stroke: #84ff00"/>
    </g>
   </g>
   <g id="line2d_33">
    <g clip-path="url(#p1c3e5519bb)">
     <use xlink:href="#m27cddf0dc4" x="90.954986" y="69.709313" style="fill: #84ff00; stroke: #84ff00"/>
    </g>
   </g>
   <g id="line2d_34">
    <g clip-path="url(#p1c3e5519bb)">
     <use xlink:href="#m27cddf0dc4" x="98.34081" y="79.408827" style="fill: #84ff00; stroke: #84ff00"/>
    </g>
   </g>
   <g id="line2d_35">
    <defs>
     <path id="m5baf74c71b" d="M 0 7.5 
C 1.989023 7.5 3.896849 6.709753 5.303301 5.303301 
C 6.709753 3.896849 7.5 1.989023 7.5 0 
C 7.5 -1.989023 6.709753 -3.896849 5.303301 -5.303301 
C 3.896849 -6.709753 1.989023 -7.5 0 -7.5 
C -1.989023 -7.5 -3.896849 -6.709753 -5.303301 -5.303301 
C -6.709753 -3.896849 -7.5 -1.989023 -7.5 0 
C -7.5 1.989023 -6.709753 3.896849 -5.303301 5.303301 
C -3.896849 6.709753 -1.989023 7.5 0 7.5 
z
" style="stroke: #00ff39"/>
    </defs>
    <g clip-path="url(#p1c3e5519bb)">
     <use xlink:href="#m5baf74c71b" x="58.947146" y="74.065271" style="fill: #00ff39; stroke: #00ff39"/>
    </g>
   </g>
   <g id="line2d_36">
    <defs>
     <path id="m9cbaf69f88" d="M 0 2 
C 0.530406 2 1.03916 1.789267 1.414214 1.414214 
C 1.789267 1.03916 2 0.530406 2 0 
C 2 -0.530406 1.789267 -1.03916 1.414214 -1.414214 
C 1.03916 -1.789267 0.530406 -2 0 -2 
C -0.530406 -2 -1.03916 -1.789267 -1.414214 -1.414214 
C -1.789267 -1.03916 -2 -0.530406 -2 0 
C -2 0.530406 -1.789267 1.03916 -1.414214 1.414214 
C -1.03916 1.789267 -0.530406 2 0 2 
z
" style="stroke: #00ff39"/>
    </defs>
    <g clip-path="url(#p1c3e5519bb)">
     <use xlink:href="#m9cbaf69f88" x="70.410977" y="94.586916" style="fill: #00ff39; stroke: #00ff39"/>
    </g>
   </g>
   <g id="line2d_37">
    <g clip-path="url(#p1c3e5519bb)">
     <use xlink:href="#m9cbaf69f88" x="65.385026" y="92.474171" style="fill: #00ff39; stroke: #00ff39"/>
    </g>
   </g>
   <g id="line2d_38">
    <g clip-path="url(#p1c3e5519bb)">
     <use xlink:href="#m9cbaf69f88" x="74.099262" y="83.731577" style="fill: #00ff39; stroke: #00ff39"/>
    </g>
   </g>
   <g id="line2d_39">
    <g clip-path="url(#p1c3e5519bb)">
     <use xlink:href="#m9cbaf69f88" x="69.205564" y="96.693011" style="fill: #00ff39; stroke: #00ff39"/>
    </g>
   </g>
   <g id="line2d_40">
    <g clip-path="url(#p1c3e5519bb)">
     <use xlink:href="#m9cbaf69f88" x="74.923257" y="88.347534" style="fill: #00ff39; stroke: #00ff39"/>
    </g>
   </g>
   <g id="line2d_41">
    <g clip-path="url(#p1c3e5519bb)">
     <use xlink:href="#m9cbaf69f88" x="65.946073" y="96.386397" style="fill: #00ff39; stroke: #00ff39"/>
    </g>
   </g>
   <g id="line2d_42">
    <g clip-path="url(#p1c3e5519bb)">
     <use xlink:href="#m9cbaf69f88" x="79.086943" y="94.788573" style="fill: #00ff39; stroke: #00ff39"/>
    </g>
   </g>
   <g id="line2d_43">
    <g clip-path="url(#p1c3e5519bb)">
     <use xlink:href="#m9cbaf69f88" x="82.952422" y="83.024922" style="fill: #00ff39; stroke: #00ff39"/>
    </g>
   </g>
   <g id="line2d_44">
    <g clip-path="url(#p1c3e5519bb)">
     <use xlink:href="#m9cbaf69f88" x="65.332904" y="91.819113" style="fill: #00ff39; stroke: #00ff39"/>
    </g>
   </g>
   <g id="line2d_45">
    <g clip-path="url(#p1c3e5519bb)">
     <use xlink:href="#m9cbaf69f88" x="68.74921" y="83.854968" style="fill: #00ff39; stroke: #00ff39"/>
    </g>
   </g>
   <g id="line2d_46">
    <defs>
     <path id="m51f5067fd2" d="M 0 7.5 
C 1.989023 7.5 3.896849 6.709753 5.303301 5.303301 
C 6.709753 3.896849 7.5 1.989023 7.5 0 
C 7.5 -1.989023 6.709753 -3.896849 5.303301 -5.303301 
C 3.896849 -6.709753 1.989023 -7.5 0 -7.5 
C -1.989023 -7.5 -3.896849 -6.709753 -5.303301 -5.303301 
C -6.709753 -3.896849 -7.5 -1.989023 -7.5 0 
C -7.5 1.989023 -6.709753 3.896849 -5.303301 5.303301 
C -3.896849 6.709753 -1.989023 7.5 0 7.5 
z
" style="stroke: #00fff6"/>
    </defs>
    <g clip-path="url(#p1c3e5519bb)">
     <use xlink:href="#m51f5067fd2" x="43.152" y="112.198125" style="fill: #00fff6; stroke: #00fff6"/>
    </g>
   </g>
   <g id="line2d_47">
    <defs>
     <path id="m761daf26cc" d="M 0 2 
C 0.530406 2 1.03916 1.789267 1.414214 1.414214 
C 1.789267 1.03916 2 0.530406 2 0 
C 2 -0.530406 1.789267 -1.03916 1.414214 -1.414214 
C 1.03916 -1.789267 0.530406 -2 0 -2 
C -0.530406 -2 -1.03916 -1.789267 -1.414214 -1.414214 
C -1.789267 -1.03916 -2 -0.530406 -2 0 
C -2 0.530406 -1.789267 1.03916 -1.414214 1.414214 
C -1.03916 1.789267 -0.530406 2 0 2 
z
" style="stroke: #00fff6"/>
    </defs>
    <g clip-path="url(#p1c3e5519bb)">
     <use xlink:href="#m761daf26cc" x="56.897487" y="123.722677" style="fill: #00fff6; stroke: #00fff6"/>
    </g>
   </g>
   <g id="line2d_48">
    <g clip-path="url(#p1c3e5519bb)">
     <use xlink:href="#m761daf26cc" x="45.898217" y="119.795787" style="fill: #00fff6; stroke: #00fff6"/>
    </g>
   </g>
   <g id="line2d_49">
    <g clip-path="url(#p1c3e5519bb)">
     <use xlink:href="#m761daf26cc" x="40.926315" y="132.730459" style="fill: #00fff6; stroke: #00fff6"/>
    </g>
   </g>
   <g id="line2d_50">
    <g clip-path="url(#p1c3e5519bb)">
     <use xlink:href="#m761daf26cc" x="49.202771" y="115.998151" style="fill: #00fff6; stroke: #00fff6"/>
    </g>
   </g>
   <g id="line2d_51">
    <g clip-path="url(#p1c3e5519bb)">
     <use xlink:href="#m761daf26cc" x="45.772542" y="113.532864" style="fill: #00fff6; stroke: #00fff6"/>
    </g>
   </g>
   <g id="line2d_52">
    <g clip-path="url(#p1c3e5519bb)">
     <use xlink:href="#m761daf26cc" x="43.279399" y="116.965761" style="fill: #00fff6; stroke: #00fff6"/>
    </g>
   </g>
   <g id="line2d_53">
    <g clip-path="url(#p1c3e5519bb)">
     <use xlink:href="#m761daf26cc" x="46.365887" y="132.498792" style="fill: #00fff6; stroke: #00fff6"/>
    </g>
   </g>
   <g id="line2d_54">
    <g clip-path="url(#p1c3e5519bb)">
     <use xlink:href="#m761daf26cc" x="54.770651" y="118.302748" style="fill: #00fff6; stroke: #00fff6"/>
    </g>
   </g>
   <g id="line2d_55">
    <g clip-path="url(#p1c3e5519bb)">
     <use xlink:href="#m761daf26cc" x="56.947343" y="125.621485" style="fill: #00fff6; stroke: #00fff6"/>
    </g>
   </g>
   <g id="line2d_56">
    <g clip-path="url(#p1c3e5519bb)">
     <use xlink:href="#m761daf26cc" x="45.209327" y="113.987051" style="fill: #00fff6; stroke: #00fff6"/>
    </g>
   </g>
   <g id="line2d_57">
    <defs>
     <path id="mef4e4452fd" d="M 0 7.5 
C 1.989023 7.5 3.896849 6.709753 5.303301 5.303301 
C 6.709753 3.896849 7.5 1.989023 7.5 0 
C 7.5 -1.989023 6.709753 -3.896849 5.303301 -5.303301 
C 3.896849 -6.709753 1.989023 -7.5 0 -7.5 
C -1.989023 -7.5 -3.896849 -6.709753 -5.303301 -5.303301 
C -6.709753 -3.896849 -7.5 -1.989023 -7.5 0 
C -7.5 1.989023 -6.709753 3.896849 -5.303301 5.303301 
C -3.896849 6.709753 -1.989023 7.5 0 7.5 
z
" style="stroke: #004bff"/>
    </defs>
    <g clip-path="url(#p1c3e5519bb)">
     <use xlink:href="#mef4e4452fd" x="58.947146" y="150.330979" style="fill: #004bff; stroke: #004bff"/>
    </g>
   </g>
   <g id="line2d_58">
    <defs>
     <path id="m0bb8863c69" d="M 0 2 
C 0.530406 2 1.03916 1.789267 1.414214 1.414214 
C 1.789267 1.03916 2 0.530406 2 0 
C 2 -0.530406 1.789267 -1.03916 1.414214 -1.414214 
C 1.03916 -1.789267 0.530406 -2 0 -2 
C -0.530406 -2 -1.03916 -1.789267 -1.414214 -1.414214 
C -1.789267 -1.03916 -2 -0.530406 -2 0 
C -2 0.530406 -1.789267 1.03916 -1.414214 1.414214 
C -1.03916 1.789267 -0.530406 2 0 2 
z
" style="stroke: #004bff"/>
    </defs>
    <g clip-path="url(#p1c3e5519bb)">
     <use xlink:href="#m0bb8863c69" x="66.587377" y="149.932467" style="fill: #004bff; stroke: #004bff"/>
    </g>
   </g>
   <g id="line2d_59">
    <g clip-path="url(#p1c3e5519bb)">
     <use xlink:href="#m0bb8863c69" x="69.373354" y="152.943211" style="fill: #004bff; stroke: #004bff"/>
    </g>
   </g>
   <g id="line2d_60">
    <g clip-path="url(#p1c3e5519bb)">
     <use xlink:href="#m0bb8863c69" x="74.821057" y="153.824441" style="fill: #004bff; stroke: #004bff"/>
    </g>
   </g>
   <g id="line2d_61">
    <g clip-path="url(#p1c3e5519bb)">
     <use xlink:href="#m0bb8863c69" x="65.902815" y="155.167169" style="fill: #004bff; stroke: #004bff"/>
    </g>
   </g>
   <g id="line2d_62">
    <g clip-path="url(#p1c3e5519bb)">
     <use xlink:href="#m0bb8863c69" x="70.625763" y="140.16611" style="fill: #004bff; stroke: #004bff"/>
    </g>
   </g>
   <g id="line2d_63">
    <g clip-path="url(#p1c3e5519bb)">
     <use xlink:href="#m0bb8863c69" x="54.847078" y="151.836752" style="fill: #004bff; stroke: #004bff"/>
    </g>
   </g>
   <g id="line2d_64">
    <g clip-path="url(#p1c3e5519bb)">
     <use xlink:href="#m0bb8863c69" x="59.365987" y="138.653756" style="fill: #004bff; stroke: #004bff"/>
    </g>
   </g>
   <g id="line2d_65">
    <g clip-path="url(#p1c3e5519bb)">
     <use xlink:href="#m0bb8863c69" x="59.138624" y="149.569849" style="fill: #004bff; stroke: #004bff"/>
    </g>
   </g>
   <g id="line2d_66">
    <g clip-path="url(#p1c3e5519bb)">
     <use xlink:href="#m0bb8863c69" x="58.685192" y="143.801934" style="fill: #004bff; stroke: #004bff"/>
    </g>
   </g>
   <g id="line2d_67">
    <g clip-path="url(#p1c3e5519bb)">
     <use xlink:href="#m0bb8863c69" x="65.134104" y="168.115516" style="fill: #004bff; stroke: #004bff"/>
    </g>
   </g>
   <g id="line2d_68">
    <defs>
     <path id="md687b8a159" d="M 0 7.5 
C 1.989023 7.5 3.896849 6.709753 5.303301 5.303301 
C 6.709753 3.896849 7.5 1.989023 7.5 0 
C 7.5 -1.989023 6.709753 -3.896849 5.303301 -5.303301 
C 3.896849 -6.709753 1.989023 -7.5 0 -7.5 
C -1.989023 -7.5 -3.896849 -6.709753 -5.303301 -5.303301 
C -6.709753 -3.896849 -7.5 -1.989023 -7.5 0 
C -7.5 1.989023 -6.709753 3.896849 -5.303301 5.303301 
C -3.896849 6.709753 -1.989023 7.5 0 7.5 
z
" style="stroke: #7200ff"/>
    </defs>
    <g clip-path="url(#p1c3e5519bb)">
     <use xlink:href="#md687b8a159" x="97.08" y="166.126125" style="fill: #7200ff; stroke: #7200ff"/>
    </g>
   </g>
   <g id="line2d_69">
    <defs>
     <path id="mcf44d458e8" d="M 0 2 
C 0.530406 2 1.03916 1.789267 1.414214 1.414214 
C 1.789267 1.03916 2 0.530406 2 0 
C 2 -0.530406 1.789267 -1.03916 1.414214 -1.414214 
C 1.03916 -1.789267 0.530406 -2 0 -2 
C -0.530406 -2 -1.03916 -1.789267 -1.414214 -1.414214 
C -1.789267 -1.03916 -2 -0.530406 -2 0 
C -2 0.530406 -1.789267 1.03916 -1.414214 1.414214 
C -1.03916 1.789267 -0.530406 2 0 2 
z
" style="stroke: #7200ff"/>
    </defs>
    <g clip-path="url(#p1c3e5519bb)">
     <use xlink:href="#mcf44d458e8" x="79.54942" y="159.856426" style="fill: #7200ff; stroke: #7200ff"/>
    </g>
   </g>
   <g id="line2d_70">
    <g clip-path="url(#p1c3e5519bb)">
     <use xlink:href="#mcf44d458e8" x="87.466504" y="167.193522" style="fill: #7200ff; stroke: #7200ff"/>
    </g>
   </g>
   <g id="line2d_71">
    <g clip-path="url(#p1c3e5519bb)">
     <use xlink:href="#mcf44d458e8" x="100.824238" y="165.665952" style="fill: #7200ff; stroke: #7200ff"/>
    </g>
   </g>
   <g id="line2d_72">
    <g clip-path="url(#p1c3e5519bb)">
     <use xlink:href="#mcf44d458e8" x="89.444259" y="181.255012" style="fill: #7200ff; stroke: #7200ff"/>
    </g>
   </g>
   <g id="line2d_73">
    <g clip-path="url(#p1c3e5519bb)">
     <use xlink:href="#mcf44d458e8" x="88.770999" y="165.622218" style="fill: #7200ff; stroke: #7200ff"/>
    </g>
   </g>
   <g id="line2d_74">
    <g clip-path="url(#p1c3e5519bb)">
     <use xlink:href="#mcf44d458e8" x="89.232357" y="165.511492" style="fill: #7200ff; stroke: #7200ff"/>
    </g>
   </g>
   <g id="line2d_75">
    <g clip-path="url(#p1c3e5519bb)">
     <use xlink:href="#mcf44d458e8" x="97.744983" y="173.154227" style="fill: #7200ff; stroke: #7200ff"/>
    </g>
   </g>
   <g id="line2d_76">
    <g clip-path="url(#p1c3e5519bb)">
     <use xlink:href="#mcf44d458e8" x="96.123543" y="175.594267" style="fill: #7200ff; stroke: #7200ff"/>
    </g>
   </g>
   <g id="line2d_77">
    <g clip-path="url(#p1c3e5519bb)">
     <use xlink:href="#mcf44d458e8" x="108.427574" y="161.153006" style="fill: #7200ff; stroke: #7200ff"/>
    </g>
   </g>
   <g id="line2d_78">
    <g clip-path="url(#p1c3e5519bb)">
     <use xlink:href="#mcf44d458e8" x="96.058955" y="146.026621" style="fill: #7200ff; stroke: #7200ff"/>
    </g>
   </g>
   <g id="line2d_79">
    <defs>
     <path id="m61f77ccc4e" d="M 0 7.5 
C 1.989023 7.5 3.896849 6.709753 5.303301 5.303301 
C 6.709753 3.896849 7.5 1.989023 7.5 0 
C 7.5 -1.989023 6.709753 -3.896849 5.303301 -5.303301 
C 3.896849 -6.709753 1.989023 -7.5 0 -7.5 
C -1.989023 -7.5 -3.896849 -6.709753 -5.303301 -5.303301 
C -6.709753 -3.896849 -7.5 -1.989023 -7.5 0 
C -7.5 1.989023 -6.709753 3.896849 -5.303301 5.303301 
C -3.896849 6.709753 -1.989023 7.5 0 7.5 
z
" style="stroke: #ff00cf"/>
    </defs>
    <g clip-path="url(#p1c3e5519bb)">
     <use xlink:href="#m61f77ccc4e" x="135.212854" y="150.330979" style="fill: #ff00cf; stroke: #ff00cf"/>
    </g>
   </g>
   <g id="line2d_80">
    <defs>
     <path id="mb391a80fb5" d="M 0 2 
C 0.530406 2 1.03916 1.789267 1.414214 1.414214 
C 1.789267 1.03916 2 0.530406 2 0 
C 2 -0.530406 1.789267 -1.03916 1.414214 -1.414214 
C 1.03916 -1.789267 0.530406 -2 0 -2 
C -0.530406 -2 -1.03916 -1.789267 -1.414214 -1.414214 
C -1.789267 -1.03916 -2 -0.530406 -2 0 
C -2 0.530406 -1.789267 1.03916 -1.414214 1.414214 
C -1.03916 1.789267 -0.530406 2 0 2 
z
" style="stroke: #ff00cf"/>
    </defs>
    <g clip-path="url(#p1c3e5519bb)">
     <use xlink:href="#mb391a80fb5" x="133.489291" y="143.591973" style="fill: #ff00cf; stroke: #ff00cf"/>
    </g>
   </g>
   <g id="line2d_81">
    <g clip-path="url(#p1c3e5519bb)">
     <use xlink:href="#mb391a80fb5" x="115.434413" y="153.512162" style="fill: #ff00cf; stroke: #ff00cf"/>
    </g>
   </g>
   <g id="line2d_82">
    <g clip-path="url(#p1c3e5519bb)">
     <use xlink:href="#mb391a80fb5" x="120.517309" y="157.205015" style="fill: #ff00cf; stroke: #ff00cf"/>
    </g>
   </g>
   <g id="line2d_83">
    <g clip-path="url(#p1c3e5519bb)">
     <use xlink:href="#mb391a80fb5" x="136.699231" y="148.14106" style="fill: #ff00cf; stroke: #ff00cf"/>
    </g>
   </g>
   <g id="line2d_84">
    <g clip-path="url(#p1c3e5519bb)">
     <use xlink:href="#mb391a80fb5" x="126.135658" y="150.262557" style="fill: #ff00cf; stroke: #ff00cf"/>
    </g>
   </g>
   <g id="line2d_85">
    <g clip-path="url(#p1c3e5519bb)">
     <use xlink:href="#mb391a80fb5" x="151.214265" y="165.533847" style="fill: #ff00cf; stroke: #ff00cf"/>
    </g>
   </g>
   <g id="line2d_86">
    <g clip-path="url(#p1c3e5519bb)">
     <use xlink:href="#mb391a80fb5" x="126.51532" y="150.471115" style="fill: #ff00cf; stroke: #ff00cf"/>
    </g>
   </g>
   <g id="line2d_87">
    <g clip-path="url(#p1c3e5519bb)">
     <use xlink:href="#mb391a80fb5" x="141.64219" y="151.564045" style="fill: #ff00cf; stroke: #ff00cf"/>
    </g>
   </g>
   <g id="line2d_88">
    <g clip-path="url(#p1c3e5519bb)">
     <use xlink:href="#mb391a80fb5" x="139.638792" y="151.594393" style="fill: #ff00cf; stroke: #ff00cf"/>
    </g>
   </g>
   <g id="line2d_89">
    <g clip-path="url(#p1c3e5519bb)">
     <use xlink:href="#mb391a80fb5" x="134.266579" y="142.456878" style="fill: #ff00cf; stroke: #ff00cf"/>
    </g>
   </g>
   <g id="text_1">
    <text style="font-size: 12px; font-family: 'DejaVu Sans', 'Bitstream Vera Sans', 'Computer Modern Sans Serif', 'Lucida Grande', 'Verdana', 'Geneva', 'Lucid', 'Arial', 'Helvetica', 'Avant Garde', sans-serif; text-anchor: middle" x="97.08" y="16.318125" transform="rotate(-0 97.08 16.318125)">Policy Snapshot @ Trial 2599</text>
   </g>
  </g>
 </g>
 <defs>
  <clipPath id="p1c3e5519bb">
   <rect x="7.2" y="22.318125" width="179.76" height="179.76"/>
  </clipPath>
 </defs>
</svg>
