<?xml version="1.0" encoding="utf-8" standalone="no"?>
<!DOCTYPE svg PUBLIC "-//W3C//DTD SVG 1.1//EN"
  "http://www.w3.org/Graphics/SVG/1.1/DTD/svg11.dtd">
<svg xmlns:xlink="http://www.w3.org/1999/xlink" width="194.16pt" height="209.278125pt" viewBox="0 0 194.16 209.278125" xmlns="http://www.w3.org/2000/svg" version="1.1">
 <metadata>
  <rdf:RDF xmlns:dc="http://purl.org/dc/elements/1.1/" xmlns:cc="http://creativecommons.org/ns#" xmlns:rdf="http://www.w3.org/1999/02/22-rdf-syntax-ns#">
   <cc:Work>
    <dc:type rdf:resource="http://purl.org/dc/dcmitype/StillImage"/>
    <dc:date>2025-09-12T16:51:39.143555</dc:date>
    <dc:format>image/svg+xml</dc:format>
    <dc:creator>
     <cc:Agent>
      <dc:title>Matplotlib v3.10.0, https://matplotlib.org/</dc:title>
     </cc:Agent>
    </dc:creator>
   </cc:Work>
  </rdf:RDF>
 </metadata>
 <defs>
  <style type="text/css">*{stroke-linejoin: round; stroke-linecap: butt}</style>
 </defs>
 <g id="figure_1">
  <g id="patch_1">
   <path d="M 0 209.278125 
L 194.16 209.278125 
L 194.16 0 
L 0 0 
z
" style="fill: #ffffff"/>
  </g>
  <g id="axes_1">
   <g id="line2d_1">
    <defs>
     <path id="m0601795002" d="M 0 2 
C 0.530406 2 1.03916 1.789267 1.414214 1.414214 
C 1.789267 1.03916 2 0.530406 2 0 
C 2 -0.530406 1.789267 -1.03916 1.414214 -1.414214 
C 1.03916 -1.789267 0.530406 -2 0 -2 
C -0.530406 -2 -1.03916 -1.789267 -1.414214 -1.414214 
C -1.789267 -1.03916 -2 -0.530406 -2 0 
C -2 0.530406 -1.789267 1.03916 -1.414214 1.414214 
C -1.03916 1.789267 -0.530406 2 0 2 
z
" style="stroke: #000000"/>
    </defs>
    <g clip-path="url(#p647962ebf5)">
     <use xlink:href="#m0601795002" x="97.08" y="112.198125" style="stroke: #000000"/>
    </g>
   </g>
   <g id="line2d_2">
    <defs>
     <path id="m936039ab73" d="M 0 7.5 
C 1.989023 7.5 3.896849 6.709753 5.303301 5.303301 
C 6.709753 3.896849 7.5 1.989023 7.5 0 
C 7.5 -1.989023 6.709753 -3.896849 5.303301 -5.303301 
C 3.896849 -6.709753 1.989023 -7.5 0 -7.5 
C -1.989023 -7.5 -3.896849 -6.709753 -5.303301 -5.303301 
C -6.709753 -3.896849 -7.5 -1.989023 -7.5 0 
C -7.5 1.989023 -6.709753 3.896849 -5.303301 5.303301 
C -3.896849 6.709753 -1.989023 7.5 0 7.5 
z
" style="stroke: #ff0000"/>
    </defs>
    <g clip-path="url(#p647962ebf5)">
     <use xlink:href="#m936039ab73" x="151.008" y="112.198125" style="fill: #ff0000; stroke: #ff0000"/>
    </g>
   </g>
   <g id="line2d_3">
    <defs>
     <path id="m8ff653a1ed" d="M 0 2 
C 0.530406 2 1.03916 1.789267 1.414214 1.414214 
C 1.789267 1.03916 2 0.530406 2 0 
C 2 -0.530406 1.789267 -1.03916 1.414214 -1.414214 
C 1.03916 -1.789267 0.530406 -2 0 -2 
C -0.530406 -2 -1.03916 -1.789267 -1.414214 -1.414214 
C -1.789267 -1.03916 -2 -0.530406 -2 0 
C -2 0.530406 -1.789267 1.03916 -1.414214 1.414214 
C -1.03916 1.789267 -0.530406 2 0 2 
z
" style="stroke: #ff0000"/>
    </defs>
    <g clip-path="url(#p647962ebf5)">
     <use xlink:href="#m8ff653a1ed" x="128.695435" y="129.870441" style="fill: #ff0000; stroke: #ff0000"/>
    </g>
   </g>
   <g id="line2d_4">
    <g clip-path="url(#p647962ebf5)">
     <use xlink:href="#m8ff653a1ed" x="126.511506" y="113.898833" style="fill: #ff0000; stroke: #ff0000"/>
    </g>
   </g>
   <g id="line2d_5">
    <g clip-path="url(#p647962ebf5)">
     <use xlink:href="#m8ff653a1ed" x="127.284836" y="110.028113" style="fill: #ff0000; stroke: #ff0000"/>
    </g>
   </g>
   <g id="line2d_6">
    <g clip-path="url(#p647962ebf5)">
     <use xlink:href="#m8ff653a1ed" x="119.539329" y="116.37214" style="fill: #ff0000; stroke: #ff0000"/>
    </g>
   </g>
   <g id="line2d_7">
    <g clip-path="url(#p647962ebf5)">
     <use xlink:href="#m8ff653a1ed" x="121.624268" y="111.992198" style="fill: #ff0000; stroke: #ff0000"/>
    </g>
   </g>
   <g id="line2d_8">
    <g clip-path="url(#p647962ebf5)">
     <use xlink:href="#m8ff653a1ed" x="121.323632" y="114.528921" style="fill: #ff0000; stroke: #ff0000"/>
    </g>
   </g>
   <g id="line2d_9">
    <g clip-path="url(#p647962ebf5)">
     <use xlink:href="#m8ff653a1ed" x="140.634009" y="118.474061" style="fill: #ff0000; stroke: #ff0000"/>
    </g>
   </g>
   <g id="line2d_10">
    <g clip-path="url(#p647962ebf5)">
     <use xlink:href="#m8ff653a1ed" x="152.03503" y="105.615355" style="fill: #ff0000; stroke: #ff0000"/>
    </g>
   </g>
   <g id="line2d_11">
    <g clip-path="url(#p647962ebf5)">
     <use xlink:href="#m8ff653a1ed" x="126.498155" y="130.357558" style="fill: #ff0000; stroke: #ff0000"/>
    </g>
   </g>
   <g id="line2d_12">
    <g clip-path="url(#p647962ebf5)">
     <use xlink:href="#m8ff653a1ed" x="140.260247" y="106.784137" style="fill: #ff0000; stroke: #ff0000"/>
    </g>
   </g>
   <g id="line2d_13">
    <defs>
     <path id="ma2e7ac7077" d="M 0 7.5 
C 1.989023 7.5 3.896849 6.709753 5.303301 5.303301 
C 6.709753 3.896849 7.5 1.989023 7.5 0 
C 7.5 -1.989023 6.709753 -3.896849 5.303301 -5.303301 
C 3.896849 -6.709753 1.989023 -7.5 0 -7.5 
C -1.989023 -7.5 -3.896849 -6.709753 -5.303301 -5.303301 
C -6.709753 -3.896849 -7.5 -1.989023 -7.5 0 
C -7.5 1.989023 -6.709753 3.896849 -5.303301 5.303301 
C -3.896849 6.709753 -1.989023 7.5 0 7.5 
z
" style="stroke: #ffbd00"/>
    </defs>
    <g clip-path="url(#p647962ebf5)">
     <use xlink:href="#ma2e7ac7077" x="135.212854" y="74.065271" style="fill: #ffbd00; stroke: #ffbd00"/>
    </g>
   </g>
   <g id="line2d_14">
    <defs>
     <path id="m56f6522a37" d="M 0 2 
C 0.530406 2 1.03916 1.789267 1.414214 1.414214 
C 1.789267 1.03916 2 0.530406 2 0 
C 2 -0.530406 1.789267 -1.03916 1.414214 -1.414214 
C 1.03916 -1.789267 0.530406 -2 0 -2 
C -0.530406 -2 -1.03916 -1.789267 -1.414214 -1.414214 
C -1.789267 -1.03916 -2 -0.530406 -2 0 
C -2 0.530406 -1.789267 1.03916 -1.414214 1.414214 
C -1.03916 1.789267 -0.530406 2 0 2 
z
" style="stroke: #ffbd00"/>
    </defs>
    <g clip-path="url(#p647962ebf5)">
     <use xlink:href="#m56f6522a37" x="115.111567" y="95.874491" style="fill: #ffbd00; stroke: #ffbd00"/>
    </g>
   </g>
   <g id="line2d_15">
    <g clip-path="url(#p647962ebf5)">
     <use xlink:href="#m56f6522a37" x="118.236185" y="81.066697" style="fill: #ffbd00; stroke: #ffbd00"/>
    </g>
   </g>
   <g id="line2d_16">
    <g clip-path="url(#p647962ebf5)">
     <use xlink:href="#m56f6522a37" x="130.23521" y="88.233131" style="fill: #ffbd00; stroke: #ffbd00"/>
    </g>
   </g>
   <g id="line2d_17">
    <g clip-path="url(#p647962ebf5)">
     <use xlink:href="#m56f6522a37" x="130.25204" y="77.788824" style="fill: #ffbd00; stroke: #ffbd00"/>
    </g>
   </g>
   <g id="line2d_18">
    <g clip-path="url(#p647962ebf5)">
     <use xlink:href="#m56f6522a37" x="120.661443" y="83.915315" style="fill: #ffbd00; stroke: #ffbd00"/>
    </g>
   </g>
   <g id="line2d_19">
    <g clip-path="url(#p647962ebf5)">
     <use xlink:href="#m56f6522a37" x="104.862917" y="84.309649" style="fill: #ffbd00; stroke: #ffbd00"/>
    </g>
   </g>
   <g id="line2d_20">
    <g clip-path="url(#p647962ebf5)">
     <use xlink:href="#m56f6522a37" x="94.972866" y="96.165304" style="fill: #ffbd00; stroke: #ffbd00"/>
    </g>
   </g>
   <g id="line2d_21">
    <g clip-path="url(#p647962ebf5)">
     <use xlink:href="#m56f6522a37" x="105.22584" y="97.839249" style="fill: #ffbd00; stroke: #ffbd00"/>
    </g>
   </g>
   <g id="line2d_22">
    <g clip-path="url(#p647962ebf5)">
     <use xlink:href="#m56f6522a37" x="115.418153" y="89.487612" style="fill: #ffbd00; stroke: #ffbd00"/>
    </g>
   </g>
   <g id="line2d_23">
    <g clip-path="url(#p647962ebf5)">
     <use xlink:href="#m56f6522a37" x="92.497898" y="101.699385" style="fill: #ffbd00; stroke: #ffbd00"/>
    </g>
   </g>
   <g id="line2d_24">
    <defs>
     <path id="mce042122f6" d="M 0 7.5 
C 1.989023 7.5 3.896849 6.709753 5.303301 5.303301 
C 6.709753 3.896849 7.5 1.989023 7.5 0 
C 7.5 -1.989023 6.709753 -3.896849 5.303301 -5.303301 
C 3.896849 -6.709753 1.989023 -7.5 0 -7.5 
C -1.989023 -7.5 -3.896849 -6.709753 -5.303301 -5.303301 
C -6.709753 -3.896849 -7.5 -1.989023 -7.5 0 
C -7.5 1.989023 -6.709753 3.896849 -5.303301 5.303301 
C -3.896849 6.709753 -1.989023 7.5 0 7.5 
z
" style="stroke: #84ff00"/>
    </defs>
    <g clip-path="url(#p647962ebf5)">
     <use xlink:href="#mce042122f6" x="97.08" y="58.270125" style="fill: #84ff00; stroke: #84ff00"/>
    </g>
   </g>
   <g id="line2d_25">
    <defs>
     <path id="m0d110e4cad" d="M 0 2 
C 0.530406 2 1.03916 1.789267 1.414214 1.414214 
C 1.789267 1.03916 2 0.530406 2 0 
C 2 -0.530406 1.789267 -1.03916 1.414214 -1.414214 
C 1.03916 -1.789267 0.530406 -2 0 -2 
C -0.530406 -2 -1.03916 -1.789267 -1.414214 -1.414214 
C -1.789267 -1.03916 -2 -0.530406 -2 0 
C -2 0.530406 -1.789267 1.03916 -1.414214 1.414214 
C -1.03916 1.789267 -0.530406 2 0 2 
z
" style="stroke: #84ff00"/>
    </defs>
    <g clip-path="url(#p647962ebf5)">
     <use xlink:href="#m0d110e4cad" x="73.033409" y="67.22715" style="fill: #84ff00; stroke: #84ff00"/>
    </g>
   </g>
   <g id="line2d_26">
    <g clip-path="url(#p647962ebf5)">
     <use xlink:href="#m0d110e4cad" x="91.360723" y="75.528284" style="fill: #84ff00; stroke: #84ff00"/>
    </g>
   </g>
   <g id="line2d_27">
    <g clip-path="url(#p647962ebf5)">
     <use xlink:href="#m0d110e4cad" x="89.311295" y="90.784605" style="fill: #84ff00; stroke: #84ff00"/>
    </g>
   </g>
   <g id="line2d_28">
    <g clip-path="url(#p647962ebf5)">
     <use xlink:href="#m0d110e4cad" x="75.318684" y="83.016987" style="fill: #84ff00; stroke: #84ff00"/>
    </g>
   </g>
   <g id="line2d_29">
    <g clip-path="url(#p647962ebf5)">
     <use xlink:href="#m0d110e4cad" x="77.995696" y="86.899462" style="fill: #84ff00; stroke: #84ff00"/>
    </g>
   </g>
   <g id="line2d_30">
    <g clip-path="url(#p647962ebf5)">
     <use xlink:href="#m0d110e4cad" x="86.350554" y="101.745861" style="fill: #84ff00; stroke: #84ff00"/>
    </g>
   </g>
   <g id="line2d_31">
    <g clip-path="url(#p647962ebf5)">
     <use xlink:href="#m0d110e4cad" x="96.667399" y="84.880044" style="fill: #84ff00; stroke: #84ff00"/>
    </g>
   </g>
   <g id="line2d_32">
    <g clip-path="url(#p647962ebf5)">
     <use xlink:href="#m0d110e4cad" x="82.331472" y="103.321757" style="fill: #84ff00; stroke: #84ff00"/>
    </g>
   </g>
   <g id="line2d_33">
    <g clip-path="url(#p647962ebf5)">
     <use xlink:href="#m0d110e4cad" x="90.548025" y="93.279724" style="fill: #84ff00; stroke: #84ff00"/>
    </g>
   </g>
   <g id="line2d_34">
    <g clip-path="url(#p647962ebf5)">
     <use xlink:href="#m0d110e4cad" x="80.916153" y="74.637876" style="fill: #84ff00; stroke: #84ff00"/>
    </g>
   </g>
   <g id="line2d_35">
    <defs>
     <path id="m9d71d57d2f" d="M 0 7.5 
C 1.989023 7.5 3.896849 6.709753 5.303301 5.303301 
C 6.709753 3.896849 7.5 1.989023 7.5 0 
C 7.5 -1.989023 6.709753 -3.896849 5.303301 -5.303301 
C 3.896849 -6.709753 1.989023 -7.5 0 -7.5 
C -1.989023 -7.5 -3.896849 -6.709753 -5.303301 -5.303301 
C -6.709753 -3.896849 -7.5 -1.989023 -7.5 0 
C -7.5 1.989023 -6.709753 3.896849 -5.303301 5.303301 
C -3.896849 6.709753 -1.989023 7.5 0 7.5 
z
" style="stroke: #00ff39"/>
    </defs>
    <g clip-path="url(#p647962ebf5)">
     <use xlink:href="#m9d71d57d2f" x="58.947146" y="74.065271" style="fill: #00ff39; stroke: #00ff39"/>
    </g>
   </g>
   <g id="line2d_36">
    <defs>
     <path id="m3f51a5d5b0" d="M 0 2 
C 0.530406 2 1.03916 1.789267 1.414214 1.414214 
C 1.789267 1.03916 2 0.530406 2 0 
C 2 -0.530406 1.789267 -1.03916 1.414214 -1.414214 
C 1.03916 -1.789267 0.530406 -2 0 -2 
C -0.530406 -2 -1.03916 -1.789267 -1.414214 -1.414214 
C -1.789267 -1.03916 -2 -0.530406 -2 0 
C -2 0.530406 -1.789267 1.03916 -1.414214 1.414214 
C -1.03916 1.789267 -0.530406 2 0 2 
z
" style="stroke: #00ff39"/>
    </defs>
    <g clip-path="url(#p647962ebf5)">
     <use xlink:href="#m3f51a5d5b0" x="47.098824" y="92.954644" style="fill: #00ff39; stroke: #00ff39"/>
    </g>
   </g>
   <g id="line2d_37">
    <g clip-path="url(#p647962ebf5)">
     <use xlink:href="#m3f51a5d5b0" x="75.332524" y="113.34032" style="fill: #00ff39; stroke: #00ff39"/>
    </g>
   </g>
   <g id="line2d_38">
    <g clip-path="url(#p647962ebf5)">
     <use xlink:href="#m3f51a5d5b0" x="45.086352" y="112.343494" style="fill: #00ff39; stroke: #00ff39"/>
    </g>
   </g>
   <g id="line2d_39">
    <g clip-path="url(#p647962ebf5)">
     <use xlink:href="#m3f51a5d5b0" x="71.750919" y="111.844637" style="fill: #00ff39; stroke: #00ff39"/>
    </g>
   </g>
   <g id="line2d_40">
    <g clip-path="url(#p647962ebf5)">
     <use xlink:href="#m3f51a5d5b0" x="59.064823" y="103.461394" style="fill: #00ff39; stroke: #00ff39"/>
    </g>
   </g>
   <g id="line2d_41">
    <g clip-path="url(#p647962ebf5)">
     <use xlink:href="#m3f51a5d5b0" x="83.900938" y="95.330423" style="fill: #00ff39; stroke: #00ff39"/>
    </g>
   </g>
   <g id="line2d_42">
    <g clip-path="url(#p647962ebf5)">
     <use xlink:href="#m3f51a5d5b0" x="72.051961" y="109.464711" style="fill: #00ff39; stroke: #00ff39"/>
    </g>
   </g>
   <g id="line2d_43">
    <g clip-path="url(#p647962ebf5)">
     <use xlink:href="#m3f51a5d5b0" x="86.362376" y="107.699115" style="fill: #00ff39; stroke: #00ff39"/>
    </g>
   </g>
   <g id="line2d_44">
    <g clip-path="url(#p647962ebf5)">
     <use xlink:href="#m3f51a5d5b0" x="72.667815" y="119.801552" style="fill: #00ff39; stroke: #00ff39"/>
    </g>
   </g>
   <g id="line2d_45">
    <g clip-path="url(#p647962ebf5)">
     <use xlink:href="#m3f51a5d5b0" x="88.394736" y="132.418173" style="fill: #00ff39; stroke: #00ff39"/>
    </g>
   </g>
   <g id="line2d_46">
    <defs>
     <path id="me6a72d7c52" d="M 0 7.5 
C 1.989023 7.5 3.896849 6.709753 5.303301 5.303301 
C 6.709753 3.896849 7.5 1.989023 7.5 0 
C 7.5 -1.989023 6.709753 -3.896849 5.303301 -5.303301 
C 3.896849 -6.709753 1.989023 -7.5 0 -7.5 
C -1.989023 -7.5 -3.896849 -6.709753 -5.303301 -5.303301 
C -6.709753 -3.896849 -7.5 -1.989023 -7.5 0 
C -7.5 1.989023 -6.709753 3.896849 -5.303301 5.303301 
C -3.896849 6.709753 -1.989023 7.5 0 7.5 
z
" style="stroke: #00fff6"/>
    </defs>
    <g clip-path="url(#p647962ebf5)">
     <use xlink:href="#me6a72d7c52" x="43.152" y="112.198125" style="fill: #00fff6; stroke: #00fff6"/>
    </g>
   </g>
   <g id="line2d_47">
    <defs>
     <path id="m33941fdd6a" d="M 0 2 
C 0.530406 2 1.03916 1.789267 1.414214 1.414214 
C 1.789267 1.03916 2 0.530406 2 0 
C 2 -0.530406 1.789267 -1.03916 1.414214 -1.414214 
C 1.03916 -1.789267 0.530406 -2 0 -2 
C -0.530406 -2 -1.03916 -1.789267 -1.414214 -1.414214 
C -1.789267 -1.03916 -2 -0.530406 -2 0 
C -2 0.530406 -1.789267 1.03916 -1.414214 1.414214 
C -1.03916 1.789267 -0.530406 2 0 2 
z
" style="stroke: #00fff6"/>
    </defs>
    <g clip-path="url(#p647962ebf5)">
     <use xlink:href="#m33941fdd6a" x="46.27379" y="112.200781" style="fill: #00fff6; stroke: #00fff6"/>
    </g>
   </g>
   <g id="line2d_48">
    <g clip-path="url(#p647962ebf5)">
     <use xlink:href="#m33941fdd6a" x="52.452702" y="118.202089" style="fill: #00fff6; stroke: #00fff6"/>
    </g>
   </g>
   <g id="line2d_49">
    <g clip-path="url(#p647962ebf5)">
     <use xlink:href="#m33941fdd6a" x="52.690565" y="114.207206" style="fill: #00fff6; stroke: #00fff6"/>
    </g>
   </g>
   <g id="line2d_50">
    <g clip-path="url(#p647962ebf5)">
     <use xlink:href="#m33941fdd6a" x="79.994797" y="130.23875" style="fill: #00fff6; stroke: #00fff6"/>
    </g>
   </g>
   <g id="line2d_51">
    <g clip-path="url(#p647962ebf5)">
     <use xlink:href="#m33941fdd6a" x="48.409061" y="125.345677" style="fill: #00fff6; stroke: #00fff6"/>
    </g>
   </g>
   <g id="line2d_52">
    <g clip-path="url(#p647962ebf5)">
     <use xlink:href="#m33941fdd6a" x="80.780966" y="122.612266" style="fill: #00fff6; stroke: #00fff6"/>
    </g>
   </g>
   <g id="line2d_53">
    <g clip-path="url(#p647962ebf5)">
     <use xlink:href="#m33941fdd6a" x="56.45148" y="113.923071" style="fill: #00fff6; stroke: #00fff6"/>
    </g>
   </g>
   <g id="line2d_54">
    <g clip-path="url(#p647962ebf5)">
     <use xlink:href="#m33941fdd6a" x="58.250285" y="125.630863" style="fill: #00fff6; stroke: #00fff6"/>
    </g>
   </g>
   <g id="line2d_55">
    <g clip-path="url(#p647962ebf5)">
     <use xlink:href="#m33941fdd6a" x="68.304469" y="123.174544" style="fill: #00fff6; stroke: #00fff6"/>
    </g>
   </g>
   <g id="line2d_56">
    <g clip-path="url(#p647962ebf5)">
     <use xlink:href="#m33941fdd6a" x="36.763148" y="101.324069" style="fill: #00fff6; stroke: #00fff6"/>
    </g>
   </g>
   <g id="line2d_57">
    <defs>
     <path id="m7e335be506" d="M 0 7.5 
C 1.989023 7.5 3.896849 6.709753 5.303301 5.303301 
C 6.709753 3.896849 7.5 1.989023 7.5 0 
C 7.5 -1.989023 6.709753 -3.896849 5.303301 -5.303301 
C 3.896849 -6.709753 1.989023 -7.5 0 -7.5 
C -1.989023 -7.5 -3.896849 -6.709753 -5.303301 -5.303301 
C -6.709753 -3.896849 -7.5 -1.989023 -7.5 0 
C -7.5 1.989023 -6.709753 3.896849 -5.303301 5.303301 
C -3.896849 6.709753 -1.989023 7.5 0 7.5 
z
" style="stroke: #004bff"/>
    </defs>
    <g clip-path="url(#p647962ebf5)">
     <use xlink:href="#m7e335be506" x="58.947146" y="150.330979" style="fill: #004bff; stroke: #004bff"/>
    </g>
   </g>
   <g id="line2d_58">
    <defs>
     <path id="m95ecd31fe4" d="M 0 2 
C 0.530406 2 1.03916 1.789267 1.414214 1.414214 
C 1.789267 1.03916 2 0.530406 2 0 
C 2 -0.530406 1.789267 -1.03916 1.414214 -1.414214 
C 1.03916 -1.789267 0.530406 -2 0 -2 
C -0.530406 -2 -1.03916 -1.789267 -1.414214 -1.414214 
C -1.789267 -1.03916 -2 -0.530406 -2 0 
C -2 0.530406 -1.789267 1.03916 -1.414214 1.414214 
C -1.03916 1.789267 -0.530406 2 0 2 
z
" style="stroke: #004bff"/>
    </defs>
    <g clip-path="url(#p647962ebf5)">
     <use xlink:href="#m95ecd31fe4" x="64.082178" y="120.165452" style="fill: #004bff; stroke: #004bff"/>
    </g>
   </g>
   <g id="line2d_59">
    <g clip-path="url(#p647962ebf5)">
     <use xlink:href="#m95ecd31fe4" x="63.470481" y="145.273084" style="fill: #004bff; stroke: #004bff"/>
    </g>
   </g>
   <g id="line2d_60">
    <g clip-path="url(#p647962ebf5)">
     <use xlink:href="#m95ecd31fe4" x="63.851876" y="120.677519" style="fill: #004bff; stroke: #004bff"/>
    </g>
   </g>
   <g id="line2d_61">
    <g clip-path="url(#p647962ebf5)">
     <use xlink:href="#m95ecd31fe4" x="70.033717" y="137.250483" style="fill: #004bff; stroke: #004bff"/>
    </g>
   </g>
   <g id="line2d_62">
    <g clip-path="url(#p647962ebf5)">
     <use xlink:href="#m95ecd31fe4" x="67.811971" y="133.072482" style="fill: #004bff; stroke: #004bff"/>
    </g>
   </g>
   <g id="line2d_63">
    <g clip-path="url(#p647962ebf5)">
     <use xlink:href="#m95ecd31fe4" x="66.986693" y="125.279031" style="fill: #004bff; stroke: #004bff"/>
    </g>
   </g>
   <g id="line2d_64">
    <g clip-path="url(#p647962ebf5)">
     <use xlink:href="#m95ecd31fe4" x="44.205721" y="132.272116" style="fill: #004bff; stroke: #004bff"/>
    </g>
   </g>
   <g id="line2d_65">
    <g clip-path="url(#p647962ebf5)">
     <use xlink:href="#m95ecd31fe4" x="54.480372" y="130.004449" style="fill: #004bff; stroke: #004bff"/>
    </g>
   </g>
   <g id="line2d_66">
    <g clip-path="url(#p647962ebf5)">
     <use xlink:href="#m95ecd31fe4" x="56.3717" y="153.641493" style="fill: #004bff; stroke: #004bff"/>
    </g>
   </g>
   <g id="line2d_67">
    <g clip-path="url(#p647962ebf5)">
     <use xlink:href="#m95ecd31fe4" x="57.106341" y="131.888757" style="fill: #004bff; stroke: #004bff"/>
    </g>
   </g>
   <g id="line2d_68">
    <defs>
     <path id="m9b73e8bee1" d="M 0 7.5 
C 1.989023 7.5 3.896849 6.709753 5.303301 5.303301 
C 6.709753 3.896849 7.5 1.989023 7.5 0 
C 7.5 -1.989023 6.709753 -3.896849 5.303301 -5.303301 
C 3.896849 -6.709753 1.989023 -7.5 0 -7.5 
C -1.989023 -7.5 -3.896849 -6.709753 -5.303301 -5.303301 
C -6.709753 -3.896849 -7.5 -1.989023 -7.5 0 
C -7.5 1.989023 -6.709753 3.896849 -5.303301 5.303301 
C -3.896849 6.709753 -1.989023 7.5 0 7.5 
z
" style="stroke: #7200ff"/>
    </defs>
    <g clip-path="url(#p647962ebf5)">
     <use xlink:href="#m9b73e8bee1" x="97.08" y="166.126125" style="fill: #7200ff; stroke: #7200ff"/>
    </g>
   </g>
   <g id="line2d_69">
    <defs>
     <path id="mece99b4c08" d="M 0 2 
C 0.530406 2 1.03916 1.789267 1.414214 1.414214 
C 1.789267 1.03916 2 0.530406 2 0 
C 2 -0.530406 1.789267 -1.03916 1.414214 -1.414214 
C 1.03916 -1.789267 0.530406 -2 0 -2 
C -0.530406 -2 -1.03916 -1.789267 -1.414214 -1.414214 
C -1.789267 -1.03916 -2 -0.530406 -2 0 
C -2 0.530406 -1.789267 1.03916 -1.414214 1.414214 
C -1.03916 1.789267 -0.530406 2 0 2 
z
" style="stroke: #7200ff"/>
    </defs>
    <g clip-path="url(#p647962ebf5)">
     <use xlink:href="#mece99b4c08" x="68.077261" y="174.067914" style="fill: #7200ff; stroke: #7200ff"/>
    </g>
   </g>
   <g id="line2d_70">
    <g clip-path="url(#p647962ebf5)">
     <use xlink:href="#mece99b4c08" x="79.979075" y="150.118316" style="fill: #7200ff; stroke: #7200ff"/>
    </g>
   </g>
   <g id="line2d_71">
    <g clip-path="url(#p647962ebf5)">
     <use xlink:href="#mece99b4c08" x="61.343014" y="158.008585" style="fill: #7200ff; stroke: #7200ff"/>
    </g>
   </g>
   <g id="line2d_72">
    <g clip-path="url(#p647962ebf5)">
     <use xlink:href="#mece99b4c08" x="89.711973" y="170.973796" style="fill: #7200ff; stroke: #7200ff"/>
    </g>
   </g>
   <g id="line2d_73">
    <g clip-path="url(#p647962ebf5)">
     <use xlink:href="#mece99b4c08" x="85.312029" y="158.718981" style="fill: #7200ff; stroke: #7200ff"/>
    </g>
   </g>
   <g id="line2d_74">
    <g clip-path="url(#p647962ebf5)">
     <use xlink:href="#mece99b4c08" x="72.040112" y="168.899417" style="fill: #7200ff; stroke: #7200ff"/>
    </g>
   </g>
   <g id="line2d_75">
    <g clip-path="url(#p647962ebf5)">
     <use xlink:href="#mece99b4c08" x="78.848892" y="169.214763" style="fill: #7200ff; stroke: #7200ff"/>
    </g>
   </g>
   <g id="line2d_76">
    <g clip-path="url(#p647962ebf5)">
     <use xlink:href="#mece99b4c08" x="77.300181" y="153.333385" style="fill: #7200ff; stroke: #7200ff"/>
    </g>
   </g>
   <g id="line2d_77">
    <g clip-path="url(#p647962ebf5)">
     <use xlink:href="#mece99b4c08" x="100.571236" y="159.571529" style="fill: #7200ff; stroke: #7200ff"/>
    </g>
   </g>
   <g id="line2d_78">
    <g clip-path="url(#p647962ebf5)">
     <use xlink:href="#mece99b4c08" x="90.336333" y="164.786472" style="fill: #7200ff; stroke: #7200ff"/>
    </g>
   </g>
   <g id="line2d_79">
    <defs>
     <path id="m40cab78f8b" d="M 0 7.5 
C 1.989023 7.5 3.896849 6.709753 5.303301 5.303301 
C 6.709753 3.896849 7.5 1.989023 7.5 0 
C 7.5 -1.989023 6.709753 -3.896849 5.303301 -5.303301 
C 3.896849 -6.709753 1.989023 -7.5 0 -7.5 
C -1.989023 -7.5 -3.896849 -6.709753 -5.303301 -5.303301 
C -6.709753 -3.896849 -7.5 -1.989023 -7.5 0 
C -7.5 1.989023 -6.709753 3.896849 -5.303301 5.303301 
C -3.896849 6.709753 -1.989023 7.5 0 7.5 
z
" style="stroke: #ff00cf"/>
    </defs>
    <g clip-path="url(#p647962ebf5)">
     <use xlink:href="#m40cab78f8b" x="135.212854" y="150.330979" style="fill: #ff00cf; stroke: #ff00cf"/>
    </g>
   </g>
   <g id="line2d_80">
    <defs>
     <path id="mcc1ac46fea" d="M 0 2 
C 0.530406 2 1.03916 1.789267 1.414214 1.414214 
C 1.789267 1.03916 2 0.530406 2 0 
C 2 -0.530406 1.789267 -1.03916 1.414214 -1.414214 
C 1.03916 -1.789267 0.530406 -2 0 -2 
C -0.530406 -2 -1.03916 -1.789267 -1.414214 -1.414214 
C -1.789267 -1.03916 -2 -0.530406 -2 0 
C -2 0.530406 -1.789267 1.03916 -1.414214 1.414214 
C -1.03916 1.789267 -0.530406 2 0 2 
z
" style="stroke: #ff00cf"/>
    </defs>
    <g clip-path="url(#p647962ebf5)">
     <use xlink:href="#mcc1ac46fea" x="107.427371" y="153.906559" style="fill: #ff00cf; stroke: #ff00cf"/>
    </g>
   </g>
   <g id="line2d_81">
    <g clip-path="url(#p647962ebf5)">
     <use xlink:href="#mcc1ac46fea" x="120.636003" y="145.040685" style="fill: #ff00cf; stroke: #ff00cf"/>
    </g>
   </g>
   <g id="line2d_82">
    <g clip-path="url(#p647962ebf5)">
     <use xlink:href="#mcc1ac46fea" x="118.136961" y="155.643824" style="fill: #ff00cf; stroke: #ff00cf"/>
    </g>
   </g>
   <g id="line2d_83">
    <g clip-path="url(#p647962ebf5)">
     <use xlink:href="#mcc1ac46fea" x="130.542946" y="141.504637" style="fill: #ff00cf; stroke: #ff00cf"/>
    </g>
   </g>
   <g id="line2d_84">
    <g clip-path="url(#p647962ebf5)">
     <use xlink:href="#mcc1ac46fea" x="131.045477" y="160.297488" style="fill: #ff00cf; stroke: #ff00cf"/>
    </g>
   </g>
   <g id="line2d_85">
    <g clip-path="url(#p647962ebf5)">
     <use xlink:href="#mcc1ac46fea" x="131.910955" y="147.746069" style="fill: #ff00cf; stroke: #ff00cf"/>
    </g>
   </g>
   <g id="line2d_86">
    <g clip-path="url(#p647962ebf5)">
     <use xlink:href="#mcc1ac46fea" x="121.502286" y="139.922038" style="fill: #ff00cf; stroke: #ff00cf"/>
    </g>
   </g>
   <g id="line2d_87">
    <g clip-path="url(#p647962ebf5)">
     <use xlink:href="#mcc1ac46fea" x="122.387507" y="153.428712" style="fill: #ff00cf; stroke: #ff00cf"/>
    </g>
   </g>
   <g id="line2d_88">
    <g clip-path="url(#p647962ebf5)">
     <use xlink:href="#mcc1ac46fea" x="148.431423" y="148.752897" style="fill: #ff00cf; stroke: #ff00cf"/>
    </g>
   </g>
   <g id="line2d_89">
    <g clip-path="url(#p647962ebf5)">
     <use xlink:href="#mcc1ac46fea" x="124.57122" y="148.048426" style="fill: #ff00cf; stroke: #ff00cf"/>
    </g>
   </g>
   <g id="text_1">
    <text style="font-size: 12px; font-family: 'DejaVu Sans', 'Bitstream Vera Sans', 'Computer Modern Sans Serif', 'Lucida Grande', 'Verdana', 'Geneva', 'Lucid', 'Arial', 'Helvetica', 'Avant Garde', sans-serif; text-anchor: middle" x="97.08" y="16.318125" transform="rotate(-0 97.08 16.318125)">Policy Snapshot @ Trial 1000</text>
   </g>
  </g>
 </g>
 <defs>
  <clipPath id="p647962ebf5">
   <rect x="7.2" y="22.318125" width="179.76" height="179.76"/>
  </clipPath>
 </defs>
</svg>
