<?xml version="1.0" encoding="UTF-8"?>
<svg id="Layer_1" xmlns="http://www.w3.org/2000/svg" xmlns:xlink="http://www.w3.org/1999/xlink" version="1.1" viewBox="0 0 549.05 145.76">
  <!-- Generator: Adobe Illustrator 29.7.1, SVG Export Plug-In . SVG Version: 2.1.1 Build 8)  -->
  <defs>
    <style>
      .st0, .st1, .st2, .st3 {
        fill: none;
      }

      .st1, .st2 {
        stroke-width: 1.5px;
      }

      .st1, .st2, .st4, .st5, .st6, .st7, .st8 {
        stroke-linejoin: round;
      }

      .st1, .st2, .st3 {
        stroke-linecap: square;
      }

      .st1, .st6, .st7 {
        stroke: blue;
      }

      .st2, .st4, .st5 {
        stroke: red;
      }

      .st4, .st5 {
        fill: red;
      }

      .st4, .st7 {
        fill-opacity: .3;
        stroke-opacity: .3;
      }

      .st9 {
        clip-path: url(#clippath-1);
      }

      .st10 {
        clip-path: url(#clippath-3);
      }

      .st11 {
        clip-path: url(#clippath-2);
      }

      .st12 {
        fill: #fff;
      }

      .st6, .st7 {
        fill: blue;
      }

      .st13 {
        font-family: .LucidaGrandeUI, '.Lucida Grande UI';
        font-size: 10px;
        isolation: isolate;
      }

      .st8, .st3 {
        stroke: #000;
        stroke-width: .8px;
      }

      .st14 {
        clip-path: url(#clippath);
      }
    </style>
    <clipPath id="clippath">
      <rect class="st0" x="39.65" y="11" width="228.27" height="110.88"/>
    </clipPath>
    <clipPath id="clippath-1">
      <rect class="st0" x="39.65" y="11" width="228.27" height="110.88"/>
    </clipPath>
    <clipPath id="clippath-2">
      <rect class="st0" x="39.65" y="11" width="228.27" height="110.88"/>
    </clipPath>
    <clipPath id="clippath-3">
      <rect class="st0" x="39.65" y="11" width="228.27" height="110.88"/>
    </clipPath>
  </defs>
  <g id="figure_1">
    <g id="axes_1">
      <g id="patch_2">
        <path class="st12" d="M39.65,121.88h228.27V11H39.65v110.88Z"/>
      </g>
      <g id="FillBetweenPolyCollection_1">
        <g class="st14">
          <path id="m4edbd8b094" class="st7" d="M50.03,101.31v4.92l5.93,4.06,5.93-2.44,5.93,2.28,5.93,2.26,5.93,1.38,5.93-3.26,5.93,2.93,5.93-.48,5.93,1.41,5.93-1.68,5.93-.51,5.93,4.1,5.93.13,5.93.4,5.93-.55,5.93.91,5.93-1.39,5.93,1.02,5.93-.06,5.93,1.24h5.93s5.93-.17,5.93-.17l5.93-.71,5.93.21h5.93s5.93-.78,5.93-.78l5.93,1.43,5.93.14,5.93-.05,5.93-.99,5.93,1.79,5.93.39,5.93-1.04,5.93.7,5.93-.26v-2.14h0l-5.93.36-5.93-1.21-5.93,2-5.93-.58-5.93-1.78-5.93.45-5.93-.18-5.93.38-5.93-3.27-5.93.67-5.93.76-5.93.42-5.93,1.48-5.93.26-5.93-1.16-5.93-.79-5.93-.25-5.93-2.74-5.93,3.92-5.93-2.77-5.93.13-5.93.53-5.93-.65-5.93-5.05-5.93-1.92-5.93,3.87-5.93-.88-5.93-.46-5.93-3.68-5.93,2.72-5.93-.56-5.93-.2-5.93-9.44-5.93,3.87-5.93.58Z"/>
        </g>
      </g>
      <g id="FillBetweenPolyCollection_2">
        <g class="st9">
          <path id="md93f94fa7c" class="st4" d="M50.03,9.2v19.49l5.93-1.12,5.93,26.96,5.93-14.45,5.93,23.58,5.93,6.56,5.93-6.06,5.93,9.91,5.93,10.86,5.93-.71,5.93,8.41,5.93-2.32,5.93,2.78,5.93,7.31,5.93-6.5,5.93,4.93,5.93-13.86,5.93,14.46,5.93-5.49,5.93,6.11,5.93-1.6,5.93,4.86,5.93-3.7,5.93,4.4,5.93-2.95,5.93,6.69,5.93-7.36,5.93,6.14,5.93,2.36,5.93-5.52,5.93-.65,5.93-.14,5.93,4.37,5.93-2.09,5.93,4.15,5.93-.26v-4.47h0l-5.93.59-5.93-7.93-5.93,2.3-5.93-7.72-5.93,3.4-5.93.54-5.93,6.39-5.93-5.31-5.93-3.04-5.93,8.61-5.93-9.95-5.93,2.46-5.93-4.43-5.93,3.06-5.93-3.54-5.93,3.14-5.93-24.35-5.93,23.87-5.93-18.44-5.93,16.35-5.93-8.22-5.93,9.23-5.93-15.76-5.93-.47-5.93,5.05-5.93-8.96-5.93,2.01-5.93-16.52-5.93-11.43-5.93,7.12-5.93-5.87-5.93-26.76-5.93,22.67-5.93-27.49-5.93-5.67Z"/>
        </g>
      </g>
      <g id="matplotlib.axis_1">
        <g id="xtick_1">
          <g id="line2d_1">
            <path id="mbfdb40156b" class="st8" d="M47.06,121.88v3.5"/>
          </g>
          <g id="text_1">
            <text class="st13" transform="translate(43.9 136.48)"><tspan x="0" y="0">0</tspan></text>
          </g>
        </g>
        <g id="xtick_2">
          <g id="line2d_2">
            <path id="mbfdb40156b1" data-name="mbfdb40156b" class="st8" d="M96.47,121.88v3.5"/>
          </g>
          <g id="text_2">
            <text class="st13" transform="translate(86.99 136.48)"><tspan x="0" y="0">500</tspan></text>
          </g>
        </g>
        <g id="xtick_3">
          <g id="line2d_3">
            <path id="mbfdb40156b2" data-name="mbfdb40156b" class="st8" d="M145.88,121.88v3.5"/>
          </g>
          <g id="text_3">
            <text class="st13" transform="translate(133.23 136.48)"><tspan x="0" y="0">1000</tspan></text>
          </g>
        </g>
        <g id="xtick_4">
          <g id="line2d_4">
            <path id="mbfdb40156b3" data-name="mbfdb40156b" class="st8" d="M195.29,121.88v3.5"/>
          </g>
          <g id="text_4">
            <text class="st13" transform="translate(182.64 136.48)"><tspan x="0" y="0">1500</tspan></text>
          </g>
        </g>
        <g id="xtick_5">
          <g id="line2d_5">
            <path id="mbfdb40156b4" data-name="mbfdb40156b" class="st8" d="M244.7,121.88v3.5"/>
          </g>
          <g id="text_5">
            <text class="st13" transform="translate(232.05 136.48)"><tspan x="0" y="0">2000</tspan></text>
          </g>
        </g>
      </g>
      <g id="matplotlib.axis_2">
        <g id="ytick_1">
          <g id="line2d_6">
            <path id="mcde60bb8bb" class="st8" d="M39.65,121.88h-3.5"/>
          </g>
          <g id="text_6">
            <text class="st13" transform="translate(26.33 125.68)"><tspan x="0" y="0">0</tspan></text>
          </g>
        </g>
        <g id="ytick_2">
          <g id="line2d_7">
            <path id="mcde60bb8bb1" data-name="mcde60bb8bb" class="st8" d="M39.65,84.92h-3.5"/>
          </g>
          <g id="text_7">
            <text class="st13" transform="translate(7.36 88.72)"><tspan x="0" y="0">1000</tspan></text>
          </g>
        </g>
        <g id="ytick_3">
          <g id="line2d_8">
            <path id="mcde60bb8bb2" data-name="mcde60bb8bb" class="st8" d="M39.65,47.96h-3.5"/>
          </g>
          <g id="text_8">
            <text class="st13" transform="translate(7.36 51.76)"><tspan x="0" y="0">2000</tspan></text>
          </g>
        </g>
        <g id="ytick_4">
          <g id="line2d_9">
            <path id="mcde60bb8bb3" data-name="mcde60bb8bb" class="st8" d="M39.65,11h-3.5"/>
          </g>
          <g id="text_9">
            <text class="st13" transform="translate(7.36 14.8)"><tspan x="0" y="0">3000</tspan></text>
          </g>
        </g>
      </g>
      <g id="line2d_10">
        <g class="st11">
          <path class="st1" d="M50.03,103.77l5.93,1.74,5.93-3.16,5.93,5.86,5.93,1.23,5.93.97,5.93-2.99,5.93,3.31h5.93s5.93,1.13,5.93,1.13l5.93-2.78,5.93.7,5.93,4.57,5.93.39,5.93-.07,5.93-.34,5.93,1.84,5.93-2.65,5.93,1.88,5.93.09,5.93,1.01,5.93.58,5.93-.22,5.93-1.1,5.93-.1,5.93-.38,5.93-.73,5.93,2.35,5.93-.12,5.93.06,5.93-.72,5.93,1.79,5.93.48,5.93-1.52,5.93.96,5.93-.31"/>
        </g>
      </g>
      <g id="line2d_11">
        <g class="st10">
          <path class="st2" d="M50.03,18.95l5.93,2.28,5.93,27.22,5.93-18.56,5.93,25.17,5.93,6.22,5.93-6.59,5.93,10.67,5.93,13.69,5.93-1.36,5.93,8.69,5.93-3.68,5.93,1.63,5.93,11.54,5.93-7.86,5.93,6.57,5.93-15.11,5.93,16.45,5.93-14.68,5.93,15.23,5.93-2.37,5.93,4.2,5.93-3.38,5.93,4.42,5.93-2.7,5.93,8.32,5.93-7.98,5.93,4.59,5.93,3.83,5.93-5.96,5.93-.6,5.93-1.77,5.93,6.05,5.93-2.2,5.93,6.04,5.93-.43"/>
        </g>
      </g>
      <g id="patch_3">
        <path class="st3" d="M39.65,121.88V11"/>
      </g>
      <g id="patch_4">
        <path class="st3" d="M267.92,121.88V11"/>
      </g>
      <g id="patch_5">
        <path class="st3" d="M39.65,121.88h228.27"/>
      </g>
      <g id="patch_6">
        <path class="st3" d="M39.65,11h228.27"/>
      </g>
    </g>
    <g id="axes_2">
      <g id="FillBetweenPolyCollection_3">
        <path id="m046b5664e4" class="st6" d="M323.95,85.16v14.15l5.93,3.31,5.93.24,5.93,2.29,5.93,2.19,5.93.43,5.93,2.1,5.93,1.19,5.93-.4,5.93,1.77,5.93,1.08,5.93-.05,5.93.92,5.93.63,5.93.14,5.93.22,5.93.66,5.93-.33,5.93-.16,5.93,1.44,5.93-.66h5.93s5.93.81,5.93.81l5.93.2,5.93.13,5.93.1h5.93s5.93.18,5.93.18l5.93-.27,5.93.63,5.93.15,5.93.26,5.93-.28,5.93.51,5.93.04,5.93-.16v-3.1h0l-5.93.15-5.93-.17-5.93-.24-5.93.06-5.93.29-5.93-.54-5.93-.34-5.93.02-5.93.8-5.93-.72-5.93-.21-5.93.15-5.93-.46-5.93-1.82-5.93,1.09-5.93.8-5.93-1.61-5.93-.16-5.93.67-5.93-1.13-5.93-.44-5.93-1.04-5.93-.44-5.93-2.07-5.93.02-5.93-1.34-5.93-2.51-5.93-.64-5.93-1.18-5.93-4.18-5.93-.78-5.93-2.84-5.93-4.69-5.93-1.23-5.93-3.63Z"/>
      </g>
      <g id="FillBetweenPolyCollection_4">
        <path id="mc674552d01" class="st5" d="M323.95-3.53v37.57l5.93,6.42,5.93-.91,5.93,6.27,5.93,12.5,5.93-.57,5.93,5.63,5.93,5.91,5.93,6.36,5.93,4.83,5.93,3.17,5.93,3.02,5.93,4.11,5.93-.25,5.93,4.22,5.93-.09,5.93,5.07,5.93-1.28,5.93.44,5.93,2.67,5.93,1.36,5.93.26,5.93,1.46,5.93,2.1,5.93.21,5.93.38,5.93-.49,5.93,2.86,5.93-.41,5.93-.42,5.93.57,5.93,1.31,5.93-.56,5.93,2.4,5.93-.26,5.93.58v-2.33h0l-5.93-2.69-5.93,1.83-5.93-4.5-5.93,1.57-5.93-1.83-5.93.11-5.93-.46-5.93,1.59-5.93-5.76-5.93.99-5.93-.79h-5.93s-5.93-2.46-5.93-2.46l-5.93-1.55-5.93-2.33-5.93-.63-5.93-4.87-5.93-.96-5.93,1.82-5.93-5.25-5.93-.46-5.93-7.95-5.93-.41-5.93-5.57-5.93-5.26-5.93-5.74-5.93-5.09-5.93-8.17-5.93-7.96-5.93-11.96-5.93,3.25-5.93-17.31-5.93-7.71-5.93,1.43-5.93-8.99Z"/>
      </g>
      <g id="matplotlib.axis_3">
        <g id="xtick_6">
          <g id="line2d_12">
            <path id="mbfdb40156b5" data-name="mbfdb40156b" class="st8" d="M320.99,121.88v3.5"/>
          </g>
          <g id="text_10">
            <text class="st13" transform="translate(317.83 136.48)"><tspan x="0" y="0">0</tspan></text>
          </g>
        </g>
        <g id="xtick_7">
          <g id="line2d_13">
            <path id="mbfdb40156b6" data-name="mbfdb40156b" class="st8" d="M370.4,121.88v3.5"/>
          </g>
          <g id="text_11">
            <text class="st13" transform="translate(360.91 136.48)"><tspan x="0" y="0">500</tspan></text>
          </g>
        </g>
        <g id="xtick_8">
          <g id="line2d_14">
            <path id="mbfdb40156b7" data-name="mbfdb40156b" class="st8" d="M419.81,121.88v3.5"/>
          </g>
          <g id="text_12">
            <text class="st13" transform="translate(407.16 136.48)"><tspan x="0" y="0">1000</tspan></text>
          </g>
        </g>
        <g id="xtick_9">
          <g id="line2d_15">
            <path id="mbfdb40156b8" data-name="mbfdb40156b" class="st8" d="M469.22,121.88v3.5"/>
          </g>
          <g id="text_13">
            <text class="st13" transform="translate(456.57 136.48)"><tspan x="0" y="0">1500</tspan></text>
          </g>
        </g>
        <g id="xtick_10">
          <g id="line2d_16">
            <path id="mbfdb40156b9" data-name="mbfdb40156b" class="st8" d="M518.63,121.88v3.5"/>
          </g>
          <g id="text_14">
            <text class="st13" transform="translate(505.98 136.48)"><tspan x="0" y="0">2000</tspan></text>
          </g>
        </g>
      </g>
      <g id="matplotlib.axis_4">
        <g id="ytick_5">
          <g id="line2d_17">
            <path id="mcde60bb8bb4" data-name="mcde60bb8bb" class="st8" d="M313.58,121.88h-3.5"/>
          </g>
        </g>
        <g id="ytick_6">
          <g id="line2d_18">
            <path id="mcde60bb8bb5" data-name="mcde60bb8bb" class="st8" d="M313.58,84.92h-3.5"/>
          </g>
        </g>
        <g id="ytick_7">
          <g id="line2d_19">
            <path id="mcde60bb8bb6" data-name="mcde60bb8bb" class="st8" d="M313.58,47.96h-3.5"/>
          </g>
        </g>
        <g id="ytick_8">
          <g id="line2d_20">
            <path id="mcde60bb8bb7" data-name="mcde60bb8bb" class="st8" d="M313.58,11h-3.5"/>
          </g>
        </g>
      </g>
      <g id="line2d_21">
        <path class="st1" d="M323.95,92.23l5.93,3.47,5.93.73,5.93,3.49,5.93,2.51,5.93.61,5.93,3.14,5.93,1.19,5.93.12,5.93,2.14,5.93,1.21,5.93-.04,5.93,1.49,5.93.53,5.93.59,5.93.33,5.93.9,5.93-.5h5.93s5.93,1.52,5.93,1.52l5.93-.73,5.93-.55,5.93,1.32,5.93.33h5.93s5.93.15,5.93.15l5.93.36,5.93-.31,5.93-.15,5.93.49,5.93.35h5.93s5.93-.18,5.93-.18l5.93.37,5.93.1,5.93-.15"/>
      </g>
      <g id="line2d_22">
        <path class="st2" d="M323.95,15.26l5.93,7.7,5.93-1.17,5.93,6.99,5.93,14.9,5.93-1.91,5.93,8.79,5.93,6.94,5.93,7.27,5.93,4.96,5.93,4.46,5.93,4.14,5.93,4.84,5.93.08,5.93,6.08,5.93.19,5.93,5.16,5.93-1.55,5.93.7,5.93,3.77,5.93,1,5.93,1.29,5.93,1.51,5.93,2.29,5.93.1,5.93.59,5.93-.74,5.93,4.31,5.93-1,5.93.02,5.93.23,5.93,1.57,5.93-1.07,5.93,3.45,5.93-1.04,5.93,1.63"/>
      </g>
      <g id="patch_8">
        <path class="st3" d="M313.58,121.88V11"/>
      </g>
      <g id="patch_10">
        <path class="st3" d="M313.58,121.88h228.27"/>
      </g>
    </g>
  </g>
</svg>